ISO-10303-21;
HEADER;
/* Generated by software containing ST-Developer
 * from STEP Tools, Inc. (www.steptools.com) 
 */
/* OPTION: using custom renumber hook */

FILE_DESCRIPTION(
/* description */ ('STEP AP242',
'CAx-IF Rec.Pracs.---Representation and Presentation of Product Manufa
cturing Information (PMI)---4.0---2014-10-13',
'CAx-IF Rec.Pracs.---3D Tessellated Geometry---0.4---2014-09-14','2;1'),

/* implementation_level */ '2;1');

FILE_NAME(
/* name */ '68f5239f34fe5a613d64a70c',
/* time_stamp */ '2025-10-19T17:45:03Z',
/* author */ (''),
/* organization */ (''),
/* preprocessor_version */ 'ST-DEVELOPER v20',
/* originating_system */ 'ONSHAPE BY PTC INC, 1.205',
/* authorisation */ '  ');

FILE_SCHEMA (('AP242_MANAGED_MODEL_BASED_3D_ENGINEERING_MIM_LF { 1 0 10303 442 1 1 4 }'));
ENDSEC;

DATA;
#10=SHAPE_REPRESENTATION_RELATIONSHIP('','',#829,#11);
#11=ADVANCED_BREP_SHAPE_REPRESENTATION('',(#827),#1299);
#12=ORIENTED_EDGE('',*,*,#240,.F.);
#13=ORIENTED_EDGE('',*,*,#241,.T.);
#14=ORIENTED_EDGE('',*,*,#242,.T.);
#15=ORIENTED_EDGE('',*,*,#243,.F.);
#16=ORIENTED_EDGE('',*,*,#244,.F.);
#17=ORIENTED_EDGE('',*,*,#245,.T.);
#18=ORIENTED_EDGE('',*,*,#246,.T.);
#19=ORIENTED_EDGE('',*,*,#247,.F.);
#20=ORIENTED_EDGE('',*,*,#248,.T.);
#21=ORIENTED_EDGE('',*,*,#249,.T.);
#22=ORIENTED_EDGE('',*,*,#250,.T.);
#23=ORIENTED_EDGE('',*,*,#251,.T.);
#24=ORIENTED_EDGE('',*,*,#252,.T.);
#25=ORIENTED_EDGE('',*,*,#253,.T.);
#26=ORIENTED_EDGE('',*,*,#254,.T.);
#27=ORIENTED_EDGE('',*,*,#255,.T.);
#28=ORIENTED_EDGE('',*,*,#256,.T.);
#29=ORIENTED_EDGE('',*,*,#257,.T.);
#30=ORIENTED_EDGE('',*,*,#258,.T.);
#31=ORIENTED_EDGE('',*,*,#259,.T.);
#32=ORIENTED_EDGE('',*,*,#260,.T.);
#33=ORIENTED_EDGE('',*,*,#261,.T.);
#34=ORIENTED_EDGE('',*,*,#262,.T.);
#35=ORIENTED_EDGE('',*,*,#263,.T.);
#36=ORIENTED_EDGE('',*,*,#264,.T.);
#37=ORIENTED_EDGE('',*,*,#240,.T.);
#38=ORIENTED_EDGE('',*,*,#265,.F.);
#39=ORIENTED_EDGE('',*,*,#266,.F.);
#40=ORIENTED_EDGE('',*,*,#267,.F.);
#41=ORIENTED_EDGE('',*,*,#268,.F.);
#42=ORIENTED_EDGE('',*,*,#269,.F.);
#43=ORIENTED_EDGE('',*,*,#270,.F.);
#44=ORIENTED_EDGE('',*,*,#271,.F.);
#45=ORIENTED_EDGE('',*,*,#272,.F.);
#46=ORIENTED_EDGE('',*,*,#273,.F.);
#47=ORIENTED_EDGE('',*,*,#274,.F.);
#48=ORIENTED_EDGE('',*,*,#275,.F.);
#49=ORIENTED_EDGE('',*,*,#276,.F.);
#50=ORIENTED_EDGE('',*,*,#277,.F.);
#51=ORIENTED_EDGE('',*,*,#278,.F.);
#52=ORIENTED_EDGE('',*,*,#279,.F.);
#53=ORIENTED_EDGE('',*,*,#280,.F.);
#54=ORIENTED_EDGE('',*,*,#281,.F.);
#55=ORIENTED_EDGE('',*,*,#282,.F.);
#56=ORIENTED_EDGE('',*,*,#246,.F.);
#57=ORIENTED_EDGE('',*,*,#283,.T.);
#58=ORIENTED_EDGE('',*,*,#282,.T.);
#59=ORIENTED_EDGE('',*,*,#284,.T.);
#60=ORIENTED_EDGE('',*,*,#285,.T.);
#61=ORIENTED_EDGE('',*,*,#247,.T.);
#62=ORIENTED_EDGE('',*,*,#281,.T.);
#63=ORIENTED_EDGE('',*,*,#286,.T.);
#64=ORIENTED_EDGE('',*,*,#287,.T.);
#65=ORIENTED_EDGE('',*,*,#284,.F.);
#66=ORIENTED_EDGE('',*,*,#280,.T.);
#67=ORIENTED_EDGE('',*,*,#288,.T.);
#68=ORIENTED_EDGE('',*,*,#289,.T.);
#69=ORIENTED_EDGE('',*,*,#286,.F.);
#70=ORIENTED_EDGE('',*,*,#279,.T.);
#71=ORIENTED_EDGE('',*,*,#290,.T.);
#72=ORIENTED_EDGE('',*,*,#291,.T.);
#73=ORIENTED_EDGE('',*,*,#288,.F.);
#74=ORIENTED_EDGE('',*,*,#278,.T.);
#75=ORIENTED_EDGE('',*,*,#292,.T.);
#76=ORIENTED_EDGE('',*,*,#293,.T.);
#77=ORIENTED_EDGE('',*,*,#290,.F.);
#78=ORIENTED_EDGE('',*,*,#277,.T.);
#79=ORIENTED_EDGE('',*,*,#294,.T.);
#80=ORIENTED_EDGE('',*,*,#295,.T.);
#81=ORIENTED_EDGE('',*,*,#292,.F.);
#82=ORIENTED_EDGE('',*,*,#276,.T.);
#83=ORIENTED_EDGE('',*,*,#296,.T.);
#84=ORIENTED_EDGE('',*,*,#297,.T.);
#85=ORIENTED_EDGE('',*,*,#294,.F.);
#86=ORIENTED_EDGE('',*,*,#275,.T.);
#87=ORIENTED_EDGE('',*,*,#298,.T.);
#88=ORIENTED_EDGE('',*,*,#299,.T.);
#89=ORIENTED_EDGE('',*,*,#296,.F.);
#90=ORIENTED_EDGE('',*,*,#274,.T.);
#91=ORIENTED_EDGE('',*,*,#300,.T.);
#92=ORIENTED_EDGE('',*,*,#301,.T.);
#93=ORIENTED_EDGE('',*,*,#298,.F.);
#94=ORIENTED_EDGE('',*,*,#273,.T.);
#95=ORIENTED_EDGE('',*,*,#302,.T.);
#96=ORIENTED_EDGE('',*,*,#303,.T.);
#97=ORIENTED_EDGE('',*,*,#300,.F.);
#98=ORIENTED_EDGE('',*,*,#272,.T.);
#99=ORIENTED_EDGE('',*,*,#304,.T.);
#100=ORIENTED_EDGE('',*,*,#305,.T.);
#101=ORIENTED_EDGE('',*,*,#302,.F.);
#102=ORIENTED_EDGE('',*,*,#271,.T.);
#103=ORIENTED_EDGE('',*,*,#306,.T.);
#104=ORIENTED_EDGE('',*,*,#307,.T.);
#105=ORIENTED_EDGE('',*,*,#304,.F.);
#106=ORIENTED_EDGE('',*,*,#270,.T.);
#107=ORIENTED_EDGE('',*,*,#308,.T.);
#108=ORIENTED_EDGE('',*,*,#309,.T.);
#109=ORIENTED_EDGE('',*,*,#306,.F.);
#110=ORIENTED_EDGE('',*,*,#269,.T.);
#111=ORIENTED_EDGE('',*,*,#310,.T.);
#112=ORIENTED_EDGE('',*,*,#311,.T.);
#113=ORIENTED_EDGE('',*,*,#308,.F.);
#114=ORIENTED_EDGE('',*,*,#268,.T.);
#115=ORIENTED_EDGE('',*,*,#312,.T.);
#116=ORIENTED_EDGE('',*,*,#313,.T.);
#117=ORIENTED_EDGE('',*,*,#310,.F.);
#118=ORIENTED_EDGE('',*,*,#267,.T.);
#119=ORIENTED_EDGE('',*,*,#314,.T.);
#120=ORIENTED_EDGE('',*,*,#315,.T.);
#121=ORIENTED_EDGE('',*,*,#312,.F.);
#122=ORIENTED_EDGE('',*,*,#266,.T.);
#123=ORIENTED_EDGE('',*,*,#316,.T.);
#124=ORIENTED_EDGE('',*,*,#317,.T.);
#125=ORIENTED_EDGE('',*,*,#314,.F.);
#126=ORIENTED_EDGE('',*,*,#265,.T.);
#127=ORIENTED_EDGE('',*,*,#243,.T.);
#128=ORIENTED_EDGE('',*,*,#318,.T.);
#129=ORIENTED_EDGE('',*,*,#316,.F.);
#130=ORIENTED_EDGE('',*,*,#283,.F.);
#131=ORIENTED_EDGE('',*,*,#245,.F.);
#132=ORIENTED_EDGE('',*,*,#319,.F.);
#133=ORIENTED_EDGE('',*,*,#241,.F.);
#134=ORIENTED_EDGE('',*,*,#264,.F.);
#135=ORIENTED_EDGE('',*,*,#320,.T.);
#136=ORIENTED_EDGE('',*,*,#321,.T.);
#137=ORIENTED_EDGE('',*,*,#322,.F.);
#138=ORIENTED_EDGE('',*,*,#248,.F.);
#139=ORIENTED_EDGE('',*,*,#322,.T.);
#140=ORIENTED_EDGE('',*,*,#323,.F.);
#141=ORIENTED_EDGE('',*,*,#324,.F.);
#142=ORIENTED_EDGE('',*,*,#249,.F.);
#143=ORIENTED_EDGE('',*,*,#324,.T.);
#144=ORIENTED_EDGE('',*,*,#325,.T.);
#145=ORIENTED_EDGE('',*,*,#326,.F.);
#146=ORIENTED_EDGE('',*,*,#250,.F.);
#147=ORIENTED_EDGE('',*,*,#326,.T.);
#148=ORIENTED_EDGE('',*,*,#327,.F.);
#149=ORIENTED_EDGE('',*,*,#328,.F.);
#150=ORIENTED_EDGE('',*,*,#251,.F.);
#151=ORIENTED_EDGE('',*,*,#328,.T.);
#152=ORIENTED_EDGE('',*,*,#329,.F.);
#153=ORIENTED_EDGE('',*,*,#330,.F.);
#154=ORIENTED_EDGE('',*,*,#252,.F.);
#155=ORIENTED_EDGE('',*,*,#330,.T.);
#156=ORIENTED_EDGE('',*,*,#331,.F.);
#157=ORIENTED_EDGE('',*,*,#332,.F.);
#158=ORIENTED_EDGE('',*,*,#253,.F.);
#159=ORIENTED_EDGE('',*,*,#332,.T.);
#160=ORIENTED_EDGE('',*,*,#333,.F.);
#161=ORIENTED_EDGE('',*,*,#334,.F.);
#162=ORIENTED_EDGE('',*,*,#254,.F.);
#163=ORIENTED_EDGE('',*,*,#334,.T.);
#164=ORIENTED_EDGE('',*,*,#335,.F.);
#165=ORIENTED_EDGE('',*,*,#336,.F.);
#166=ORIENTED_EDGE('',*,*,#255,.F.);
#167=ORIENTED_EDGE('',*,*,#336,.T.);
#168=ORIENTED_EDGE('',*,*,#337,.F.);
#169=ORIENTED_EDGE('',*,*,#338,.F.);
#170=ORIENTED_EDGE('',*,*,#256,.F.);
#171=ORIENTED_EDGE('',*,*,#338,.T.);
#172=ORIENTED_EDGE('',*,*,#339,.F.);
#173=ORIENTED_EDGE('',*,*,#340,.F.);
#174=ORIENTED_EDGE('',*,*,#257,.F.);
#175=ORIENTED_EDGE('',*,*,#340,.T.);
#176=ORIENTED_EDGE('',*,*,#341,.F.);
#177=ORIENTED_EDGE('',*,*,#342,.F.);
#178=ORIENTED_EDGE('',*,*,#258,.F.);
#179=ORIENTED_EDGE('',*,*,#342,.T.);
#180=ORIENTED_EDGE('',*,*,#343,.F.);
#181=ORIENTED_EDGE('',*,*,#344,.F.);
#182=ORIENTED_EDGE('',*,*,#259,.F.);
#183=ORIENTED_EDGE('',*,*,#344,.T.);
#184=ORIENTED_EDGE('',*,*,#345,.F.);
#185=ORIENTED_EDGE('',*,*,#346,.F.);
#186=ORIENTED_EDGE('',*,*,#260,.F.);
#187=ORIENTED_EDGE('',*,*,#346,.T.);
#188=ORIENTED_EDGE('',*,*,#347,.F.);
#189=ORIENTED_EDGE('',*,*,#348,.F.);
#190=ORIENTED_EDGE('',*,*,#261,.F.);
#191=ORIENTED_EDGE('',*,*,#348,.T.);
#192=ORIENTED_EDGE('',*,*,#349,.F.);
#193=ORIENTED_EDGE('',*,*,#350,.F.);
#194=ORIENTED_EDGE('',*,*,#262,.F.);
#195=ORIENTED_EDGE('',*,*,#350,.T.);
#196=ORIENTED_EDGE('',*,*,#351,.F.);
#197=ORIENTED_EDGE('',*,*,#352,.F.);
#198=ORIENTED_EDGE('',*,*,#263,.F.);
#199=ORIENTED_EDGE('',*,*,#352,.T.);
#200=ORIENTED_EDGE('',*,*,#353,.F.);
#201=ORIENTED_EDGE('',*,*,#320,.F.);
#202=ORIENTED_EDGE('',*,*,#242,.F.);
#203=ORIENTED_EDGE('',*,*,#319,.T.);
#204=ORIENTED_EDGE('',*,*,#244,.T.);
#205=ORIENTED_EDGE('',*,*,#285,.F.);
#206=ORIENTED_EDGE('',*,*,#287,.F.);
#207=ORIENTED_EDGE('',*,*,#289,.F.);
#208=ORIENTED_EDGE('',*,*,#291,.F.);
#209=ORIENTED_EDGE('',*,*,#293,.F.);
#210=ORIENTED_EDGE('',*,*,#295,.F.);
#211=ORIENTED_EDGE('',*,*,#297,.F.);
#212=ORIENTED_EDGE('',*,*,#299,.F.);
#213=ORIENTED_EDGE('',*,*,#301,.F.);
#214=ORIENTED_EDGE('',*,*,#303,.F.);
#215=ORIENTED_EDGE('',*,*,#305,.F.);
#216=ORIENTED_EDGE('',*,*,#307,.F.);
#217=ORIENTED_EDGE('',*,*,#309,.F.);
#218=ORIENTED_EDGE('',*,*,#311,.F.);
#219=ORIENTED_EDGE('',*,*,#313,.F.);
#220=ORIENTED_EDGE('',*,*,#315,.F.);
#221=ORIENTED_EDGE('',*,*,#317,.F.);
#222=ORIENTED_EDGE('',*,*,#318,.F.);
#223=ORIENTED_EDGE('',*,*,#351,.T.);
#224=ORIENTED_EDGE('',*,*,#349,.T.);
#225=ORIENTED_EDGE('',*,*,#347,.T.);
#226=ORIENTED_EDGE('',*,*,#345,.T.);
#227=ORIENTED_EDGE('',*,*,#343,.T.);
#228=ORIENTED_EDGE('',*,*,#341,.T.);
#229=ORIENTED_EDGE('',*,*,#339,.T.);
#230=ORIENTED_EDGE('',*,*,#337,.T.);
#231=ORIENTED_EDGE('',*,*,#335,.T.);
#232=ORIENTED_EDGE('',*,*,#333,.T.);
#233=ORIENTED_EDGE('',*,*,#331,.T.);
#234=ORIENTED_EDGE('',*,*,#329,.T.);
#235=ORIENTED_EDGE('',*,*,#327,.T.);
#236=ORIENTED_EDGE('',*,*,#325,.F.);
#237=ORIENTED_EDGE('',*,*,#323,.T.);
#238=ORIENTED_EDGE('',*,*,#321,.F.);
#239=ORIENTED_EDGE('',*,*,#353,.T.);
#240=EDGE_CURVE('',#354,#355,#430,.T.);
#241=EDGE_CURVE('',#354,#356,#431,.T.);
#242=EDGE_CURVE('',#356,#357,#432,.T.);
#243=EDGE_CURVE('',#355,#357,#433,.T.);
#244=EDGE_CURVE('',#358,#359,#434,.T.);
#245=EDGE_CURVE('',#358,#360,#435,.T.);
#246=EDGE_CURVE('',#360,#361,#436,.T.);
#247=EDGE_CURVE('',#359,#361,#437,.F.);
#248=EDGE_CURVE('',#362,#363,#438,.T.);
#249=EDGE_CURVE('',#363,#364,#439,.T.);
#250=EDGE_CURVE('',#364,#365,#440,.T.);
#251=EDGE_CURVE('',#365,#366,#441,.T.);
#252=EDGE_CURVE('',#366,#367,#442,.T.);
#253=EDGE_CURVE('',#367,#368,#443,.T.);
#254=EDGE_CURVE('',#368,#369,#444,.T.);
#255=EDGE_CURVE('',#369,#370,#445,.T.);
#256=EDGE_CURVE('',#370,#371,#446,.T.);
#257=EDGE_CURVE('',#371,#372,#447,.T.);
#258=EDGE_CURVE('',#372,#373,#448,.T.);
#259=EDGE_CURVE('',#373,#374,#449,.T.);
#260=EDGE_CURVE('',#374,#375,#450,.T.);
#261=EDGE_CURVE('',#375,#376,#451,.T.);
#262=EDGE_CURVE('',#376,#377,#452,.T.);
#263=EDGE_CURVE('',#377,#378,#453,.T.);
#264=EDGE_CURVE('',#378,#354,#454,.T.);
#265=EDGE_CURVE('',#379,#355,#455,.T.);
#266=EDGE_CURVE('',#380,#379,#456,.T.);
#267=EDGE_CURVE('',#381,#380,#457,.T.);
#268=EDGE_CURVE('',#382,#381,#458,.T.);
#269=EDGE_CURVE('',#383,#382,#459,.T.);
#270=EDGE_CURVE('',#384,#383,#460,.T.);
#271=EDGE_CURVE('',#385,#384,#461,.T.);
#272=EDGE_CURVE('',#386,#385,#462,.T.);
#273=EDGE_CURVE('',#387,#386,#463,.T.);
#274=EDGE_CURVE('',#388,#387,#464,.T.);
#275=EDGE_CURVE('',#389,#388,#465,.T.);
#276=EDGE_CURVE('',#390,#389,#466,.T.);
#277=EDGE_CURVE('',#391,#390,#467,.T.);
#278=EDGE_CURVE('',#392,#391,#468,.T.);
#279=EDGE_CURVE('',#393,#392,#469,.T.);
#280=EDGE_CURVE('',#394,#393,#470,.T.);
#281=EDGE_CURVE('',#395,#394,#471,.T.);
#282=EDGE_CURVE('',#361,#395,#472,.T.);
#283=EDGE_CURVE('',#360,#362,#473,.T.);
#284=EDGE_CURVE('',#395,#396,#474,.T.);
#285=EDGE_CURVE('',#396,#359,#475,.F.);
#286=EDGE_CURVE('',#394,#397,#476,.T.);
#287=EDGE_CURVE('',#397,#396,#477,.F.);
#288=EDGE_CURVE('',#393,#398,#478,.T.);
#289=EDGE_CURVE('',#398,#397,#479,.F.);
#290=EDGE_CURVE('',#392,#399,#480,.T.);
#291=EDGE_CURVE('',#399,#398,#481,.F.);
#292=EDGE_CURVE('',#391,#400,#482,.T.);
#293=EDGE_CURVE('',#400,#399,#483,.F.);
#294=EDGE_CURVE('',#390,#401,#484,.T.);
#295=EDGE_CURVE('',#401,#400,#485,.F.);
#296=EDGE_CURVE('',#389,#402,#486,.T.);
#297=EDGE_CURVE('',#402,#401,#487,.F.);
#298=EDGE_CURVE('',#388,#403,#488,.T.);
#299=EDGE_CURVE('',#403,#402,#489,.F.);
#300=EDGE_CURVE('',#387,#404,#490,.T.);
#301=EDGE_CURVE('',#404,#403,#491,.F.);
#302=EDGE_CURVE('',#386,#405,#492,.T.);
#303=EDGE_CURVE('',#405,#404,#493,.F.);
#304=EDGE_CURVE('',#385,#406,#494,.T.);
#305=EDGE_CURVE('',#406,#405,#495,.F.);
#306=EDGE_CURVE('',#384,#407,#496,.T.);
#307=EDGE_CURVE('',#407,#406,#497,.F.);
#308=EDGE_CURVE('',#383,#408,#498,.T.);
#309=EDGE_CURVE('',#408,#407,#499,.F.);
#310=EDGE_CURVE('',#382,#409,#500,.T.);
#311=EDGE_CURVE('',#409,#408,#501,.F.);
#312=EDGE_CURVE('',#381,#410,#502,.T.);
#313=EDGE_CURVE('',#410,#409,#503,.F.);
#314=EDGE_CURVE('',#380,#411,#504,.T.);
#315=EDGE_CURVE('',#411,#410,#505,.F.);
#316=EDGE_CURVE('',#379,#412,#506,.T.);
#317=EDGE_CURVE('',#412,#411,#507,.F.);
#318=EDGE_CURVE('',#357,#412,#508,.F.);
#319=EDGE_CURVE('',#356,#358,#509,.T.);
#320=EDGE_CURVE('',#378,#413,#510,.T.);
#321=EDGE_CURVE('',#413,#414,#511,.T.);
#322=EDGE_CURVE('',#362,#414,#512,.T.);
#323=EDGE_CURVE('',#415,#414,#513,.T.);
#324=EDGE_CURVE('',#363,#415,#514,.T.);
#325=EDGE_CURVE('',#415,#416,#515,.T.);
#326=EDGE_CURVE('',#364,#416,#516,.T.);
#327=EDGE_CURVE('',#417,#416,#517,.T.);
#328=EDGE_CURVE('',#365,#417,#518,.T.);
#329=EDGE_CURVE('',#418,#417,#519,.T.);
#330=EDGE_CURVE('',#366,#418,#520,.T.);
#331=EDGE_CURVE('',#419,#418,#521,.T.);
#332=EDGE_CURVE('',#367,#419,#522,.T.);
#333=EDGE_CURVE('',#420,#419,#523,.T.);
#334=EDGE_CURVE('',#368,#420,#524,.T.);
#335=EDGE_CURVE('',#421,#420,#525,.T.);
#336=EDGE_CURVE('',#369,#421,#526,.T.);
#337=EDGE_CURVE('',#422,#421,#527,.T.);
#338=EDGE_CURVE('',#370,#422,#528,.T.);
#339=EDGE_CURVE('',#423,#422,#529,.T.);
#340=EDGE_CURVE('',#371,#423,#530,.T.);
#341=EDGE_CURVE('',#424,#423,#531,.T.);
#342=EDGE_CURVE('',#372,#424,#532,.T.);
#343=EDGE_CURVE('',#425,#424,#533,.T.);
#344=EDGE_CURVE('',#373,#425,#534,.T.);
#345=EDGE_CURVE('',#426,#425,#535,.T.);
#346=EDGE_CURVE('',#374,#426,#536,.T.);
#347=EDGE_CURVE('',#427,#426,#537,.T.);
#348=EDGE_CURVE('',#375,#427,#538,.T.);
#349=EDGE_CURVE('',#428,#427,#539,.T.);
#350=EDGE_CURVE('',#376,#428,#540,.T.);
#351=EDGE_CURVE('',#429,#428,#541,.T.);
#352=EDGE_CURVE('',#377,#429,#542,.T.);
#353=EDGE_CURVE('',#413,#429,#543,.T.);
#354=VERTEX_POINT('',#1070);
#355=VERTEX_POINT('',#1071);
#356=VERTEX_POINT('',#1073);
#357=VERTEX_POINT('',#1075);
#358=VERTEX_POINT('',#1079);
#359=VERTEX_POINT('',#1080);
#360=VERTEX_POINT('',#1082);
#361=VERTEX_POINT('',#1084);
#362=VERTEX_POINT('',#1088);
#363=VERTEX_POINT('',#1089);
#364=VERTEX_POINT('',#1091);
#365=VERTEX_POINT('',#1093);
#366=VERTEX_POINT('',#1095);
#367=VERTEX_POINT('',#1097);
#368=VERTEX_POINT('',#1099);
#369=VERTEX_POINT('',#1101);
#370=VERTEX_POINT('',#1103);
#371=VERTEX_POINT('',#1105);
#372=VERTEX_POINT('',#1107);
#373=VERTEX_POINT('',#1109);
#374=VERTEX_POINT('',#1111);
#375=VERTEX_POINT('',#1113);
#376=VERTEX_POINT('',#1115);
#377=VERTEX_POINT('',#1117);
#378=VERTEX_POINT('',#1119);
#379=VERTEX_POINT('',#1122);
#380=VERTEX_POINT('',#1124);
#381=VERTEX_POINT('',#1126);
#382=VERTEX_POINT('',#1128);
#383=VERTEX_POINT('',#1130);
#384=VERTEX_POINT('',#1132);
#385=VERTEX_POINT('',#1134);
#386=VERTEX_POINT('',#1136);
#387=VERTEX_POINT('',#1138);
#388=VERTEX_POINT('',#1140);
#389=VERTEX_POINT('',#1142);
#390=VERTEX_POINT('',#1144);
#391=VERTEX_POINT('',#1146);
#392=VERTEX_POINT('',#1148);
#393=VERTEX_POINT('',#1150);
#394=VERTEX_POINT('',#1152);
#395=VERTEX_POINT('',#1154);
#396=VERTEX_POINT('',#1159);
#397=VERTEX_POINT('',#1163);
#398=VERTEX_POINT('',#1167);
#399=VERTEX_POINT('',#1171);
#400=VERTEX_POINT('',#1175);
#401=VERTEX_POINT('',#1179);
#402=VERTEX_POINT('',#1183);
#403=VERTEX_POINT('',#1187);
#404=VERTEX_POINT('',#1191);
#405=VERTEX_POINT('',#1195);
#406=VERTEX_POINT('',#1199);
#407=VERTEX_POINT('',#1203);
#408=VERTEX_POINT('',#1207);
#409=VERTEX_POINT('',#1211);
#410=VERTEX_POINT('',#1215);
#411=VERTEX_POINT('',#1219);
#412=VERTEX_POINT('',#1223);
#413=VERTEX_POINT('',#1230);
#414=VERTEX_POINT('',#1232);
#415=VERTEX_POINT('',#1236);
#416=VERTEX_POINT('',#1240);
#417=VERTEX_POINT('',#1244);
#418=VERTEX_POINT('',#1248);
#419=VERTEX_POINT('',#1252);
#420=VERTEX_POINT('',#1256);
#421=VERTEX_POINT('',#1260);
#422=VERTEX_POINT('',#1264);
#423=VERTEX_POINT('',#1268);
#424=VERTEX_POINT('',#1272);
#425=VERTEX_POINT('',#1276);
#426=VERTEX_POINT('',#1280);
#427=VERTEX_POINT('',#1284);
#428=VERTEX_POINT('',#1288);
#429=VERTEX_POINT('',#1292);
#430=LINE('',#1069,#544);
#431=LINE('',#1072,#545);
#432=LINE('',#1074,#546);
#433=LINE('',#1076,#547);
#434=LINE('',#1078,#548);
#435=LINE('',#1081,#549);
#436=LINE('',#1083,#550);
#437=LINE('',#1085,#551);
#438=LINE('',#1087,#552);
#439=LINE('',#1090,#553);
#440=LINE('',#1092,#554);
#441=LINE('',#1094,#555);
#442=LINE('',#1096,#556);
#443=LINE('',#1098,#557);
#444=LINE('',#1100,#558);
#445=LINE('',#1102,#559);
#446=LINE('',#1104,#560);
#447=LINE('',#1106,#561);
#448=LINE('',#1108,#562);
#449=LINE('',#1110,#563);
#450=LINE('',#1112,#564);
#451=LINE('',#1114,#565);
#452=LINE('',#1116,#566);
#453=LINE('',#1118,#567);
#454=LINE('',#1120,#568);
#455=LINE('',#1121,#569);
#456=LINE('',#1123,#570);
#457=LINE('',#1125,#571);
#458=LINE('',#1127,#572);
#459=LINE('',#1129,#573);
#460=LINE('',#1131,#574);
#461=LINE('',#1133,#575);
#462=LINE('',#1135,#576);
#463=LINE('',#1137,#577);
#464=LINE('',#1139,#578);
#465=LINE('',#1141,#579);
#466=LINE('',#1143,#580);
#467=LINE('',#1145,#581);
#468=LINE('',#1147,#582);
#469=LINE('',#1149,#583);
#470=LINE('',#1151,#584);
#471=LINE('',#1153,#585);
#472=LINE('',#1155,#586);
#473=LINE('',#1156,#587);
#474=LINE('',#1158,#588);
#475=LINE('',#1160,#589);
#476=LINE('',#1162,#590);
#477=LINE('',#1164,#591);
#478=LINE('',#1166,#592);
#479=LINE('',#1168,#593);
#480=LINE('',#1170,#594);
#481=LINE('',#1172,#595);
#482=LINE('',#1174,#596);
#483=LINE('',#1176,#597);
#484=LINE('',#1178,#598);
#485=LINE('',#1180,#599);
#486=LINE('',#1182,#600);
#487=LINE('',#1184,#601);
#488=LINE('',#1186,#602);
#489=LINE('',#1188,#603);
#490=LINE('',#1190,#604);
#491=LINE('',#1192,#605);
#492=LINE('',#1194,#606);
#493=LINE('',#1196,#607);
#494=LINE('',#1198,#608);
#495=LINE('',#1200,#609);
#496=LINE('',#1202,#610);
#497=LINE('',#1204,#611);
#498=LINE('',#1206,#612);
#499=LINE('',#1208,#613);
#500=LINE('',#1210,#614);
#501=LINE('',#1212,#615);
#502=LINE('',#1214,#616);
#503=LINE('',#1216,#617);
#504=LINE('',#1218,#618);
#505=LINE('',#1220,#619);
#506=LINE('',#1222,#620);
#507=LINE('',#1224,#621);
#508=LINE('',#1226,#622);
#509=LINE('',#1228,#623);
#510=LINE('',#1229,#624);
#511=LINE('',#1231,#625);
#512=LINE('',#1233,#626);
#513=LINE('',#1235,#627);
#514=LINE('',#1237,#628);
#515=LINE('',#1239,#629);
#516=LINE('',#1241,#630);
#517=LINE('',#1243,#631);
#518=LINE('',#1245,#632);
#519=LINE('',#1247,#633);
#520=LINE('',#1249,#634);
#521=LINE('',#1251,#635);
#522=LINE('',#1253,#636);
#523=LINE('',#1255,#637);
#524=LINE('',#1257,#638);
#525=LINE('',#1259,#639);
#526=LINE('',#1261,#640);
#527=LINE('',#1263,#641);
#528=LINE('',#1265,#642);
#529=LINE('',#1267,#643);
#530=LINE('',#1269,#644);
#531=LINE('',#1271,#645);
#532=LINE('',#1273,#646);
#533=LINE('',#1275,#647);
#534=LINE('',#1277,#648);
#535=LINE('',#1279,#649);
#536=LINE('',#1281,#650);
#537=LINE('',#1283,#651);
#538=LINE('',#1285,#652);
#539=LINE('',#1287,#653);
#540=LINE('',#1289,#654);
#541=LINE('',#1291,#655);
#542=LINE('',#1293,#656);
#543=LINE('',#1295,#657);
#544=VECTOR('',#875,1.);
#545=VECTOR('',#876,1.);
#546=VECTOR('',#877,1.);
#547=VECTOR('',#878,1.);
#548=VECTOR('',#881,1.);
#549=VECTOR('',#882,1.);
#550=VECTOR('',#883,1.);
#551=VECTOR('',#884,1.);
#552=VECTOR('',#887,1.);
#553=VECTOR('',#888,1.);
#554=VECTOR('',#889,1.);
#555=VECTOR('',#890,1.);
#556=VECTOR('',#891,1.);
#557=VECTOR('',#892,1.);
#558=VECTOR('',#893,1.);
#559=VECTOR('',#894,1.);
#560=VECTOR('',#895,1.);
#561=VECTOR('',#896,1.);
#562=VECTOR('',#897,1.);
#563=VECTOR('',#898,1.);
#564=VECTOR('',#899,1.);
#565=VECTOR('',#900,1.);
#566=VECTOR('',#901,1.);
#567=VECTOR('',#902,1.);
#568=VECTOR('',#903,1.);
#569=VECTOR('',#904,1.);
#570=VECTOR('',#905,1.);
#571=VECTOR('',#906,1.);
#572=VECTOR('',#907,1.);
#573=VECTOR('',#908,1.);
#574=VECTOR('',#909,1.);
#575=VECTOR('',#910,1.);
#576=VECTOR('',#911,1.);
#577=VECTOR('',#912,1.);
#578=VECTOR('',#913,1.);
#579=VECTOR('',#914,1.);
#580=VECTOR('',#915,1.);
#581=VECTOR('',#916,1.);
#582=VECTOR('',#917,1.);
#583=VECTOR('',#918,1.);
#584=VECTOR('',#919,1.);
#585=VECTOR('',#920,1.);
#586=VECTOR('',#921,1.);
#587=VECTOR('',#922,1.);
#588=VECTOR('',#925,1.);
#589=VECTOR('',#926,1.);
#590=VECTOR('',#929,1.);
#591=VECTOR('',#930,1.);
#592=VECTOR('',#933,1.);
#593=VECTOR('',#934,1.);
#594=VECTOR('',#937,1.);
#595=VECTOR('',#938,1.);
#596=VECTOR('',#941,1.);
#597=VECTOR('',#942,1.);
#598=VECTOR('',#945,1.);
#599=VECTOR('',#946,1.);
#600=VECTOR('',#949,1.);
#601=VECTOR('',#950,1.);
#602=VECTOR('',#953,1.);
#603=VECTOR('',#954,1.);
#604=VECTOR('',#957,1.);
#605=VECTOR('',#958,1.);
#606=VECTOR('',#961,1.);
#607=VECTOR('',#962,1.);
#608=VECTOR('',#965,1.);
#609=VECTOR('',#966,1.);
#610=VECTOR('',#969,1.);
#611=VECTOR('',#970,1.);
#612=VECTOR('',#973,1.);
#613=VECTOR('',#974,1.);
#614=VECTOR('',#977,1.);
#615=VECTOR('',#978,1.);
#616=VECTOR('',#981,1.);
#617=VECTOR('',#982,1.);
#618=VECTOR('',#985,1.);
#619=VECTOR('',#986,1.);
#620=VECTOR('',#989,1.);
#621=VECTOR('',#990,1.);
#622=VECTOR('',#993,1.);
#623=VECTOR('',#996,1.);
#624=VECTOR('',#997,1.);
#625=VECTOR('',#998,1.);
#626=VECTOR('',#999,1.);
#627=VECTOR('',#1002,1.);
#628=VECTOR('',#1003,1.);
#629=VECTOR('',#1006,1.);
#630=VECTOR('',#1007,1.);
#631=VECTOR('',#1010,1.);
#632=VECTOR('',#1011,1.);
#633=VECTOR('',#1014,1.);
#634=VECTOR('',#1015,1.);
#635=VECTOR('',#1018,1.);
#636=VECTOR('',#1019,1.);
#637=VECTOR('',#1022,1.);
#638=VECTOR('',#1023,1.);
#639=VECTOR('',#1026,1.);
#640=VECTOR('',#1027,1.);
#641=VECTOR('',#1030,1.);
#642=VECTOR('',#1031,1.);
#643=VECTOR('',#1034,1.);
#644=VECTOR('',#1035,1.);
#645=VECTOR('',#1038,1.);
#646=VECTOR('',#1039,1.);
#647=VECTOR('',#1042,1.);
#648=VECTOR('',#1043,1.);
#649=VECTOR('',#1046,1.);
#650=VECTOR('',#1047,1.);
#651=VECTOR('',#1050,1.);
#652=VECTOR('',#1051,1.);
#653=VECTOR('',#1054,1.);
#654=VECTOR('',#1055,1.);
#655=VECTOR('',#1058,1.);
#656=VECTOR('',#1059,1.);
#657=VECTOR('',#1062,1.);
#658=EDGE_LOOP('',(#12,#13,#14,#15));
#659=EDGE_LOOP('',(#16,#17,#18,#19));
#660=EDGE_LOOP('',(#20,#21,#22,#23,#24,#25,#26,#27,#28,#29,#30,#31,#32,
#33,#34,#35,#36,#37,#38,#39,#40,#41,#42,#43,#44,#45,#46,#47,#48,#49,#50,
#51,#52,#53,#54,#55,#56,#57));
#661=EDGE_LOOP('',(#58,#59,#60,#61));
#662=EDGE_LOOP('',(#62,#63,#64,#65));
#663=EDGE_LOOP('',(#66,#67,#68,#69));
#664=EDGE_LOOP('',(#70,#71,#72,#73));
#665=EDGE_LOOP('',(#74,#75,#76,#77));
#666=EDGE_LOOP('',(#78,#79,#80,#81));
#667=EDGE_LOOP('',(#82,#83,#84,#85));
#668=EDGE_LOOP('',(#86,#87,#88,#89));
#669=EDGE_LOOP('',(#90,#91,#92,#93));
#670=EDGE_LOOP('',(#94,#95,#96,#97));
#671=EDGE_LOOP('',(#98,#99,#100,#101));
#672=EDGE_LOOP('',(#102,#103,#104,#105));
#673=EDGE_LOOP('',(#106,#107,#108,#109));
#674=EDGE_LOOP('',(#110,#111,#112,#113));
#675=EDGE_LOOP('',(#114,#115,#116,#117));
#676=EDGE_LOOP('',(#118,#119,#120,#121));
#677=EDGE_LOOP('',(#122,#123,#124,#125));
#678=EDGE_LOOP('',(#126,#127,#128,#129));
#679=EDGE_LOOP('',(#130,#131,#132,#133,#134,#135,#136,#137));
#680=EDGE_LOOP('',(#138,#139,#140,#141));
#681=EDGE_LOOP('',(#142,#143,#144,#145));
#682=EDGE_LOOP('',(#146,#147,#148,#149));
#683=EDGE_LOOP('',(#150,#151,#152,#153));
#684=EDGE_LOOP('',(#154,#155,#156,#157));
#685=EDGE_LOOP('',(#158,#159,#160,#161));
#686=EDGE_LOOP('',(#162,#163,#164,#165));
#687=EDGE_LOOP('',(#166,#167,#168,#169));
#688=EDGE_LOOP('',(#170,#171,#172,#173));
#689=EDGE_LOOP('',(#174,#175,#176,#177));
#690=EDGE_LOOP('',(#178,#179,#180,#181));
#691=EDGE_LOOP('',(#182,#183,#184,#185));
#692=EDGE_LOOP('',(#186,#187,#188,#189));
#693=EDGE_LOOP('',(#190,#191,#192,#193));
#694=EDGE_LOOP('',(#194,#195,#196,#197));
#695=EDGE_LOOP('',(#198,#199,#200,#201));
#696=EDGE_LOOP('',(#202,#203,#204,#205,#206,#207,#208,#209,#210,#211,#212,
#213,#214,#215,#216,#217,#218,#219,#220,#221,#222));
#697=EDGE_LOOP('',(#223,#224,#225,#226,#227,#228,#229,#230,#231,#232,#233,
#234,#235,#236,#237,#238,#239));
#698=FACE_BOUND('',#658,.T.);
#699=FACE_BOUND('',#659,.T.);
#700=FACE_BOUND('',#660,.T.);
#701=FACE_BOUND('',#661,.T.);
#702=FACE_BOUND('',#662,.T.);
#703=FACE_BOUND('',#663,.T.);
#704=FACE_BOUND('',#664,.T.);
#705=FACE_BOUND('',#665,.T.);
#706=FACE_BOUND('',#666,.T.);
#707=FACE_BOUND('',#667,.T.);
#708=FACE_BOUND('',#668,.T.);
#709=FACE_BOUND('',#669,.T.);
#710=FACE_BOUND('',#670,.T.);
#711=FACE_BOUND('',#671,.T.);
#712=FACE_BOUND('',#672,.T.);
#713=FACE_BOUND('',#673,.T.);
#714=FACE_BOUND('',#674,.T.);
#715=FACE_BOUND('',#675,.T.);
#716=FACE_BOUND('',#676,.T.);
#717=FACE_BOUND('',#677,.T.);
#718=FACE_BOUND('',#678,.T.);
#719=FACE_BOUND('',#679,.T.);
#720=FACE_BOUND('',#680,.T.);
#721=FACE_BOUND('',#681,.T.);
#722=FACE_BOUND('',#682,.T.);
#723=FACE_BOUND('',#683,.T.);
#724=FACE_BOUND('',#684,.T.);
#725=FACE_BOUND('',#685,.T.);
#726=FACE_BOUND('',#686,.T.);
#727=FACE_BOUND('',#687,.T.);
#728=FACE_BOUND('',#688,.T.);
#729=FACE_BOUND('',#689,.T.);
#730=FACE_BOUND('',#690,.T.);
#731=FACE_BOUND('',#691,.T.);
#732=FACE_BOUND('',#692,.T.);
#733=FACE_BOUND('',#693,.T.);
#734=FACE_BOUND('',#694,.T.);
#735=FACE_BOUND('',#695,.T.);
#736=FACE_BOUND('',#696,.T.);
#737=FACE_BOUND('',#697,.T.);
#738=PLANE('',#831);
#739=PLANE('',#832);
#740=PLANE('',#833);
#741=PLANE('',#834);
#742=PLANE('',#835);
#743=PLANE('',#836);
#744=PLANE('',#837);
#745=PLANE('',#838);
#746=PLANE('',#839);
#747=PLANE('',#840);
#748=PLANE('',#841);
#749=PLANE('',#842);
#750=PLANE('',#843);
#751=PLANE('',#844);
#752=PLANE('',#845);
#753=PLANE('',#846);
#754=PLANE('',#847);
#755=PLANE('',#848);
#756=PLANE('',#849);
#757=PLANE('',#850);
#758=PLANE('',#851);
#759=PLANE('',#852);
#760=PLANE('',#853);
#761=PLANE('',#854);
#762=PLANE('',#855);
#763=PLANE('',#856);
#764=PLANE('',#857);
#765=PLANE('',#858);
#766=PLANE('',#859);
#767=PLANE('',#860);
#768=PLANE('',#861);
#769=PLANE('',#862);
#770=PLANE('',#863);
#771=PLANE('',#864);
#772=PLANE('',#865);
#773=PLANE('',#866);
#774=PLANE('',#867);
#775=PLANE('',#868);
#776=PLANE('',#869);
#777=PLANE('',#870);
#778=ADVANCED_FACE('',(#698),#738,.T.);
#779=ADVANCED_FACE('',(#699),#739,.T.);
#780=ADVANCED_FACE('',(#700),#740,.T.);
#781=ADVANCED_FACE('',(#701),#741,.T.);
#782=ADVANCED_FACE('',(#702),#742,.T.);
#783=ADVANCED_FACE('',(#703),#743,.T.);
#784=ADVANCED_FACE('',(#704),#744,.T.);
#785=ADVANCED_FACE('',(#705),#745,.T.);
#786=ADVANCED_FACE('',(#706),#746,.T.);
#787=ADVANCED_FACE('',(#707),#747,.T.);
#788=ADVANCED_FACE('',(#708),#748,.T.);
#789=ADVANCED_FACE('',(#709),#749,.T.);
#790=ADVANCED_FACE('',(#710),#750,.T.);
#791=ADVANCED_FACE('',(#711),#751,.T.);
#792=ADVANCED_FACE('',(#712),#752,.T.);
#793=ADVANCED_FACE('',(#713),#753,.T.);
#794=ADVANCED_FACE('',(#714),#754,.T.);
#795=ADVANCED_FACE('',(#715),#755,.T.);
#796=ADVANCED_FACE('',(#716),#756,.T.);
#797=ADVANCED_FACE('',(#717),#757,.T.);
#798=ADVANCED_FACE('',(#718),#758,.T.);
#799=ADVANCED_FACE('',(#719),#759,.F.);
#800=ADVANCED_FACE('',(#720),#760,.F.);
#801=ADVANCED_FACE('',(#721),#761,.F.);
#802=ADVANCED_FACE('',(#722),#762,.F.);
#803=ADVANCED_FACE('',(#723),#763,.F.);
#804=ADVANCED_FACE('',(#724),#764,.F.);
#805=ADVANCED_FACE('',(#725),#765,.F.);
#806=ADVANCED_FACE('',(#726),#766,.F.);
#807=ADVANCED_FACE('',(#727),#767,.F.);
#808=ADVANCED_FACE('',(#728),#768,.F.);
#809=ADVANCED_FACE('',(#729),#769,.F.);
#810=ADVANCED_FACE('',(#730),#770,.F.);
#811=ADVANCED_FACE('',(#731),#771,.F.);
#812=ADVANCED_FACE('',(#732),#772,.F.);
#813=ADVANCED_FACE('',(#733),#773,.F.);
#814=ADVANCED_FACE('',(#734),#774,.F.);
#815=ADVANCED_FACE('',(#735),#775,.F.);
#816=ADVANCED_FACE('',(#736),#776,.T.);
#817=ADVANCED_FACE('',(#737),#777,.F.);
#818=CLOSED_SHELL('',(#778,#779,#780,#781,#782,#783,#784,#785,#786,#787,
#788,#789,#790,#791,#792,#793,#794,#795,#796,#797,#798,#799,#800,#801,#802,
#803,#804,#805,#806,#807,#808,#809,#810,#811,#812,#813,#814,#815,#816,#817));
#819=STYLED_ITEM('',(#820),#827);
#820=PRESENTATION_STYLE_ASSIGNMENT((#821));
#821=SURFACE_STYLE_USAGE(.BOTH.,#822);
#822=SURFACE_SIDE_STYLE('',(#823));
#823=SURFACE_STYLE_FILL_AREA(#824);
#824=FILL_AREA_STYLE('',(#825));
#825=FILL_AREA_STYLE_COLOUR('',#826);
#826=COLOUR_RGB('',0.231372549019608,0.380392156862745,0.705882352941177);
#827=MANIFOLD_SOLID_BREP('Part 2',#818);
#828=SHAPE_DEFINITION_REPRESENTATION(#1304,#829);
#829=SHAPE_REPRESENTATION('Part 2',(#830),#1299);
#830=AXIS2_PLACEMENT_3D('',#1067,#871,#872);
#831=AXIS2_PLACEMENT_3D('',#1068,#873,#874);
#832=AXIS2_PLACEMENT_3D('',#1077,#879,#880);
#833=AXIS2_PLACEMENT_3D('',#1086,#885,#886);
#834=AXIS2_PLACEMENT_3D('',#1157,#923,#924);
#835=AXIS2_PLACEMENT_3D('',#1161,#927,#928);
#836=AXIS2_PLACEMENT_3D('',#1165,#931,#932);
#837=AXIS2_PLACEMENT_3D('',#1169,#935,#936);
#838=AXIS2_PLACEMENT_3D('',#1173,#939,#940);
#839=AXIS2_PLACEMENT_3D('',#1177,#943,#944);
#840=AXIS2_PLACEMENT_3D('',#1181,#947,#948);
#841=AXIS2_PLACEMENT_3D('',#1185,#951,#952);
#842=AXIS2_PLACEMENT_3D('',#1189,#955,#956);
#843=AXIS2_PLACEMENT_3D('',#1193,#959,#960);
#844=AXIS2_PLACEMENT_3D('',#1197,#963,#964);
#845=AXIS2_PLACEMENT_3D('',#1201,#967,#968);
#846=AXIS2_PLACEMENT_3D('',#1205,#971,#972);
#847=AXIS2_PLACEMENT_3D('',#1209,#975,#976);
#848=AXIS2_PLACEMENT_3D('',#1213,#979,#980);
#849=AXIS2_PLACEMENT_3D('',#1217,#983,#984);
#850=AXIS2_PLACEMENT_3D('',#1221,#987,#988);
#851=AXIS2_PLACEMENT_3D('',#1225,#991,#992);
#852=AXIS2_PLACEMENT_3D('',#1227,#994,#995);
#853=AXIS2_PLACEMENT_3D('',#1234,#1000,#1001);
#854=AXIS2_PLACEMENT_3D('',#1238,#1004,#1005);
#855=AXIS2_PLACEMENT_3D('',#1242,#1008,#1009);
#856=AXIS2_PLACEMENT_3D('',#1246,#1012,#1013);
#857=AXIS2_PLACEMENT_3D('',#1250,#1016,#1017);
#858=AXIS2_PLACEMENT_3D('',#1254,#1020,#1021);
#859=AXIS2_PLACEMENT_3D('',#1258,#1024,#1025);
#860=AXIS2_PLACEMENT_3D('',#1262,#1028,#1029);
#861=AXIS2_PLACEMENT_3D('',#1266,#1032,#1033);
#862=AXIS2_PLACEMENT_3D('',#1270,#1036,#1037);
#863=AXIS2_PLACEMENT_3D('',#1274,#1040,#1041);
#864=AXIS2_PLACEMENT_3D('',#1278,#1044,#1045);
#865=AXIS2_PLACEMENT_3D('',#1282,#1048,#1049);
#866=AXIS2_PLACEMENT_3D('',#1286,#1052,#1053);
#867=AXIS2_PLACEMENT_3D('',#1290,#1056,#1057);
#868=AXIS2_PLACEMENT_3D('',#1294,#1060,#1061);
#869=AXIS2_PLACEMENT_3D('',#1296,#1063,#1064);
#870=AXIS2_PLACEMENT_3D('',#1297,#1065,#1066);
#871=DIRECTION('',(0.,0.,1.));
#872=DIRECTION('',(1.,0.,0.));
#873=DIRECTION('',(-1.02633514499799E-7,1.,2.47817639425257E-16));
#874=DIRECTION('',(0.,2.47817639425258E-16,-1.));
#875=DIRECTION('',(-1.,-1.02633514499799E-7,0.));
#876=DIRECTION('',(0.,2.47817639425258E-16,-1.));
#877=DIRECTION('',(-1.,-1.02633514499799E-7,0.));
#878=DIRECTION('',(0.,0.,-1.));
#879=DIRECTION('',(1.02633516722156E-7,-1.,0.));
#880=DIRECTION('',(0.,0.,1.));
#881=DIRECTION('',(-1.,-1.02633516722156E-7,0.));
#882=DIRECTION('',(0.,0.,1.));
#883=DIRECTION('',(-1.,-1.02633516722156E-7,0.));
#884=DIRECTION('',(0.,0.,-1.));
#885=DIRECTION('',(1.01737582610582E-22,-9.91270557701022E-16,1.));
#886=DIRECTION('',(-1.,-1.02633515966149E-7,0.));
#887=DIRECTION('',(-1.,-1.02633515966149E-7,0.));
#888=DIRECTION('',(0.,1.,0.));
#889=DIRECTION('',(-0.999996555296691,0.00262476565677731,0.));
#890=DIRECTION('',(-0.00263089727481053,0.999996539183776,0.));
#891=DIRECTION('',(-0.999996539183776,-0.00263089727481022,0.));
#892=DIRECTION('',(0.0026309581602966,-0.99999653902359,0.));
#893=DIRECTION('',(-0.99999653902359,-0.00263095816029709,0.));
#894=DIRECTION('',(-0.00246776681270477,-0.999996955058843,0.));
#895=DIRECTION('',(-0.996298945758981,-0.0859558647187246,0.));
#896=DIRECTION('',(0.,-1.,0.));
#897=DIRECTION('',(-0.984807452639242,-0.173649881158057,0.));
#898=DIRECTION('',(0.173649881158057,-0.984807452639242,0.));
#899=DIRECTION('',(0.984758536713326,0.173927066238206,0.));
#900=DIRECTION('',(0.937346957678227,-0.348397303277984,0.));
#901=DIRECTION('',(0.343956143949537,0.938985713969795,0.));
#902=DIRECTION('',(-0.939160264130875,0.34347925450837,0.));
#903=DIRECTION('',(-1.02633513749841E-7,1.,0.));
#904=DIRECTION('',(-1.02633514499799E-7,1.,0.));
#905=DIRECTION('',(-0.939160264130875,0.34347925450837,0.));
#906=DIRECTION('',(0.343956143949537,0.938985713969795,0.));
#907=DIRECTION('',(0.937346957678227,-0.348397303277984,0.));
#908=DIRECTION('',(0.984758536713326,0.173927066238206,0.));
#909=DIRECTION('',(0.173649881158058,-0.984807452639242,0.));
#910=DIRECTION('',(-0.984807452639242,-0.173649881158056,0.));
#911=DIRECTION('',(0.,-1.,0.));
#912=DIRECTION('',(-0.996298945758981,-0.0859558647187241,0.));
#913=DIRECTION('',(-0.00246776681270539,-0.999996955058843,0.));
#914=DIRECTION('',(-0.99999653902359,-0.00263095816029709,0.));
#915=DIRECTION('',(0.00263095816029771,-0.99999653902359,0.));
#916=DIRECTION('',(-0.999996539183776,-0.00263089727481022,0.));
#917=DIRECTION('',(-0.00263089727481016,0.999996539183776,0.));
#918=DIRECTION('',(-0.999996555296691,0.00262476565677768,0.));
#919=DIRECTION('',(0.,1.,0.));
#920=DIRECTION('',(-1.,-1.02633516406343E-7,0.));
#921=DIRECTION('',(-1.02633516722156E-7,1.,0.));
#922=DIRECTION('',(-1.0263351743014E-7,1.,0.));
#923=DIRECTION('',(-1.,-1.02633516722156E-7,0.));
#924=DIRECTION('',(-1.02633516722156E-7,1.,0.));
#925=DIRECTION('',(-1.01737583359989E-22,9.91270557701022E-16,-1.));
#926=DIRECTION('',(-1.02633516722156E-7,1.,0.));
#927=DIRECTION('',(1.02633516406343E-7,-1.,-9.91270557701027E-16));
#928=DIRECTION('',(-1.,-1.02633516406343E-7,0.));
#929=DIRECTION('',(0.,9.91270557701032E-16,-1.));
#930=DIRECTION('',(-1.,-1.02633516406343E-7,0.));
#931=DIRECTION('',(-1.,0.,0.));
#932=DIRECTION('',(0.,1.,0.));
#933=DIRECTION('',(0.,0.,-1.));
#934=DIRECTION('',(0.,1.,0.));
#935=DIRECTION('',(-0.00262476565677768,-0.999996555296691,0.));
#936=DIRECTION('',(-0.999996555296691,0.00262476565677768,0.));
#937=DIRECTION('',(0.,0.,-1.));
#938=DIRECTION('',(-0.999996555296691,0.00262476565677768,0.));
#939=DIRECTION('',(-0.999996539183776,-0.00263089727481016,0.));
#940=DIRECTION('',(-0.00263089727481016,0.999996539183776,0.));
#941=DIRECTION('',(0.,0.,-1.));
#942=DIRECTION('',(-0.00263089727481016,0.999996539183776,0.));
#943=DIRECTION('',(0.00263089727481022,-0.999996539183776,0.));
#944=DIRECTION('',(-0.999996539183776,-0.00263089727481022,0.));
#945=DIRECTION('',(-2.47815924085916E-16,-6.51980495716888E-19,-1.));
#946=DIRECTION('',(-0.999996539183776,-0.00263089727481022,0.));
#947=DIRECTION('',(0.99999653902359,0.00263095816029771,-2.47816781734254E-16));
#948=DIRECTION('',(0.00263095816029771,-0.99999653902359,0.));
#949=DIRECTION('',(-2.47815924046219E-16,-6.51995584162298E-19,-1.));
#950=DIRECTION('',(0.00263095816029771,-0.99999653902359,0.));
#951=DIRECTION('',(0.00263095816029709,-0.99999653902359,0.));
#952=DIRECTION('',(-0.99999653902359,-0.00263095816029709,0.));
#953=DIRECTION('',(0.,0.,-1.));
#954=DIRECTION('',(-0.99999653902359,-0.00263095816029709,0.));
#955=DIRECTION('',(0.999996955058843,-0.00246776681270539,0.));
#956=DIRECTION('',(-0.00246776681270539,-0.999996955058843,0.));
#957=DIRECTION('',(0.,0.,-1.));
#958=DIRECTION('',(-0.00246776681270539,-0.999996955058843,0.));
#959=DIRECTION('',(0.0859558647187241,-0.996298945758981,0.));
#960=DIRECTION('',(-0.996298945758981,-0.0859558647187241,0.));
#961=DIRECTION('',(0.,0.,-1.));
#962=DIRECTION('',(-0.996298945758981,-0.0859558647187241,0.));
#963=DIRECTION('',(1.,0.,0.));
#964=DIRECTION('',(0.,-1.,0.));
#965=DIRECTION('',(0.,0.,-1.));
#966=DIRECTION('',(0.,-1.,0.));
#967=DIRECTION('',(0.173649881158056,-0.984807452639242,0.));
#968=DIRECTION('',(-0.984807452639242,-0.173649881158056,0.));
#969=DIRECTION('',(0.,0.,-1.));
#970=DIRECTION('',(-0.984807452639242,-0.173649881158056,0.));
#971=DIRECTION('',(0.984807452639242,0.173649881158058,0.));
#972=DIRECTION('',(0.173649881158058,-0.984807452639242,0.));
#973=DIRECTION('',(1.69510446991939E-16,-9.613317923663E-16,-1.));
#974=DIRECTION('',(0.173649881158058,-0.984807452639242,0.));
#975=DIRECTION('',(-0.173927066238206,0.984758536713326,-9.76162143888671E-16));
#976=DIRECTION('',(0.984758536713326,0.173927066238206,0.));
#977=DIRECTION('',(3.15181356031479E-15,-4.34600404117051E-16,-1.));
#978=DIRECTION('',(0.984758536713326,0.173927066238206,0.));
#979=DIRECTION('',(0.348397303277984,0.937346957678227,6.90711978243805E-16));
#980=DIRECTION('',(0.937346957678227,-0.348397303277984,0.));
#981=DIRECTION('',(2.37577290600945E-16,6.48575947143618E-16,-1.));
#982=DIRECTION('',(0.937346957678227,-0.348397303277984,0.));
#983=DIRECTION('',(-0.938985713969795,0.343956143949537,0.));
#984=DIRECTION('',(0.343956143949537,0.938985713969795,0.));
#985=DIRECTION('',(-1.60105056521259E-16,-4.37080027359085E-16,-1.));
#986=DIRECTION('',(0.343956143949537,0.938985713969795,0.));
#987=DIRECTION('',(-0.34347925450837,-0.939160264130875,4.65480959397831E-16));
#988=DIRECTION('',(-0.939160264130875,0.34347925450837,0.));
#989=DIRECTION('',(5.08687924879365E-23,-4.95635297454769E-16,-1.));
#990=DIRECTION('',(-0.939160264130875,0.34347925450837,0.));
#991=DIRECTION('',(-1.,-1.02633514499799E-7,0.));
#992=DIRECTION('',(-1.02633514499799E-7,1.,0.));
#993=DIRECTION('',(-1.02633514499799E-7,1.,0.));
#994=DIRECTION('',(-1.,-1.02633516722156E-7,0.));
#995=DIRECTION('',(-1.02633516722156E-7,1.,0.));
#996=DIRECTION('',(-1.02633514499799E-7,1.,0.));
#997=DIRECTION('',(0.,0.,-1.));
#998=DIRECTION('',(-1.02633514499799E-7,1.,0.));
#999=DIRECTION('',(0.,0.,-1.));
#1000=DIRECTION('',(1.02633516406343E-7,-1.,-9.91270557701027E-16));
#1001=DIRECTION('',(-1.,-1.02633516406343E-7,0.));
#1002=DIRECTION('',(1.,1.02633516406343E-7,0.));
#1003=DIRECTION('',(-9.91270557701032E-16,0.,-1.));
#1004=DIRECTION('',(-1.,0.,0.));
#1005=DIRECTION('',(0.,1.,0.));
#1006=DIRECTION('',(0.,1.,0.));
#1007=DIRECTION('',(0.,0.,-1.));
#1008=DIRECTION('',(-0.00262476565677768,-0.999996555296691,0.));
#1009=DIRECTION('',(-0.999996555296691,0.00262476565677768,0.));
#1010=DIRECTION('',(0.999996555296691,-0.00262476565677768,0.));
#1011=DIRECTION('',(-2.47817639425258E-16,9.91270557701032E-16,-1.));
#1012=DIRECTION('',(-0.999996539183776,-0.00263089727481016,0.));
#1013=DIRECTION('',(-0.00263089727481016,0.999996539183776,0.));
#1014=DIRECTION('',(0.00263089727481016,-0.999996539183776,0.));
#1015=DIRECTION('',(0.,0.,-1.));
#1016=DIRECTION('',(0.00263089727481022,-0.999996539183776,0.));
#1017=DIRECTION('',(-0.999996539183776,-0.00263089727481022,0.));
#1018=DIRECTION('',(0.999996539183776,0.00263089727481022,0.));
#1019=DIRECTION('',(-7.43452918275774E-16,0.,-1.));
#1020=DIRECTION('',(0.99999653902359,0.00263095816029771,-2.47816781734254E-16));
#1021=DIRECTION('',(0.00263095816029771,-0.99999653902359,0.));
#1022=DIRECTION('',(-0.00263095816029771,0.99999653902359,0.));
#1023=DIRECTION('',(0.,0.,-1.));
#1024=DIRECTION('',(0.00263095816029709,-0.99999653902359,0.));
#1025=DIRECTION('',(-0.99999653902359,-0.00263095816029709,0.));
#1026=DIRECTION('',(0.99999653902359,0.00263095816029709,0.));
#1027=DIRECTION('',(-9.91270557701032E-16,0.,-1.));
#1028=DIRECTION('',(0.999996955058843,-0.00246776681270539,0.));
#1029=DIRECTION('',(-0.00246776681270539,-0.999996955058843,0.));
#1030=DIRECTION('',(0.00246776681270539,0.999996955058843,0.));
#1031=DIRECTION('',(0.,0.,-1.));
#1032=DIRECTION('',(0.0859558647187241,-0.996298945758981,0.));
#1033=DIRECTION('',(-0.996298945758981,-0.0859558647187241,0.));
#1034=DIRECTION('',(0.996298945758981,0.0859558647187241,0.));
#1035=DIRECTION('',(-9.9127055770103E-16,0.,-1.));
#1036=DIRECTION('',(1.,0.,0.));
#1037=DIRECTION('',(0.,-1.,0.));
#1038=DIRECTION('',(0.,1.,0.));
#1039=DIRECTION('',(0.,0.,-1.));
#1040=DIRECTION('',(0.173649881158056,-0.984807452639242,0.));
#1041=DIRECTION('',(-0.984807452639242,-0.173649881158056,0.));
#1042=DIRECTION('',(0.984807452639242,0.173649881158056,0.));
#1043=DIRECTION('',(0.,0.,-1.));
#1044=DIRECTION('',(0.984807452639242,0.173649881158058,0.));
#1045=DIRECTION('',(0.173649881158058,-0.984807452639242,0.));
#1046=DIRECTION('',(-0.173649881158058,0.984807452639242,0.));
#1047=DIRECTION('',(0.,0.,-1.));
#1048=DIRECTION('',(-0.173927066238206,0.984758536713326,-9.76162143888671E-16));
#1049=DIRECTION('',(0.984758536713326,0.173927066238206,0.));
#1050=DIRECTION('',(-0.984758536713326,-0.173927066238206,0.));
#1051=DIRECTION('',(2.9738116731031E-15,9.91270557701032E-16,-1.));
#1052=DIRECTION('',(0.348397303277984,0.937346957678227,6.90711978243805E-16));
#1053=DIRECTION('',(0.937346957678227,-0.348397303277984,0.));
#1054=DIRECTION('',(-0.937346957678228,0.348397303277984,0.));
#1055=DIRECTION('',(0.,0.,-1.));
#1056=DIRECTION('',(-0.938985713969795,0.343956143949537,0.));
#1057=DIRECTION('',(0.343956143949537,0.938985713969795,0.));
#1058=DIRECTION('',(-0.343956143949537,-0.938985713969795,0.));
#1059=DIRECTION('',(0.,-9.91270557701033E-16,-1.));
#1060=DIRECTION('',(-0.34347925450837,-0.939160264130875,4.65480959397831E-16));
#1061=DIRECTION('',(-0.939160264130875,0.34347925450837,0.));
#1062=DIRECTION('',(0.939160264130875,-0.34347925450837,0.));
#1063=DIRECTION('',(0.,0.,1.));
#1064=DIRECTION('',(1.,0.,0.));
#1065=DIRECTION('',(0.,0.,1.));
#1066=DIRECTION('',(1.,0.,0.));
#1067=CARTESIAN_POINT('',(0.,0.,0.));
#1068=CARTESIAN_POINT('',(0.0809145401341924,-0.00521623689949392,-0.0035));
#1069=CARTESIAN_POINT('',(0.0809145401341924,-0.00521623689949392,0.));
#1070=CARTESIAN_POINT('',(0.0809145401341924,-0.00521623689949392,0.));
#1071=CARTESIAN_POINT('',(0.0769145401341924,-0.00521623731002798,0.));
#1072=CARTESIAN_POINT('',(0.0809145401341924,-0.00521623689949392,-0.0035));
#1073=CARTESIAN_POINT('',(0.0809145401341924,-0.00521623710476068,-0.007));
#1074=CARTESIAN_POINT('',(0.0809145401341924,-0.00521623689949392,-0.007));
#1075=CARTESIAN_POINT('',(0.0769145401341924,-0.00521623731002798,-0.007));
#1076=CARTESIAN_POINT('',(0.0769145401341924,-0.00521623731002798,0.));
#1077=CARTESIAN_POINT('',(0.0809145389025902,0.00678376310050606,-0.0035));
#1078=CARTESIAN_POINT('',(0.0809145389025902,0.00678376310050606,-0.007));
#1079=CARTESIAN_POINT('',(0.0809145389025903,0.00678376289523923,-0.007));
#1080=CARTESIAN_POINT('',(0.0769145389025902,0.00678376268997199,-0.007));
#1081=CARTESIAN_POINT('',(0.0809145389025902,0.00678376310050606,-0.0035));
#1082=CARTESIAN_POINT('',(0.0809145389025902,0.00678376310050606,0.));
#1083=CARTESIAN_POINT('',(0.0809145389025902,0.00678376310050606,0.));
#1084=CARTESIAN_POINT('',(0.0769145389025902,0.00678376268997199,0.));
#1085=CARTESIAN_POINT('',(0.0769145389025902,0.00678376268997199,0.));
#1086=CARTESIAN_POINT('',(0.0572695980760095,0.0459874442692634,0.));
#1087=CARTESIAN_POINT('',(0.0572695980760095,0.0459874442692634,0.));
#1088=CARTESIAN_POINT('',(0.0809145348789783,0.0459874466960264,0.));
#1089=CARTESIAN_POINT('',(0.0336246612730407,0.0459874418425005,0.));
#1090=CARTESIAN_POINT('',(0.0336246612730407,0.0481908865059292,0.));
#1091=CARTESIAN_POINT('',(0.0336246612730407,0.050394331169358,0.));
#1092=CARTESIAN_POINT('',(0.0240993095975909,0.0504193330714285,0.));
#1093=CARTESIAN_POINT('',(0.0145739579221415,0.0504443349734991,0.));
#1094=CARTESIAN_POINT('',(0.0145677243487754,0.0528136984041751,0.));
#1095=CARTESIAN_POINT('',(0.0145614907754094,0.0551830618348518,0.));
#1096=CARTESIAN_POINT('',(3.65349165613758E-5,0.0551448480358151,0.));
#1097=CARTESIAN_POINT('',(-0.0144884209422866,0.0551066342367784,0.));
#1098=CARTESIAN_POINT('',(-0.0144822217892135,0.0527504083904317,0.));
#1099=CARTESIAN_POINT('',(-0.0144760226361405,0.0503941825440851,0.));
#1100=CARTESIAN_POINT('',(-0.0239945350284385,0.0503691396495598,0.));
#1101=CARTESIAN_POINT('',(-0.0335130474207366,0.0503440967550345,0.));
#1102=CARTESIAN_POINT('',(-0.0335267560627081,0.0447890337081729,0.));
#1103=CARTESIAN_POINT('',(-0.0335404647046797,0.0392339706613111,0.));
#1104=CARTESIAN_POINT('',(-0.045474007522981,0.0382044021804134,0.));
#1105=CARTESIAN_POINT('',(-0.0574075503412824,0.0371748336995158,0.));
#1106=CARTESIAN_POINT('',(-0.0574075503412824,0.0348969490335861,0.));
#1107=CARTESIAN_POINT('',(-0.0574075503412824,0.0326190643676564,0.));
#1108=CARTESIAN_POINT('',(-0.0697107614516858,0.0304496543561273,0.));
#1109=CARTESIAN_POINT('',(-0.0820139725620892,0.0282802443445982,0.));
#1110=CARTESIAN_POINT('',(-0.0757192976698998,-0.00741826984054462,0.));
#1111=CARTESIAN_POINT('',(-0.0694246227777104,-0.0431167840256875,0.));
#1112=CARTESIAN_POINT('',(-0.0382645392248078,-0.0376133212842709,0.));
#1113=CARTESIAN_POINT('',(-0.00710445567190512,-0.0321098585428544,0.));
#1114=CARTESIAN_POINT('',(0.0353331293187682,-0.0478832496519513,0.));
#1115=CARTESIAN_POINT('',(0.0777707143094406,-0.0636566407610479,0.));
#1116=CARTESIAN_POINT('',(0.0844066305705298,-0.0455408702540476,0.));
#1117=CARTESIAN_POINT('',(0.0910425468316189,-0.0274250997470474,0.));
#1118=CARTESIAN_POINT('',(0.0859785444325092,-0.0255730412269987,0.));
#1119=CARTESIAN_POINT('',(0.0809145420333995,-0.0237209827069499,0.));
#1120=CARTESIAN_POINT('',(0.080914541083796,-0.0144686098032219,0.));
#1121=CARTESIAN_POINT('',(0.0769145420333995,-0.023720983117484,0.));
#1122=CARTESIAN_POINT('',(0.0769145423203837,-0.0265171860609855,9.30961918795662E-19));
#1123=CARTESIAN_POINT('',(0.0896686298135855,-0.0311817408035709,1.86192383759132E-18));
#1124=CARTESIAN_POINT('',(0.0859100805374881,-0.029807125892045,9.30961918795662E-19));
#1125=CARTESIAN_POINT('',(0.0740147714535614,-0.0622808161852498,0.));
#1126=CARTESIAN_POINT('',(0.0753971244591419,-0.058507050992401,1.38142395648761E-18));
#1127=CARTESIAN_POINT('',(-0.00571086645879318,-0.0283604707121415,2.76284791297522E-18));
#1128=CARTESIAN_POINT('',(-0.00672974738934742,-0.0279817684977067,-5.70900331289729E-19));
#1129=CARTESIAN_POINT('',(-0.0701203310426632,-0.0391777498788342,-3.90464857555468E-18));
#1130=CARTESIAN_POINT('',(-0.0661801880269701,-0.0384818457665778,-1.95232428777734E-18));
#1131=CARTESIAN_POINT('',(-0.0780747427515323,0.0289748438692305,0.));
#1132=CARTESIAN_POINT('',(-0.0773801432269,0.0250356140586735,0.));
#1133=CARTESIAN_POINT('',(-0.0567129508166502,0.0286798345570995,0.));
#1134=CARTESIAN_POINT('',(-0.0534075503412824,0.0292626717383059,0.));
#1135=CARTESIAN_POINT('',(-0.0534075503412824,0.0371748336995158,0.));
#1136=CARTESIAN_POINT('',(-0.0534075503412824,0.0335050751830699,0.));
#1137=CARTESIAN_POINT('',(-0.0331966412458048,0.0352487748782752,0.));
#1138=CARTESIAN_POINT('',(-0.0295495105866684,0.0355634317098243,0.));
#1139=CARTESIAN_POINT('',(-0.0295130596005012,0.0503342256877837,0.));
#1140=CARTESIAN_POINT('',(-0.0295228804657148,0.0463545809097256,0.));
#1141=CARTESIAN_POINT('',(-0.0144654988034993,0.0463941963879907,0.));
#1142=CARTESIAN_POINT('',(-0.0104655126474049,0.0464047202206319,-4.95633563468508E-19));
#1143=CARTESIAN_POINT('',(-0.0104884347861922,0.0551171580694195,-9.91267126937016E-19));
#1144=CARTESIAN_POINT('',(-0.0104779109529103,0.0511171716697832,-4.95633563468508E-19));
#1145=CARTESIAN_POINT('',(0.0145720143645086,0.0511830756781167,0.));
#1146=CARTESIAN_POINT('',(0.0105720282077735,0.0511725520890174,0.));
#1147=CARTESIAN_POINT('',(0.0105739717654063,0.0504338113843999,0.));
#1148=CARTESIAN_POINT('',(0.0105844401908388,0.0464547927798382,0.));
#1149=CARTESIAN_POINT('',(0.0336141622104136,0.0463943449481712,0.));
#1150=CARTESIAN_POINT('',(0.0296246612730406,0.0464048164892906,0.));
#1151=CARTESIAN_POINT('',(0.0296246612730406,0.0459874418425005,0.));
#1152=CARTESIAN_POINT('',(0.0296246612730406,0.0419874414319663,-1.98254111540205E-18));
#1153=CARTESIAN_POINT('',(0.0809145352895124,0.0419874466960264,-3.96508223080411E-18));
#1154=CARTESIAN_POINT('',(0.0769145352895124,0.0419874462854924,-3.96508223080411E-18));
#1155=CARTESIAN_POINT('',(0.0769145389025902,0.00678376268997199,0.));
#1156=CARTESIAN_POINT('',(0.0809145368907843,0.0263856048982662,0.));
#1157=CARTESIAN_POINT('',(0.0769145389025902,0.00678376268997199,0.));
#1158=CARTESIAN_POINT('',(0.0769145352895124,0.0419874462854924,-3.96508223080411E-18));
#1159=CARTESIAN_POINT('',(0.0769145352895124,0.0419874462854924,-0.007));
#1160=CARTESIAN_POINT('',(0.0769145389025902,0.00678376268997199,-0.007));
#1161=CARTESIAN_POINT('',(0.0809145352895124,0.0419874466960264,-3.96508223080411E-18));
#1162=CARTESIAN_POINT('',(0.0296246612730406,0.0419874414319663,-3.96508744891192E-18));
#1163=CARTESIAN_POINT('',(0.0296246612730406,0.0419874414319663,-0.007));
#1164=CARTESIAN_POINT('',(0.0809145352895124,0.0419874466960264,-0.007));
#1165=CARTESIAN_POINT('',(0.0296246612730406,0.0459874418425005,0.));
#1166=CARTESIAN_POINT('',(0.0296246612730406,0.0464048164892906,0.));
#1167=CARTESIAN_POINT('',(0.0296246612730406,0.0464048164892906,-0.007));
#1168=CARTESIAN_POINT('',(0.0296246612730406,0.0459874418425005,-0.007));
#1169=CARTESIAN_POINT('',(0.0336141622104136,0.0463943449481712,0.));
#1170=CARTESIAN_POINT('',(0.0105844401908388,0.0464547927798382,0.));
#1171=CARTESIAN_POINT('',(0.0105844401908388,0.0464547927798382,-0.007));
#1172=CARTESIAN_POINT('',(0.0336141622104136,0.0463943449481712,-0.007));
#1173=CARTESIAN_POINT('',(0.0105739717654063,0.0504338113843999,0.));
#1174=CARTESIAN_POINT('',(0.0105720282077735,0.0511725520890174,0.));
#1175=CARTESIAN_POINT('',(0.0105720282077735,0.0511725520890174,-0.007));
#1176=CARTESIAN_POINT('',(0.0105739717654063,0.0504338113843999,-0.007));
#1177=CARTESIAN_POINT('',(0.0145720143645086,0.0511830756781167,0.));
#1178=CARTESIAN_POINT('',(-0.0104779109529103,0.0511171716697832,-9.91267187291011E-19));
#1179=CARTESIAN_POINT('',(-0.0104779109529103,0.0511171716697832,-0.007));
#1180=CARTESIAN_POINT('',(0.0145720143645086,0.0511830756781167,-0.007));
#1181=CARTESIAN_POINT('',(-0.0104884347861922,0.0551171580694195,-9.91267126937016E-19));
#1182=CARTESIAN_POINT('',(-0.0104655126474049,0.0464047202206319,-9.91267126937018E-19));
#1183=CARTESIAN_POINT('',(-0.0104655126474049,0.0464047202206319,-0.007));
#1184=CARTESIAN_POINT('',(-0.0104884347861922,0.0551171580694195,-0.007));
#1185=CARTESIAN_POINT('',(-0.0144654988034993,0.0463941963879907,0.));
#1186=CARTESIAN_POINT('',(-0.0295228804657148,0.0463545809097256,0.));
#1187=CARTESIAN_POINT('',(-0.0295228804657148,0.0463545809097256,-0.007));
#1188=CARTESIAN_POINT('',(-0.0144654988034993,0.0463941963879907,-0.007));
#1189=CARTESIAN_POINT('',(-0.0295130596005012,0.0503342256877837,0.));
#1190=CARTESIAN_POINT('',(-0.0295495105866684,0.0355634317098243,0.));
#1191=CARTESIAN_POINT('',(-0.0295495105866684,0.0355634317098243,-0.007));
#1192=CARTESIAN_POINT('',(-0.0295130596005012,0.0503342256877837,-0.007));
#1193=CARTESIAN_POINT('',(-0.0331966412458048,0.0352487748782752,0.));
#1194=CARTESIAN_POINT('',(-0.0534075503412824,0.0335050751830699,0.));
#1195=CARTESIAN_POINT('',(-0.0534075503412824,0.0335050751830699,-0.007));
#1196=CARTESIAN_POINT('',(-0.0331966412458048,0.0352487748782752,-0.007));
#1197=CARTESIAN_POINT('',(-0.0534075503412824,0.0371748336995158,0.));
#1198=CARTESIAN_POINT('',(-0.0534075503412824,0.0292626717383059,0.));
#1199=CARTESIAN_POINT('',(-0.0534075503412824,0.0292626717383059,-0.007));
#1200=CARTESIAN_POINT('',(-0.0534075503412824,0.0371748336995158,-0.007));
#1201=CARTESIAN_POINT('',(-0.0567129508166502,0.0286798345570995,0.));
#1202=CARTESIAN_POINT('',(-0.0773801432269,0.0250356140586735,0.));
#1203=CARTESIAN_POINT('',(-0.0773801432269,0.0250356140586735,-0.007));
#1204=CARTESIAN_POINT('',(-0.0567129508166502,0.0286798345570995,-0.007));
#1205=CARTESIAN_POINT('',(-0.0780747427515323,0.0289748438692305,0.));
#1206=CARTESIAN_POINT('',(-0.0661801880269701,-0.0384818457665778,-3.90574791930296E-18));
#1207=CARTESIAN_POINT('',(-0.0661801880269701,-0.0384818457665778,-0.007));
#1208=CARTESIAN_POINT('',(-0.0780747427515323,0.0289748438692305,-0.007));
#1209=CARTESIAN_POINT('',(-0.0701203310426632,-0.0391777498788342,-3.90464857555468E-18));
#1210=CARTESIAN_POINT('',(-0.00672974738934742,-0.0279817684977067,1.9102487454651E-16));
#1211=CARTESIAN_POINT('',(-0.00672974738934742,-0.0279817684977067,-0.007));
#1212=CARTESIAN_POINT('',(-0.0701203310426632,-0.0391777498788342,-0.007));
#1213=CARTESIAN_POINT('',(-0.00571086645879318,-0.0283604707121415,2.76284791297522E-18));
#1214=CARTESIAN_POINT('',(0.0753971244591419,-0.058507050992401,2.77598901596936E-18));
#1215=CARTESIAN_POINT('',(0.0753971244591419,-0.058507050992401,-0.007));
#1216=CARTESIAN_POINT('',(-0.00571086645879318,-0.0283604707121415,-0.007));
#1217=CARTESIAN_POINT('',(0.0740147714535614,-0.0622808161852498,0.));
#1218=CARTESIAN_POINT('',(0.0859100805374881,-0.029807125892045,1.86286985874088E-18));
#1219=CARTESIAN_POINT('',(0.0859100805374881,-0.029807125892045,-0.007));
#1220=CARTESIAN_POINT('',(0.0740147714535614,-0.0622808161852498,-0.007));
#1221=CARTESIAN_POINT('',(0.0896686298135855,-0.0311817408035709,1.86192383759132E-18));
#1222=CARTESIAN_POINT('',(0.0769145423203837,-0.0265171860609855,-4.49994788529099E-19));
#1223=CARTESIAN_POINT('',(0.0769145423203837,-0.0265171860609855,-0.007));
#1224=CARTESIAN_POINT('',(0.0896686298135855,-0.0311817408035709,-0.007));
#1225=CARTESIAN_POINT('',(0.0769145420333995,-0.023720983117484,0.));
#1226=CARTESIAN_POINT('',(0.0769145420333995,-0.023720983117484,-0.007));
#1227=CARTESIAN_POINT('',(0.0809145389025902,0.00678376310050606,0.));
#1228=CARTESIAN_POINT('',(0.080914541083796,-0.0144686098032219,-0.007));
#1229=CARTESIAN_POINT('',(0.0809145420333995,-0.0237209827069499,-0.0035));
#1230=CARTESIAN_POINT('',(0.0809145420333995,-0.0237209827069499,-0.011));
#1231=CARTESIAN_POINT('',(0.080914541083796,-0.0144686098032219,-0.011));
#1232=CARTESIAN_POINT('',(0.0809145348789783,0.0459874466960264,-0.011));
#1233=CARTESIAN_POINT('',(0.0809145348789783,0.0459874466960264,-0.0035));
#1234=CARTESIAN_POINT('',(0.0809145348789783,0.0459874466960264,0.));
#1235=CARTESIAN_POINT('',(0.0572695980760095,0.0459874442692634,-0.011));
#1236=CARTESIAN_POINT('',(0.0336246612730407,0.0459874418425004,-0.011));
#1237=CARTESIAN_POINT('',(0.0336246612730407,0.0459874418425004,-0.0035));
#1238=CARTESIAN_POINT('',(0.0336246612730407,0.0459874418425005,0.));
#1239=CARTESIAN_POINT('',(0.0336246612730407,0.0481908865059292,-0.011));
#1240=CARTESIAN_POINT('',(0.0336246612730407,0.050394331169358,-0.011));
#1241=CARTESIAN_POINT('',(0.0336246612730407,0.050394331169358,-0.0035));
#1242=CARTESIAN_POINT('',(0.0336246612730407,0.050394331169358,0.));
#1243=CARTESIAN_POINT('',(0.0240993095975909,0.0504193330714285,-0.011));
#1244=CARTESIAN_POINT('',(0.0145739579221411,0.0504443349734991,-0.011));
#1245=CARTESIAN_POINT('',(0.0145739579221411,0.0504443349734991,-0.0035));
#1246=CARTESIAN_POINT('',(0.0145739579221415,0.0504443349734991,0.));
#1247=CARTESIAN_POINT('',(0.0145677243487754,0.0528136984041751,-0.011));
#1248=CARTESIAN_POINT('',(0.0145614907754093,0.0551830618348511,-0.011));
#1249=CARTESIAN_POINT('',(0.0145614907754093,0.0551830618348511,-0.0035));
#1250=CARTESIAN_POINT('',(0.0145614907754094,0.0551830618348518,0.));
#1251=CARTESIAN_POINT('',(3.65349165613758E-5,0.0551448480358151,-0.011));
#1252=CARTESIAN_POINT('',(-0.0144884209422866,0.0551066342367784,-0.011));
#1253=CARTESIAN_POINT('',(-0.0144884209422866,0.0551066342367784,-0.0035));
#1254=CARTESIAN_POINT('',(-0.0144884209422866,0.0551066342367784,0.));
#1255=CARTESIAN_POINT('',(-0.0144822217892135,0.0527504083904317,-0.011));
#1256=CARTESIAN_POINT('',(-0.0144760226361405,0.0503941825440851,-0.011));
#1257=CARTESIAN_POINT('',(-0.0144760226361405,0.0503941825440851,-0.0035));
#1258=CARTESIAN_POINT('',(-0.0144760226361405,0.0503941825440851,0.));
#1259=CARTESIAN_POINT('',(-0.0239945350284385,0.0503691396495598,-0.011));
#1260=CARTESIAN_POINT('',(-0.0335130474207366,0.0503440967550345,-0.011));
#1261=CARTESIAN_POINT('',(-0.0335130474207366,0.0503440967550345,-0.0035));
#1262=CARTESIAN_POINT('',(-0.0335130474207366,0.0503440967550345,0.));
#1263=CARTESIAN_POINT('',(-0.0335267560627081,0.0447890337081729,-0.011));
#1264=CARTESIAN_POINT('',(-0.0335404647046797,0.0392339706613111,-0.011));
#1265=CARTESIAN_POINT('',(-0.0335404647046797,0.0392339706613111,-0.0035));
#1266=CARTESIAN_POINT('',(-0.0335404647046797,0.0392339706613111,0.));
#1267=CARTESIAN_POINT('',(-0.045474007522981,0.0382044021804134,-0.011));
#1268=CARTESIAN_POINT('',(-0.0574075503412824,0.0371748336995158,-0.011));
#1269=CARTESIAN_POINT('',(-0.0574075503412824,0.0371748336995158,-0.0035));
#1270=CARTESIAN_POINT('',(-0.0574075503412824,0.0371748336995158,0.));
#1271=CARTESIAN_POINT('',(-0.0574075503412824,0.0348969490335861,-0.011));
#1272=CARTESIAN_POINT('',(-0.0574075503412824,0.0326190643676564,-0.011));
#1273=CARTESIAN_POINT('',(-0.0574075503412824,0.0326190643676564,-0.0035));
#1274=CARTESIAN_POINT('',(-0.0574075503412824,0.0326190643676564,0.));
#1275=CARTESIAN_POINT('',(-0.0697107614516858,0.0304496543561273,-0.011));
#1276=CARTESIAN_POINT('',(-0.0820139725620892,0.0282802443445982,-0.011));
#1277=CARTESIAN_POINT('',(-0.0820139725620892,0.0282802443445982,-0.0035));
#1278=CARTESIAN_POINT('',(-0.0820139725620892,0.0282802443445982,0.));
#1279=CARTESIAN_POINT('',(-0.0757192976698998,-0.00741826984054462,-0.011));
#1280=CARTESIAN_POINT('',(-0.0694246227777103,-0.0431167840256875,-0.011));
#1281=CARTESIAN_POINT('',(-0.0694246227777103,-0.0431167840256875,-0.0035));
#1282=CARTESIAN_POINT('',(-0.0694246227777104,-0.0431167840256875,0.));
#1283=CARTESIAN_POINT('',(-0.0382645392248078,-0.0376133212842709,-0.011));
#1284=CARTESIAN_POINT('',(-0.00710445567190519,-0.0321098585428543,-0.011));
#1285=CARTESIAN_POINT('',(-0.00710445567190518,-0.0321098585428543,-0.0035));
#1286=CARTESIAN_POINT('',(-0.00710445567190512,-0.0321098585428544,0.));
#1287=CARTESIAN_POINT('',(0.0353331293187682,-0.0478832496519513,-0.011));
#1288=CARTESIAN_POINT('',(0.0777707143094415,-0.0636566407610482,-0.011));
#1289=CARTESIAN_POINT('',(0.0777707143094415,-0.0636566407610482,-0.0035));
#1290=CARTESIAN_POINT('',(0.0777707143094406,-0.0636566407610479,0.));
#1291=CARTESIAN_POINT('',(0.0844066305705298,-0.0455408702540477,-0.011));
#1292=CARTESIAN_POINT('',(0.0910425468316189,-0.0274250997470474,-0.011));
#1293=CARTESIAN_POINT('',(0.0910425468316189,-0.0274250997470474,-0.0035));
#1294=CARTESIAN_POINT('',(0.0910425468316189,-0.0274250997470474,0.));
#1295=CARTESIAN_POINT('',(0.0859785444325092,-0.0255730412269987,-0.011));
#1296=CARTESIAN_POINT('',(0.00451428713476484,-0.00324097881625466,-0.007));
#1297=CARTESIAN_POINT('',(0.00451428713476484,-0.00324097881625466,-0.011));
#1298=MECHANICAL_DESIGN_GEOMETRIC_PRESENTATION_REPRESENTATION('',(#819),
#1299);
#1299=(
GEOMETRIC_REPRESENTATION_CONTEXT(3)
GLOBAL_UNCERTAINTY_ASSIGNED_CONTEXT((#1300))
GLOBAL_UNIT_ASSIGNED_CONTEXT((#1303,#1302,#1301))
REPRESENTATION_CONTEXT('Part 2','TOP_LEVEL_ASSEMBLY_PART')
);
#1300=UNCERTAINTY_MEASURE_WITH_UNIT(LENGTH_MEASURE(1.E-8),#1303,
'DISTANCE_ACCURACY_VALUE','Maximum Tolerance applied to model');
#1301=(
NAMED_UNIT(*)
SI_UNIT($,.STERADIAN.)
SOLID_ANGLE_UNIT()
);
#1302=(
NAMED_UNIT(*)
PLANE_ANGLE_UNIT()
SI_UNIT($,.RADIAN.)
);
#1303=(
LENGTH_UNIT()
NAMED_UNIT(*)
SI_UNIT($,.METRE.)
);
#1304=PRODUCT_DEFINITION_SHAPE('','',#1305);
#1305=PRODUCT_DEFINITION('','',#1307,#1306);
#1306=PRODUCT_DEFINITION_CONTEXT('',#1313,'design');
#1307=PRODUCT_DEFINITION_FORMATION_WITH_SPECIFIED_SOURCE('','',#1309,
 .NOT_KNOWN.);
#1308=PRODUCT_RELATED_PRODUCT_CATEGORY('','',(#1309));
#1309=PRODUCT('Part 2','Part 2','Part 2',(#1311));
#1310=PRODUCT_CATEGORY('','');
#1311=PRODUCT_CONTEXT('',#1313,'mechanical');
#1312=APPLICATION_PROTOCOL_DEFINITION('international standard',
'ap242_managed_model_based_3d_engineering',2011,#1313);
#1313=APPLICATION_CONTEXT('managed model based 3d engineering');
ENDSEC;
END-ISO-10303-21;
