ISO-10303-21;
HEADER;
/* Generated by software containing ST-Developer
 * from STEP Tools, Inc. (www.steptools.com) 
 */
/* OPTION: using custom renumber hook */

FILE_DESCRIPTION(
/* description */ ('STEP AP242',
'CAx-IF Rec.Pracs.---Representation and Presentation of Product Manufa
cturing Information (PMI)---4.0---2014-10-13',
'CAx-IF Rec.Pracs.---3D Tessellated Geometry---0.4---2014-09-14','2;1'),

/* implementation_level */ '2;1');

FILE_NAME(
/* name */ '68f5ce8e601768be97221b91',
/* time_stamp */ '2025-10-20T05:54:23Z',
/* author */ (''),
/* organization */ (''),
/* preprocessor_version */ 'ST-DEVELOPER v20',
/* originating_system */ 'ONSHAPE BY PTC INC, 1.205',
/* authorisation */ '  ');

FILE_SCHEMA (('AP242_MANAGED_MODEL_BASED_3D_ENGINEERING_MIM_LF { 1 0 10303 442 1 1 4 }'));
ENDSEC;

DATA;
#10=SHAPE_REPRESENTATION_RELATIONSHIP('','',#1019,#11);
#11=ADVANCED_BREP_SHAPE_REPRESENTATION('',(#1017),#1649);
#12=CYLINDRICAL_SURFACE('',#1081,0.001);
#13=CYLINDRICAL_SURFACE('',#1082,0.001);
#14=CYLINDRICAL_SURFACE('',#1083,0.001);
#15=CYLINDRICAL_SURFACE('',#1084,0.001);
#16=CYLINDRICAL_SURFACE('',#1085,0.001);
#17=CYLINDRICAL_SURFACE('',#1086,0.001);
#18=CYLINDRICAL_SURFACE('',#1087,0.001);
#19=CYLINDRICAL_SURFACE('',#1088,0.001);
#20=CYLINDRICAL_SURFACE('',#1089,0.001);
#21=CYLINDRICAL_SURFACE('',#1090,0.001);
#22=CIRCLE('',#1024,0.001);
#23=CIRCLE('',#1025,0.001);
#24=CIRCLE('',#1026,0.001);
#25=CIRCLE('',#1027,0.001);
#26=CIRCLE('',#1028,0.001);
#27=CIRCLE('',#1029,0.001);
#28=CIRCLE('',#1030,0.001);
#29=CIRCLE('',#1031,0.001);
#30=CIRCLE('',#1032,0.001);
#31=CIRCLE('',#1033,0.001);
#32=CIRCLE('',#1071,0.001);
#33=CIRCLE('',#1072,0.001);
#34=CIRCLE('',#1073,0.001);
#35=CIRCLE('',#1074,0.001);
#36=CIRCLE('',#1075,0.001);
#37=CIRCLE('',#1076,0.001);
#38=CIRCLE('',#1077,0.001);
#39=CIRCLE('',#1078,0.001);
#40=CIRCLE('',#1079,0.001);
#41=CIRCLE('',#1080,0.001);
#42=ORIENTED_EDGE('',*,*,#330,.F.);
#43=ORIENTED_EDGE('',*,*,#331,.T.);
#44=ORIENTED_EDGE('',*,*,#332,.T.);
#45=ORIENTED_EDGE('',*,*,#333,.F.);
#46=ORIENTED_EDGE('',*,*,#334,.F.);
#47=ORIENTED_EDGE('',*,*,#335,.T.);
#48=ORIENTED_EDGE('',*,*,#336,.T.);
#49=ORIENTED_EDGE('',*,*,#337,.F.);
#50=ORIENTED_EDGE('',*,*,#338,.T.);
#51=ORIENTED_EDGE('',*,*,#339,.T.);
#52=ORIENTED_EDGE('',*,*,#340,.T.);
#53=ORIENTED_EDGE('',*,*,#341,.T.);
#54=ORIENTED_EDGE('',*,*,#330,.T.);
#55=ORIENTED_EDGE('',*,*,#342,.F.);
#56=ORIENTED_EDGE('',*,*,#343,.F.);
#57=ORIENTED_EDGE('',*,*,#344,.F.);
#58=ORIENTED_EDGE('',*,*,#345,.F.);
#59=ORIENTED_EDGE('',*,*,#346,.F.);
#60=ORIENTED_EDGE('',*,*,#347,.F.);
#61=ORIENTED_EDGE('',*,*,#348,.F.);
#62=ORIENTED_EDGE('',*,*,#349,.F.);
#63=ORIENTED_EDGE('',*,*,#350,.F.);
#64=ORIENTED_EDGE('',*,*,#351,.F.);
#65=ORIENTED_EDGE('',*,*,#352,.F.);
#66=ORIENTED_EDGE('',*,*,#353,.F.);
#67=ORIENTED_EDGE('',*,*,#354,.F.);
#68=ORIENTED_EDGE('',*,*,#355,.F.);
#69=ORIENTED_EDGE('',*,*,#356,.F.);
#70=ORIENTED_EDGE('',*,*,#357,.F.);
#71=ORIENTED_EDGE('',*,*,#358,.F.);
#72=ORIENTED_EDGE('',*,*,#359,.F.);
#73=ORIENTED_EDGE('',*,*,#336,.F.);
#74=ORIENTED_EDGE('',*,*,#360,.T.);
#75=ORIENTED_EDGE('',*,*,#361,.T.);
#76=ORIENTED_EDGE('',*,*,#362,.T.);
#77=ORIENTED_EDGE('',*,*,#363,.T.);
#78=ORIENTED_EDGE('',*,*,#364,.T.);
#79=ORIENTED_EDGE('',*,*,#365,.T.);
#80=ORIENTED_EDGE('',*,*,#366,.T.);
#81=ORIENTED_EDGE('',*,*,#367,.T.);
#82=ORIENTED_EDGE('',*,*,#368,.T.);
#83=ORIENTED_EDGE('',*,*,#369,.T.);
#84=ORIENTED_EDGE('',*,*,#370,.T.);
#85=ORIENTED_EDGE('',*,*,#371,.T.);
#86=ORIENTED_EDGE('',*,*,#372,.T.);
#87=ORIENTED_EDGE('',*,*,#373,.T.);
#88=ORIENTED_EDGE('',*,*,#374,.T.);
#89=ORIENTED_EDGE('',*,*,#375,.T.);
#90=ORIENTED_EDGE('',*,*,#376,.T.);
#91=ORIENTED_EDGE('',*,*,#377,.T.);
#92=ORIENTED_EDGE('',*,*,#378,.T.);
#93=ORIENTED_EDGE('',*,*,#379,.T.);
#94=ORIENTED_EDGE('',*,*,#380,.T.);
#95=ORIENTED_EDGE('',*,*,#381,.T.);
#96=ORIENTED_EDGE('',*,*,#382,.T.);
#97=ORIENTED_EDGE('',*,*,#383,.T.);
#98=ORIENTED_EDGE('',*,*,#359,.T.);
#99=ORIENTED_EDGE('',*,*,#384,.T.);
#100=ORIENTED_EDGE('',*,*,#385,.T.);
#101=ORIENTED_EDGE('',*,*,#337,.T.);
#102=ORIENTED_EDGE('',*,*,#358,.T.);
#103=ORIENTED_EDGE('',*,*,#386,.T.);
#104=ORIENTED_EDGE('',*,*,#387,.T.);
#105=ORIENTED_EDGE('',*,*,#384,.F.);
#106=ORIENTED_EDGE('',*,*,#357,.T.);
#107=ORIENTED_EDGE('',*,*,#388,.T.);
#108=ORIENTED_EDGE('',*,*,#389,.T.);
#109=ORIENTED_EDGE('',*,*,#386,.F.);
#110=ORIENTED_EDGE('',*,*,#356,.T.);
#111=ORIENTED_EDGE('',*,*,#390,.T.);
#112=ORIENTED_EDGE('',*,*,#391,.T.);
#113=ORIENTED_EDGE('',*,*,#388,.F.);
#114=ORIENTED_EDGE('',*,*,#355,.T.);
#115=ORIENTED_EDGE('',*,*,#392,.T.);
#116=ORIENTED_EDGE('',*,*,#393,.T.);
#117=ORIENTED_EDGE('',*,*,#390,.F.);
#118=ORIENTED_EDGE('',*,*,#354,.T.);
#119=ORIENTED_EDGE('',*,*,#394,.T.);
#120=ORIENTED_EDGE('',*,*,#395,.T.);
#121=ORIENTED_EDGE('',*,*,#392,.F.);
#122=ORIENTED_EDGE('',*,*,#353,.T.);
#123=ORIENTED_EDGE('',*,*,#396,.T.);
#124=ORIENTED_EDGE('',*,*,#397,.T.);
#125=ORIENTED_EDGE('',*,*,#394,.F.);
#126=ORIENTED_EDGE('',*,*,#352,.T.);
#127=ORIENTED_EDGE('',*,*,#398,.T.);
#128=ORIENTED_EDGE('',*,*,#399,.T.);
#129=ORIENTED_EDGE('',*,*,#396,.F.);
#130=ORIENTED_EDGE('',*,*,#351,.T.);
#131=ORIENTED_EDGE('',*,*,#400,.T.);
#132=ORIENTED_EDGE('',*,*,#401,.T.);
#133=ORIENTED_EDGE('',*,*,#398,.F.);
#134=ORIENTED_EDGE('',*,*,#350,.T.);
#135=ORIENTED_EDGE('',*,*,#402,.T.);
#136=ORIENTED_EDGE('',*,*,#403,.T.);
#137=ORIENTED_EDGE('',*,*,#400,.F.);
#138=ORIENTED_EDGE('',*,*,#349,.T.);
#139=ORIENTED_EDGE('',*,*,#404,.T.);
#140=ORIENTED_EDGE('',*,*,#405,.T.);
#141=ORIENTED_EDGE('',*,*,#402,.F.);
#142=ORIENTED_EDGE('',*,*,#348,.T.);
#143=ORIENTED_EDGE('',*,*,#406,.T.);
#144=ORIENTED_EDGE('',*,*,#407,.T.);
#145=ORIENTED_EDGE('',*,*,#404,.F.);
#146=ORIENTED_EDGE('',*,*,#347,.T.);
#147=ORIENTED_EDGE('',*,*,#408,.T.);
#148=ORIENTED_EDGE('',*,*,#409,.T.);
#149=ORIENTED_EDGE('',*,*,#406,.F.);
#150=ORIENTED_EDGE('',*,*,#346,.T.);
#151=ORIENTED_EDGE('',*,*,#410,.T.);
#152=ORIENTED_EDGE('',*,*,#411,.T.);
#153=ORIENTED_EDGE('',*,*,#408,.F.);
#154=ORIENTED_EDGE('',*,*,#345,.T.);
#155=ORIENTED_EDGE('',*,*,#412,.T.);
#156=ORIENTED_EDGE('',*,*,#413,.T.);
#157=ORIENTED_EDGE('',*,*,#410,.F.);
#158=ORIENTED_EDGE('',*,*,#344,.T.);
#159=ORIENTED_EDGE('',*,*,#414,.T.);
#160=ORIENTED_EDGE('',*,*,#415,.T.);
#161=ORIENTED_EDGE('',*,*,#412,.F.);
#162=ORIENTED_EDGE('',*,*,#343,.T.);
#163=ORIENTED_EDGE('',*,*,#416,.T.);
#164=ORIENTED_EDGE('',*,*,#417,.T.);
#165=ORIENTED_EDGE('',*,*,#414,.F.);
#166=ORIENTED_EDGE('',*,*,#342,.T.);
#167=ORIENTED_EDGE('',*,*,#333,.T.);
#168=ORIENTED_EDGE('',*,*,#418,.T.);
#169=ORIENTED_EDGE('',*,*,#416,.F.);
#170=ORIENTED_EDGE('',*,*,#419,.T.);
#171=ORIENTED_EDGE('',*,*,#420,.T.);
#172=ORIENTED_EDGE('',*,*,#360,.F.);
#173=ORIENTED_EDGE('',*,*,#335,.F.);
#174=ORIENTED_EDGE('',*,*,#421,.F.);
#175=ORIENTED_EDGE('',*,*,#331,.F.);
#176=ORIENTED_EDGE('',*,*,#341,.F.);
#177=ORIENTED_EDGE('',*,*,#422,.T.);
#178=ORIENTED_EDGE('',*,*,#362,.F.);
#179=ORIENTED_EDGE('',*,*,#423,.T.);
#180=ORIENTED_EDGE('',*,*,#424,.F.);
#181=ORIENTED_EDGE('',*,*,#425,.F.);
#182=ORIENTED_EDGE('',*,*,#426,.T.);
#183=ORIENTED_EDGE('',*,*,#427,.T.);
#184=ORIENTED_EDGE('',*,*,#363,.F.);
#185=ORIENTED_EDGE('',*,*,#425,.T.);
#186=ORIENTED_EDGE('',*,*,#365,.F.);
#187=ORIENTED_EDGE('',*,*,#428,.T.);
#188=ORIENTED_EDGE('',*,*,#429,.F.);
#189=ORIENTED_EDGE('',*,*,#430,.F.);
#190=ORIENTED_EDGE('',*,*,#431,.F.);
#191=ORIENTED_EDGE('',*,*,#432,.T.);
#192=ORIENTED_EDGE('',*,*,#366,.F.);
#193=ORIENTED_EDGE('',*,*,#430,.T.);
#194=ORIENTED_EDGE('',*,*,#368,.F.);
#195=ORIENTED_EDGE('',*,*,#433,.T.);
#196=ORIENTED_EDGE('',*,*,#434,.F.);
#197=ORIENTED_EDGE('',*,*,#435,.T.);
#198=ORIENTED_EDGE('',*,*,#370,.F.);
#199=ORIENTED_EDGE('',*,*,#436,.T.);
#200=ORIENTED_EDGE('',*,*,#437,.F.);
#201=ORIENTED_EDGE('',*,*,#438,.F.);
#202=ORIENTED_EDGE('',*,*,#439,.F.);
#203=ORIENTED_EDGE('',*,*,#440,.T.);
#204=ORIENTED_EDGE('',*,*,#371,.F.);
#205=ORIENTED_EDGE('',*,*,#438,.T.);
#206=ORIENTED_EDGE('',*,*,#373,.F.);
#207=ORIENTED_EDGE('',*,*,#441,.T.);
#208=ORIENTED_EDGE('',*,*,#442,.F.);
#209=ORIENTED_EDGE('',*,*,#443,.F.);
#210=ORIENTED_EDGE('',*,*,#444,.F.);
#211=ORIENTED_EDGE('',*,*,#445,.T.);
#212=ORIENTED_EDGE('',*,*,#374,.F.);
#213=ORIENTED_EDGE('',*,*,#443,.T.);
#214=ORIENTED_EDGE('',*,*,#376,.F.);
#215=ORIENTED_EDGE('',*,*,#446,.T.);
#216=ORIENTED_EDGE('',*,*,#447,.F.);
#217=ORIENTED_EDGE('',*,*,#448,.F.);
#218=ORIENTED_EDGE('',*,*,#449,.F.);
#219=ORIENTED_EDGE('',*,*,#450,.T.);
#220=ORIENTED_EDGE('',*,*,#377,.F.);
#221=ORIENTED_EDGE('',*,*,#448,.T.);
#222=ORIENTED_EDGE('',*,*,#379,.F.);
#223=ORIENTED_EDGE('',*,*,#451,.T.);
#224=ORIENTED_EDGE('',*,*,#452,.F.);
#225=ORIENTED_EDGE('',*,*,#453,.T.);
#226=ORIENTED_EDGE('',*,*,#381,.F.);
#227=ORIENTED_EDGE('',*,*,#454,.T.);
#228=ORIENTED_EDGE('',*,*,#455,.F.);
#229=ORIENTED_EDGE('',*,*,#456,.F.);
#230=ORIENTED_EDGE('',*,*,#457,.F.);
#231=ORIENTED_EDGE('',*,*,#458,.T.);
#232=ORIENTED_EDGE('',*,*,#382,.F.);
#233=ORIENTED_EDGE('',*,*,#456,.T.);
#234=ORIENTED_EDGE('',*,*,#459,.F.);
#235=ORIENTED_EDGE('',*,*,#460,.T.);
#236=ORIENTED_EDGE('',*,*,#338,.F.);
#237=ORIENTED_EDGE('',*,*,#461,.T.);
#238=ORIENTED_EDGE('',*,*,#340,.F.);
#239=ORIENTED_EDGE('',*,*,#462,.T.);
#240=ORIENTED_EDGE('',*,*,#463,.F.);
#241=ORIENTED_EDGE('',*,*,#422,.F.);
#242=ORIENTED_EDGE('',*,*,#332,.F.);
#243=ORIENTED_EDGE('',*,*,#421,.T.);
#244=ORIENTED_EDGE('',*,*,#334,.T.);
#245=ORIENTED_EDGE('',*,*,#385,.F.);
#246=ORIENTED_EDGE('',*,*,#387,.F.);
#247=ORIENTED_EDGE('',*,*,#389,.F.);
#248=ORIENTED_EDGE('',*,*,#391,.F.);
#249=ORIENTED_EDGE('',*,*,#393,.F.);
#250=ORIENTED_EDGE('',*,*,#395,.F.);
#251=ORIENTED_EDGE('',*,*,#397,.F.);
#252=ORIENTED_EDGE('',*,*,#399,.F.);
#253=ORIENTED_EDGE('',*,*,#401,.F.);
#254=ORIENTED_EDGE('',*,*,#403,.F.);
#255=ORIENTED_EDGE('',*,*,#405,.F.);
#256=ORIENTED_EDGE('',*,*,#407,.F.);
#257=ORIENTED_EDGE('',*,*,#409,.F.);
#258=ORIENTED_EDGE('',*,*,#411,.F.);
#259=ORIENTED_EDGE('',*,*,#413,.F.);
#260=ORIENTED_EDGE('',*,*,#415,.F.);
#261=ORIENTED_EDGE('',*,*,#417,.F.);
#262=ORIENTED_EDGE('',*,*,#418,.F.);
#263=ORIENTED_EDGE('',*,*,#463,.T.);
#264=ORIENTED_EDGE('',*,*,#464,.T.);
#265=ORIENTED_EDGE('',*,*,#459,.T.);
#266=ORIENTED_EDGE('',*,*,#465,.T.);
#267=ORIENTED_EDGE('',*,*,#457,.T.);
#268=ORIENTED_EDGE('',*,*,#455,.T.);
#269=ORIENTED_EDGE('',*,*,#466,.T.);
#270=ORIENTED_EDGE('',*,*,#452,.T.);
#271=ORIENTED_EDGE('',*,*,#467,.T.);
#272=ORIENTED_EDGE('',*,*,#449,.T.);
#273=ORIENTED_EDGE('',*,*,#447,.T.);
#274=ORIENTED_EDGE('',*,*,#468,.T.);
#275=ORIENTED_EDGE('',*,*,#444,.T.);
#276=ORIENTED_EDGE('',*,*,#442,.T.);
#277=ORIENTED_EDGE('',*,*,#469,.T.);
#278=ORIENTED_EDGE('',*,*,#439,.T.);
#279=ORIENTED_EDGE('',*,*,#437,.T.);
#280=ORIENTED_EDGE('',*,*,#470,.T.);
#281=ORIENTED_EDGE('',*,*,#434,.T.);
#282=ORIENTED_EDGE('',*,*,#471,.T.);
#283=ORIENTED_EDGE('',*,*,#431,.T.);
#284=ORIENTED_EDGE('',*,*,#429,.T.);
#285=ORIENTED_EDGE('',*,*,#472,.T.);
#286=ORIENTED_EDGE('',*,*,#426,.F.);
#287=ORIENTED_EDGE('',*,*,#424,.T.);
#288=ORIENTED_EDGE('',*,*,#473,.T.);
#289=ORIENTED_EDGE('',*,*,#419,.F.);
#290=ORIENTED_EDGE('',*,*,#339,.F.);
#291=ORIENTED_EDGE('',*,*,#460,.F.);
#292=ORIENTED_EDGE('',*,*,#464,.F.);
#293=ORIENTED_EDGE('',*,*,#462,.F.);
#294=ORIENTED_EDGE('',*,*,#361,.F.);
#295=ORIENTED_EDGE('',*,*,#420,.F.);
#296=ORIENTED_EDGE('',*,*,#473,.F.);
#297=ORIENTED_EDGE('',*,*,#423,.F.);
#298=ORIENTED_EDGE('',*,*,#364,.F.);
#299=ORIENTED_EDGE('',*,*,#427,.F.);
#300=ORIENTED_EDGE('',*,*,#472,.F.);
#301=ORIENTED_EDGE('',*,*,#428,.F.);
#302=ORIENTED_EDGE('',*,*,#367,.F.);
#303=ORIENTED_EDGE('',*,*,#432,.F.);
#304=ORIENTED_EDGE('',*,*,#471,.F.);
#305=ORIENTED_EDGE('',*,*,#433,.F.);
#306=ORIENTED_EDGE('',*,*,#369,.F.);
#307=ORIENTED_EDGE('',*,*,#435,.F.);
#308=ORIENTED_EDGE('',*,*,#470,.F.);
#309=ORIENTED_EDGE('',*,*,#436,.F.);
#310=ORIENTED_EDGE('',*,*,#372,.F.);
#311=ORIENTED_EDGE('',*,*,#440,.F.);
#312=ORIENTED_EDGE('',*,*,#469,.F.);
#313=ORIENTED_EDGE('',*,*,#441,.F.);
#314=ORIENTED_EDGE('',*,*,#375,.F.);
#315=ORIENTED_EDGE('',*,*,#445,.F.);
#316=ORIENTED_EDGE('',*,*,#468,.F.);
#317=ORIENTED_EDGE('',*,*,#446,.F.);
#318=ORIENTED_EDGE('',*,*,#378,.F.);
#319=ORIENTED_EDGE('',*,*,#450,.F.);
#320=ORIENTED_EDGE('',*,*,#467,.F.);
#321=ORIENTED_EDGE('',*,*,#451,.F.);
#322=ORIENTED_EDGE('',*,*,#380,.F.);
#323=ORIENTED_EDGE('',*,*,#453,.F.);
#324=ORIENTED_EDGE('',*,*,#466,.F.);
#325=ORIENTED_EDGE('',*,*,#454,.F.);
#326=ORIENTED_EDGE('',*,*,#383,.F.);
#327=ORIENTED_EDGE('',*,*,#458,.F.);
#328=ORIENTED_EDGE('',*,*,#465,.F.);
#329=ORIENTED_EDGE('',*,*,#461,.F.);
#330=EDGE_CURVE('',#474,#475,#570,.T.);
#331=EDGE_CURVE('',#474,#476,#571,.T.);
#332=EDGE_CURVE('',#476,#477,#572,.T.);
#333=EDGE_CURVE('',#475,#477,#573,.T.);
#334=EDGE_CURVE('',#478,#479,#574,.T.);
#335=EDGE_CURVE('',#478,#480,#575,.T.);
#336=EDGE_CURVE('',#480,#481,#576,.T.);
#337=EDGE_CURVE('',#479,#481,#577,.F.);
#338=EDGE_CURVE('',#482,#483,#578,.T.);
#339=EDGE_CURVE('',#483,#484,#22,.T.);
#340=EDGE_CURVE('',#484,#485,#579,.T.);
#341=EDGE_CURVE('',#485,#474,#580,.T.);
#342=EDGE_CURVE('',#486,#475,#581,.T.);
#343=EDGE_CURVE('',#487,#486,#582,.T.);
#344=EDGE_CURVE('',#488,#487,#583,.T.);
#345=EDGE_CURVE('',#489,#488,#584,.T.);
#346=EDGE_CURVE('',#490,#489,#585,.T.);
#347=EDGE_CURVE('',#491,#490,#586,.T.);
#348=EDGE_CURVE('',#492,#491,#587,.T.);
#349=EDGE_CURVE('',#493,#492,#588,.T.);
#350=EDGE_CURVE('',#494,#493,#589,.T.);
#351=EDGE_CURVE('',#495,#494,#590,.T.);
#352=EDGE_CURVE('',#496,#495,#591,.T.);
#353=EDGE_CURVE('',#497,#496,#592,.T.);
#354=EDGE_CURVE('',#498,#497,#593,.T.);
#355=EDGE_CURVE('',#499,#498,#594,.T.);
#356=EDGE_CURVE('',#500,#499,#595,.T.);
#357=EDGE_CURVE('',#501,#500,#596,.T.);
#358=EDGE_CURVE('',#502,#501,#597,.T.);
#359=EDGE_CURVE('',#481,#502,#598,.T.);
#360=EDGE_CURVE('',#480,#503,#599,.T.);
#361=EDGE_CURVE('',#503,#504,#23,.T.);
#362=EDGE_CURVE('',#504,#505,#600,.T.);
#363=EDGE_CURVE('',#505,#506,#601,.T.);
#364=EDGE_CURVE('',#506,#507,#24,.T.);
#365=EDGE_CURVE('',#507,#508,#602,.T.);
#366=EDGE_CURVE('',#508,#509,#603,.T.);
#367=EDGE_CURVE('',#509,#510,#25,.T.);
#368=EDGE_CURVE('',#510,#511,#604,.T.);
#369=EDGE_CURVE('',#511,#512,#26,.T.);
#370=EDGE_CURVE('',#512,#513,#605,.T.);
#371=EDGE_CURVE('',#513,#514,#606,.T.);
#372=EDGE_CURVE('',#514,#515,#27,.T.);
#373=EDGE_CURVE('',#515,#516,#607,.T.);
#374=EDGE_CURVE('',#516,#517,#608,.T.);
#375=EDGE_CURVE('',#517,#518,#28,.T.);
#376=EDGE_CURVE('',#518,#519,#609,.T.);
#377=EDGE_CURVE('',#519,#520,#610,.T.);
#378=EDGE_CURVE('',#520,#521,#29,.T.);
#379=EDGE_CURVE('',#521,#522,#611,.T.);
#380=EDGE_CURVE('',#522,#523,#30,.T.);
#381=EDGE_CURVE('',#523,#524,#612,.T.);
#382=EDGE_CURVE('',#524,#525,#613,.T.);
#383=EDGE_CURVE('',#525,#482,#31,.T.);
#384=EDGE_CURVE('',#502,#526,#614,.T.);
#385=EDGE_CURVE('',#526,#479,#615,.F.);
#386=EDGE_CURVE('',#501,#527,#616,.T.);
#387=EDGE_CURVE('',#527,#526,#617,.F.);
#388=EDGE_CURVE('',#500,#528,#618,.T.);
#389=EDGE_CURVE('',#528,#527,#619,.F.);
#390=EDGE_CURVE('',#499,#529,#620,.T.);
#391=EDGE_CURVE('',#529,#528,#621,.F.);
#392=EDGE_CURVE('',#498,#530,#622,.T.);
#393=EDGE_CURVE('',#530,#529,#623,.F.);
#394=EDGE_CURVE('',#497,#531,#624,.T.);
#395=EDGE_CURVE('',#531,#530,#625,.F.);
#396=EDGE_CURVE('',#496,#532,#626,.T.);
#397=EDGE_CURVE('',#532,#531,#627,.F.);
#398=EDGE_CURVE('',#495,#533,#628,.T.);
#399=EDGE_CURVE('',#533,#532,#629,.F.);
#400=EDGE_CURVE('',#494,#534,#630,.T.);
#401=EDGE_CURVE('',#534,#533,#631,.F.);
#402=EDGE_CURVE('',#493,#535,#632,.T.);
#403=EDGE_CURVE('',#535,#534,#633,.F.);
#404=EDGE_CURVE('',#492,#536,#634,.T.);
#405=EDGE_CURVE('',#536,#535,#635,.F.);
#406=EDGE_CURVE('',#491,#537,#636,.T.);
#407=EDGE_CURVE('',#537,#536,#637,.F.);
#408=EDGE_CURVE('',#490,#538,#638,.T.);
#409=EDGE_CURVE('',#538,#537,#639,.F.);
#410=EDGE_CURVE('',#489,#539,#640,.T.);
#411=EDGE_CURVE('',#539,#538,#641,.F.);
#412=EDGE_CURVE('',#488,#540,#642,.T.);
#413=EDGE_CURVE('',#540,#539,#643,.F.);
#414=EDGE_CURVE('',#487,#541,#644,.T.);
#415=EDGE_CURVE('',#541,#540,#645,.F.);
#416=EDGE_CURVE('',#486,#542,#646,.T.);
#417=EDGE_CURVE('',#542,#541,#647,.F.);
#418=EDGE_CURVE('',#477,#542,#648,.F.);
#419=EDGE_CURVE('',#543,#544,#649,.T.);
#420=EDGE_CURVE('',#544,#503,#650,.F.);
#421=EDGE_CURVE('',#476,#478,#651,.T.);
#422=EDGE_CURVE('',#485,#543,#652,.T.);
#423=EDGE_CURVE('',#504,#545,#653,.T.);
#424=EDGE_CURVE('',#546,#545,#654,.T.);
#425=EDGE_CURVE('',#505,#546,#655,.T.);
#426=EDGE_CURVE('',#546,#547,#656,.T.);
#427=EDGE_CURVE('',#547,#506,#657,.F.);
#428=EDGE_CURVE('',#507,#548,#658,.T.);
#429=EDGE_CURVE('',#549,#548,#659,.T.);
#430=EDGE_CURVE('',#508,#549,#660,.T.);
#431=EDGE_CURVE('',#550,#549,#661,.T.);
#432=EDGE_CURVE('',#550,#509,#662,.F.);
#433=EDGE_CURVE('',#510,#551,#663,.T.);
#434=EDGE_CURVE('',#552,#551,#664,.T.);
#435=EDGE_CURVE('',#552,#511,#665,.F.);
#436=EDGE_CURVE('',#512,#553,#666,.T.);
#437=EDGE_CURVE('',#554,#553,#667,.T.);
#438=EDGE_CURVE('',#513,#554,#668,.T.);
#439=EDGE_CURVE('',#555,#554,#669,.T.);
#440=EDGE_CURVE('',#555,#514,#670,.F.);
#441=EDGE_CURVE('',#515,#556,#671,.T.);
#442=EDGE_CURVE('',#557,#556,#672,.T.);
#443=EDGE_CURVE('',#516,#557,#673,.T.);
#444=EDGE_CURVE('',#558,#557,#674,.T.);
#445=EDGE_CURVE('',#558,#517,#675,.F.);
#446=EDGE_CURVE('',#518,#559,#676,.T.);
#447=EDGE_CURVE('',#560,#559,#677,.T.);
#448=EDGE_CURVE('',#519,#560,#678,.T.);
#449=EDGE_CURVE('',#561,#560,#679,.T.);
#450=EDGE_CURVE('',#561,#520,#680,.F.);
#451=EDGE_CURVE('',#521,#562,#681,.T.);
#452=EDGE_CURVE('',#563,#562,#682,.T.);
#453=EDGE_CURVE('',#563,#522,#683,.F.);
#454=EDGE_CURVE('',#523,#564,#684,.T.);
#455=EDGE_CURVE('',#565,#564,#685,.T.);
#456=EDGE_CURVE('',#524,#565,#686,.T.);
#457=EDGE_CURVE('',#566,#565,#687,.T.);
#458=EDGE_CURVE('',#566,#525,#688,.F.);
#459=EDGE_CURVE('',#567,#568,#689,.T.);
#460=EDGE_CURVE('',#567,#483,#690,.F.);
#461=EDGE_CURVE('',#482,#568,#691,.T.);
#462=EDGE_CURVE('',#484,#569,#692,.T.);
#463=EDGE_CURVE('',#543,#569,#693,.T.);
#464=EDGE_CURVE('',#569,#567,#32,.F.);
#465=EDGE_CURVE('',#568,#566,#33,.F.);
#466=EDGE_CURVE('',#564,#563,#34,.F.);
#467=EDGE_CURVE('',#562,#561,#35,.F.);
#468=EDGE_CURVE('',#559,#558,#36,.F.);
#469=EDGE_CURVE('',#556,#555,#37,.F.);
#470=EDGE_CURVE('',#553,#552,#38,.F.);
#471=EDGE_CURVE('',#551,#550,#39,.F.);
#472=EDGE_CURVE('',#548,#547,#40,.F.);
#473=EDGE_CURVE('',#545,#544,#41,.F.);
#474=VERTEX_POINT('',#1360);
#475=VERTEX_POINT('',#1361);
#476=VERTEX_POINT('',#1363);
#477=VERTEX_POINT('',#1365);
#478=VERTEX_POINT('',#1369);
#479=VERTEX_POINT('',#1370);
#480=VERTEX_POINT('',#1372);
#481=VERTEX_POINT('',#1374);
#482=VERTEX_POINT('',#1378);
#483=VERTEX_POINT('',#1379);
#484=VERTEX_POINT('',#1381);
#485=VERTEX_POINT('',#1383);
#486=VERTEX_POINT('',#1386);
#487=VERTEX_POINT('',#1388);
#488=VERTEX_POINT('',#1390);
#489=VERTEX_POINT('',#1392);
#490=VERTEX_POINT('',#1394);
#491=VERTEX_POINT('',#1396);
#492=VERTEX_POINT('',#1398);
#493=VERTEX_POINT('',#1400);
#494=VERTEX_POINT('',#1402);
#495=VERTEX_POINT('',#1404);
#496=VERTEX_POINT('',#1406);
#497=VERTEX_POINT('',#1408);
#498=VERTEX_POINT('',#1410);
#499=VERTEX_POINT('',#1412);
#500=VERTEX_POINT('',#1414);
#501=VERTEX_POINT('',#1416);
#502=VERTEX_POINT('',#1418);
#503=VERTEX_POINT('',#1421);
#504=VERTEX_POINT('',#1423);
#505=VERTEX_POINT('',#1425);
#506=VERTEX_POINT('',#1427);
#507=VERTEX_POINT('',#1429);
#508=VERTEX_POINT('',#1431);
#509=VERTEX_POINT('',#1433);
#510=VERTEX_POINT('',#1435);
#511=VERTEX_POINT('',#1437);
#512=VERTEX_POINT('',#1439);
#513=VERTEX_POINT('',#1441);
#514=VERTEX_POINT('',#1443);
#515=VERTEX_POINT('',#1445);
#516=VERTEX_POINT('',#1447);
#517=VERTEX_POINT('',#1449);
#518=VERTEX_POINT('',#1451);
#519=VERTEX_POINT('',#1453);
#520=VERTEX_POINT('',#1455);
#521=VERTEX_POINT('',#1457);
#522=VERTEX_POINT('',#1459);
#523=VERTEX_POINT('',#1461);
#524=VERTEX_POINT('',#1463);
#525=VERTEX_POINT('',#1465);
#526=VERTEX_POINT('',#1469);
#527=VERTEX_POINT('',#1473);
#528=VERTEX_POINT('',#1477);
#529=VERTEX_POINT('',#1481);
#530=VERTEX_POINT('',#1485);
#531=VERTEX_POINT('',#1489);
#532=VERTEX_POINT('',#1493);
#533=VERTEX_POINT('',#1497);
#534=VERTEX_POINT('',#1501);
#535=VERTEX_POINT('',#1505);
#536=VERTEX_POINT('',#1509);
#537=VERTEX_POINT('',#1513);
#538=VERTEX_POINT('',#1517);
#539=VERTEX_POINT('',#1521);
#540=VERTEX_POINT('',#1525);
#541=VERTEX_POINT('',#1529);
#542=VERTEX_POINT('',#1533);
#543=VERTEX_POINT('',#1539);
#544=VERTEX_POINT('',#1540);
#545=VERTEX_POINT('',#1546);
#546=VERTEX_POINT('',#1548);
#547=VERTEX_POINT('',#1552);
#548=VERTEX_POINT('',#1556);
#549=VERTEX_POINT('',#1558);
#550=VERTEX_POINT('',#1562);
#551=VERTEX_POINT('',#1566);
#552=VERTEX_POINT('',#1568);
#553=VERTEX_POINT('',#1572);
#554=VERTEX_POINT('',#1574);
#555=VERTEX_POINT('',#1578);
#556=VERTEX_POINT('',#1582);
#557=VERTEX_POINT('',#1584);
#558=VERTEX_POINT('',#1588);
#559=VERTEX_POINT('',#1592);
#560=VERTEX_POINT('',#1594);
#561=VERTEX_POINT('',#1598);
#562=VERTEX_POINT('',#1602);
#563=VERTEX_POINT('',#1604);
#564=VERTEX_POINT('',#1608);
#565=VERTEX_POINT('',#1610);
#566=VERTEX_POINT('',#1614);
#567=VERTEX_POINT('',#1618);
#568=VERTEX_POINT('',#1619);
#569=VERTEX_POINT('',#1624);
#570=LINE('',#1359,#694);
#571=LINE('',#1362,#695);
#572=LINE('',#1364,#696);
#573=LINE('',#1366,#697);
#574=LINE('',#1368,#698);
#575=LINE('',#1371,#699);
#576=LINE('',#1373,#700);
#577=LINE('',#1375,#701);
#578=LINE('',#1377,#702);
#579=LINE('',#1382,#703);
#580=LINE('',#1384,#704);
#581=LINE('',#1385,#705);
#582=LINE('',#1387,#706);
#583=LINE('',#1389,#707);
#584=LINE('',#1391,#708);
#585=LINE('',#1393,#709);
#586=LINE('',#1395,#710);
#587=LINE('',#1397,#711);
#588=LINE('',#1399,#712);
#589=LINE('',#1401,#713);
#590=LINE('',#1403,#714);
#591=LINE('',#1405,#715);
#592=LINE('',#1407,#716);
#593=LINE('',#1409,#717);
#594=LINE('',#1411,#718);
#595=LINE('',#1413,#719);
#596=LINE('',#1415,#720);
#597=LINE('',#1417,#721);
#598=LINE('',#1419,#722);
#599=LINE('',#1420,#723);
#600=LINE('',#1424,#724);
#601=LINE('',#1426,#725);
#602=LINE('',#1430,#726);
#603=LINE('',#1432,#727);
#604=LINE('',#1436,#728);
#605=LINE('',#1440,#729);
#606=LINE('',#1442,#730);
#607=LINE('',#1446,#731);
#608=LINE('',#1448,#732);
#609=LINE('',#1452,#733);
#610=LINE('',#1454,#734);
#611=LINE('',#1458,#735);
#612=LINE('',#1462,#736);
#613=LINE('',#1464,#737);
#614=LINE('',#1468,#738);
#615=LINE('',#1470,#739);
#616=LINE('',#1472,#740);
#617=LINE('',#1474,#741);
#618=LINE('',#1476,#742);
#619=LINE('',#1478,#743);
#620=LINE('',#1480,#744);
#621=LINE('',#1482,#745);
#622=LINE('',#1484,#746);
#623=LINE('',#1486,#747);
#624=LINE('',#1488,#748);
#625=LINE('',#1490,#749);
#626=LINE('',#1492,#750);
#627=LINE('',#1494,#751);
#628=LINE('',#1496,#752);
#629=LINE('',#1498,#753);
#630=LINE('',#1500,#754);
#631=LINE('',#1502,#755);
#632=LINE('',#1504,#756);
#633=LINE('',#1506,#757);
#634=LINE('',#1508,#758);
#635=LINE('',#1510,#759);
#636=LINE('',#1512,#760);
#637=LINE('',#1514,#761);
#638=LINE('',#1516,#762);
#639=LINE('',#1518,#763);
#640=LINE('',#1520,#764);
#641=LINE('',#1522,#765);
#642=LINE('',#1524,#766);
#643=LINE('',#1526,#767);
#644=LINE('',#1528,#768);
#645=LINE('',#1530,#769);
#646=LINE('',#1532,#770);
#647=LINE('',#1534,#771);
#648=LINE('',#1536,#772);
#649=LINE('',#1538,#773);
#650=LINE('',#1541,#774);
#651=LINE('',#1542,#775);
#652=LINE('',#1543,#776);
#653=LINE('',#1545,#777);
#654=LINE('',#1547,#778);
#655=LINE('',#1549,#779);
#656=LINE('',#1551,#780);
#657=LINE('',#1553,#781);
#658=LINE('',#1555,#782);
#659=LINE('',#1557,#783);
#660=LINE('',#1559,#784);
#661=LINE('',#1561,#785);
#662=LINE('',#1563,#786);
#663=LINE('',#1565,#787);
#664=LINE('',#1567,#788);
#665=LINE('',#1569,#789);
#666=LINE('',#1571,#790);
#667=LINE('',#1573,#791);
#668=LINE('',#1575,#792);
#669=LINE('',#1577,#793);
#670=LINE('',#1579,#794);
#671=LINE('',#1581,#795);
#672=LINE('',#1583,#796);
#673=LINE('',#1585,#797);
#674=LINE('',#1587,#798);
#675=LINE('',#1589,#799);
#676=LINE('',#1591,#800);
#677=LINE('',#1593,#801);
#678=LINE('',#1595,#802);
#679=LINE('',#1597,#803);
#680=LINE('',#1599,#804);
#681=LINE('',#1601,#805);
#682=LINE('',#1603,#806);
#683=LINE('',#1605,#807);
#684=LINE('',#1607,#808);
#685=LINE('',#1609,#809);
#686=LINE('',#1611,#810);
#687=LINE('',#1613,#811);
#688=LINE('',#1615,#812);
#689=LINE('',#1617,#813);
#690=LINE('',#1620,#814);
#691=LINE('',#1621,#815);
#692=LINE('',#1623,#816);
#693=LINE('',#1625,#817);
#694=VECTOR('',#1095,1.);
#695=VECTOR('',#1096,1.);
#696=VECTOR('',#1097,1.);
#697=VECTOR('',#1098,1.);
#698=VECTOR('',#1101,1.);
#699=VECTOR('',#1102,1.);
#700=VECTOR('',#1103,1.);
#701=VECTOR('',#1104,1.);
#702=VECTOR('',#1107,1.);
#703=VECTOR('',#1110,1.);
#704=VECTOR('',#1111,1.);
#705=VECTOR('',#1112,1.);
#706=VECTOR('',#1113,1.);
#707=VECTOR('',#1114,1.);
#708=VECTOR('',#1115,1.);
#709=VECTOR('',#1116,1.);
#710=VECTOR('',#1117,1.);
#711=VECTOR('',#1118,1.);
#712=VECTOR('',#1119,1.);
#713=VECTOR('',#1120,1.);
#714=VECTOR('',#1121,1.);
#715=VECTOR('',#1122,1.);
#716=VECTOR('',#1123,1.);
#717=VECTOR('',#1124,1.);
#718=VECTOR('',#1125,1.);
#719=VECTOR('',#1126,1.);
#720=VECTOR('',#1127,1.);
#721=VECTOR('',#1128,1.);
#722=VECTOR('',#1129,1.);
#723=VECTOR('',#1130,1.);
#724=VECTOR('',#1133,1.);
#725=VECTOR('',#1134,1.);
#726=VECTOR('',#1137,1.);
#727=VECTOR('',#1138,1.);
#728=VECTOR('',#1141,1.);
#729=VECTOR('',#1144,1.);
#730=VECTOR('',#1145,1.);
#731=VECTOR('',#1148,1.);
#732=VECTOR('',#1149,1.);
#733=VECTOR('',#1152,1.);
#734=VECTOR('',#1153,1.);
#735=VECTOR('',#1156,1.);
#736=VECTOR('',#1159,1.);
#737=VECTOR('',#1160,1.);
#738=VECTOR('',#1165,1.);
#739=VECTOR('',#1166,1.);
#740=VECTOR('',#1169,1.);
#741=VECTOR('',#1170,1.);
#742=VECTOR('',#1173,1.);
#743=VECTOR('',#1174,1.);
#744=VECTOR('',#1177,1.);
#745=VECTOR('',#1178,1.);
#746=VECTOR('',#1181,1.);
#747=VECTOR('',#1182,1.);
#748=VECTOR('',#1185,1.);
#749=VECTOR('',#1186,1.);
#750=VECTOR('',#1189,1.);
#751=VECTOR('',#1190,1.);
#752=VECTOR('',#1193,1.);
#753=VECTOR('',#1194,1.);
#754=VECTOR('',#1197,1.);
#755=VECTOR('',#1198,1.);
#756=VECTOR('',#1201,1.);
#757=VECTOR('',#1202,1.);
#758=VECTOR('',#1205,1.);
#759=VECTOR('',#1206,1.);
#760=VECTOR('',#1209,1.);
#761=VECTOR('',#1210,1.);
#762=VECTOR('',#1213,1.);
#763=VECTOR('',#1214,1.);
#764=VECTOR('',#1217,1.);
#765=VECTOR('',#1218,1.);
#766=VECTOR('',#1221,1.);
#767=VECTOR('',#1222,1.);
#768=VECTOR('',#1225,1.);
#769=VECTOR('',#1226,1.);
#770=VECTOR('',#1229,1.);
#771=VECTOR('',#1230,1.);
#772=VECTOR('',#1233,1.);
#773=VECTOR('',#1236,1.);
#774=VECTOR('',#1237,1.);
#775=VECTOR('',#1238,1.);
#776=VECTOR('',#1239,1.);
#777=VECTOR('',#1242,1.);
#778=VECTOR('',#1243,1.);
#779=VECTOR('',#1244,1.);
#780=VECTOR('',#1247,1.);
#781=VECTOR('',#1248,1.);
#782=VECTOR('',#1251,1.);
#783=VECTOR('',#1252,1.);
#784=VECTOR('',#1253,1.);
#785=VECTOR('',#1256,1.);
#786=VECTOR('',#1257,1.);
#787=VECTOR('',#1260,1.);
#788=VECTOR('',#1261,1.);
#789=VECTOR('',#1262,1.);
#790=VECTOR('',#1265,1.);
#791=VECTOR('',#1266,1.);
#792=VECTOR('',#1267,1.);
#793=VECTOR('',#1270,1.);
#794=VECTOR('',#1271,1.);
#795=VECTOR('',#1274,1.);
#796=VECTOR('',#1275,1.);
#797=VECTOR('',#1276,1.);
#798=VECTOR('',#1279,1.);
#799=VECTOR('',#1280,1.);
#800=VECTOR('',#1283,1.);
#801=VECTOR('',#1284,1.);
#802=VECTOR('',#1285,1.);
#803=VECTOR('',#1288,1.);
#804=VECTOR('',#1289,1.);
#805=VECTOR('',#1292,1.);
#806=VECTOR('',#1293,1.);
#807=VECTOR('',#1294,1.);
#808=VECTOR('',#1297,1.);
#809=VECTOR('',#1298,1.);
#810=VECTOR('',#1299,1.);
#811=VECTOR('',#1302,1.);
#812=VECTOR('',#1303,1.);
#813=VECTOR('',#1306,1.);
#814=VECTOR('',#1307,1.);
#815=VECTOR('',#1308,1.);
#816=VECTOR('',#1311,1.);
#817=VECTOR('',#1312,1.);
#818=EDGE_LOOP('',(#42,#43,#44,#45));
#819=EDGE_LOOP('',(#46,#47,#48,#49));
#820=EDGE_LOOP('',(#50,#51,#52,#53,#54,#55,#56,#57,#58,#59,#60,#61,#62,
#63,#64,#65,#66,#67,#68,#69,#70,#71,#72,#73,#74,#75,#76,#77,#78,#79,#80,
#81,#82,#83,#84,#85,#86,#87,#88,#89,#90,#91,#92,#93,#94,#95,#96,#97));
#821=EDGE_LOOP('',(#98,#99,#100,#101));
#822=EDGE_LOOP('',(#102,#103,#104,#105));
#823=EDGE_LOOP('',(#106,#107,#108,#109));
#824=EDGE_LOOP('',(#110,#111,#112,#113));
#825=EDGE_LOOP('',(#114,#115,#116,#117));
#826=EDGE_LOOP('',(#118,#119,#120,#121));
#827=EDGE_LOOP('',(#122,#123,#124,#125));
#828=EDGE_LOOP('',(#126,#127,#128,#129));
#829=EDGE_LOOP('',(#130,#131,#132,#133));
#830=EDGE_LOOP('',(#134,#135,#136,#137));
#831=EDGE_LOOP('',(#138,#139,#140,#141));
#832=EDGE_LOOP('',(#142,#143,#144,#145));
#833=EDGE_LOOP('',(#146,#147,#148,#149));
#834=EDGE_LOOP('',(#150,#151,#152,#153));
#835=EDGE_LOOP('',(#154,#155,#156,#157));
#836=EDGE_LOOP('',(#158,#159,#160,#161));
#837=EDGE_LOOP('',(#162,#163,#164,#165));
#838=EDGE_LOOP('',(#166,#167,#168,#169));
#839=EDGE_LOOP('',(#170,#171,#172,#173,#174,#175,#176,#177));
#840=EDGE_LOOP('',(#178,#179,#180,#181));
#841=EDGE_LOOP('',(#182,#183,#184,#185));
#842=EDGE_LOOP('',(#186,#187,#188,#189));
#843=EDGE_LOOP('',(#190,#191,#192,#193));
#844=EDGE_LOOP('',(#194,#195,#196,#197));
#845=EDGE_LOOP('',(#198,#199,#200,#201));
#846=EDGE_LOOP('',(#202,#203,#204,#205));
#847=EDGE_LOOP('',(#206,#207,#208,#209));
#848=EDGE_LOOP('',(#210,#211,#212,#213));
#849=EDGE_LOOP('',(#214,#215,#216,#217));
#850=EDGE_LOOP('',(#218,#219,#220,#221));
#851=EDGE_LOOP('',(#222,#223,#224,#225));
#852=EDGE_LOOP('',(#226,#227,#228,#229));
#853=EDGE_LOOP('',(#230,#231,#232,#233));
#854=EDGE_LOOP('',(#234,#235,#236,#237));
#855=EDGE_LOOP('',(#238,#239,#240,#241));
#856=EDGE_LOOP('',(#242,#243,#244,#245,#246,#247,#248,#249,#250,#251,#252,
#253,#254,#255,#256,#257,#258,#259,#260,#261,#262));
#857=EDGE_LOOP('',(#263,#264,#265,#266,#267,#268,#269,#270,#271,#272,#273,
#274,#275,#276,#277,#278,#279,#280,#281,#282,#283,#284,#285,#286,#287,#288,
#289));
#858=EDGE_LOOP('',(#290,#291,#292,#293));
#859=EDGE_LOOP('',(#294,#295,#296,#297));
#860=EDGE_LOOP('',(#298,#299,#300,#301));
#861=EDGE_LOOP('',(#302,#303,#304,#305));
#862=EDGE_LOOP('',(#306,#307,#308,#309));
#863=EDGE_LOOP('',(#310,#311,#312,#313));
#864=EDGE_LOOP('',(#314,#315,#316,#317));
#865=EDGE_LOOP('',(#318,#319,#320,#321));
#866=EDGE_LOOP('',(#322,#323,#324,#325));
#867=EDGE_LOOP('',(#326,#327,#328,#329));
#868=FACE_BOUND('',#818,.T.);
#869=FACE_BOUND('',#819,.T.);
#870=FACE_BOUND('',#820,.T.);
#871=FACE_BOUND('',#821,.T.);
#872=FACE_BOUND('',#822,.T.);
#873=FACE_BOUND('',#823,.T.);
#874=FACE_BOUND('',#824,.T.);
#875=FACE_BOUND('',#825,.T.);
#876=FACE_BOUND('',#826,.T.);
#877=FACE_BOUND('',#827,.T.);
#878=FACE_BOUND('',#828,.T.);
#879=FACE_BOUND('',#829,.T.);
#880=FACE_BOUND('',#830,.T.);
#881=FACE_BOUND('',#831,.T.);
#882=FACE_BOUND('',#832,.T.);
#883=FACE_BOUND('',#833,.T.);
#884=FACE_BOUND('',#834,.T.);
#885=FACE_BOUND('',#835,.T.);
#886=FACE_BOUND('',#836,.T.);
#887=FACE_BOUND('',#837,.T.);
#888=FACE_BOUND('',#838,.T.);
#889=FACE_BOUND('',#839,.T.);
#890=FACE_BOUND('',#840,.T.);
#891=FACE_BOUND('',#841,.T.);
#892=FACE_BOUND('',#842,.T.);
#893=FACE_BOUND('',#843,.T.);
#894=FACE_BOUND('',#844,.T.);
#895=FACE_BOUND('',#845,.T.);
#896=FACE_BOUND('',#846,.T.);
#897=FACE_BOUND('',#847,.T.);
#898=FACE_BOUND('',#848,.T.);
#899=FACE_BOUND('',#849,.T.);
#900=FACE_BOUND('',#850,.T.);
#901=FACE_BOUND('',#851,.T.);
#902=FACE_BOUND('',#852,.T.);
#903=FACE_BOUND('',#853,.T.);
#904=FACE_BOUND('',#854,.T.);
#905=FACE_BOUND('',#855,.T.);
#906=FACE_BOUND('',#856,.T.);
#907=FACE_BOUND('',#857,.T.);
#908=FACE_BOUND('',#858,.T.);
#909=FACE_BOUND('',#859,.T.);
#910=FACE_BOUND('',#860,.T.);
#911=FACE_BOUND('',#861,.T.);
#912=FACE_BOUND('',#862,.T.);
#913=FACE_BOUND('',#863,.T.);
#914=FACE_BOUND('',#864,.T.);
#915=FACE_BOUND('',#865,.T.);
#916=FACE_BOUND('',#866,.T.);
#917=FACE_BOUND('',#867,.T.);
#918=PLANE('',#1021);
#919=PLANE('',#1022);
#920=PLANE('',#1023);
#921=PLANE('',#1034);
#922=PLANE('',#1035);
#923=PLANE('',#1036);
#924=PLANE('',#1037);
#925=PLANE('',#1038);
#926=PLANE('',#1039);
#927=PLANE('',#1040);
#928=PLANE('',#1041);
#929=PLANE('',#1042);
#930=PLANE('',#1043);
#931=PLANE('',#1044);
#932=PLANE('',#1045);
#933=PLANE('',#1046);
#934=PLANE('',#1047);
#935=PLANE('',#1048);
#936=PLANE('',#1049);
#937=PLANE('',#1050);
#938=PLANE('',#1051);
#939=PLANE('',#1052);
#940=PLANE('',#1053);
#941=PLANE('',#1054);
#942=PLANE('',#1055);
#943=PLANE('',#1056);
#944=PLANE('',#1057);
#945=PLANE('',#1058);
#946=PLANE('',#1059);
#947=PLANE('',#1060);
#948=PLANE('',#1061);
#949=PLANE('',#1062);
#950=PLANE('',#1063);
#951=PLANE('',#1064);
#952=PLANE('',#1065);
#953=PLANE('',#1066);
#954=PLANE('',#1067);
#955=PLANE('',#1068);
#956=PLANE('',#1069);
#957=PLANE('',#1070);
#958=ADVANCED_FACE('',(#868),#918,.T.);
#959=ADVANCED_FACE('',(#869),#919,.T.);
#960=ADVANCED_FACE('',(#870),#920,.T.);
#961=ADVANCED_FACE('',(#871),#921,.T.);
#962=ADVANCED_FACE('',(#872),#922,.T.);
#963=ADVANCED_FACE('',(#873),#923,.T.);
#964=ADVANCED_FACE('',(#874),#924,.T.);
#965=ADVANCED_FACE('',(#875),#925,.T.);
#966=ADVANCED_FACE('',(#876),#926,.T.);
#967=ADVANCED_FACE('',(#877),#927,.T.);
#968=ADVANCED_FACE('',(#878),#928,.T.);
#969=ADVANCED_FACE('',(#879),#929,.T.);
#970=ADVANCED_FACE('',(#880),#930,.T.);
#971=ADVANCED_FACE('',(#881),#931,.T.);
#972=ADVANCED_FACE('',(#882),#932,.T.);
#973=ADVANCED_FACE('',(#883),#933,.T.);
#974=ADVANCED_FACE('',(#884),#934,.T.);
#975=ADVANCED_FACE('',(#885),#935,.T.);
#976=ADVANCED_FACE('',(#886),#936,.T.);
#977=ADVANCED_FACE('',(#887),#937,.T.);
#978=ADVANCED_FACE('',(#888),#938,.T.);
#979=ADVANCED_FACE('',(#889),#939,.F.);
#980=ADVANCED_FACE('',(#890),#940,.F.);
#981=ADVANCED_FACE('',(#891),#941,.F.);
#982=ADVANCED_FACE('',(#892),#942,.F.);
#983=ADVANCED_FACE('',(#893),#943,.F.);
#984=ADVANCED_FACE('',(#894),#944,.F.);
#985=ADVANCED_FACE('',(#895),#945,.F.);
#986=ADVANCED_FACE('',(#896),#946,.F.);
#987=ADVANCED_FACE('',(#897),#947,.F.);
#988=ADVANCED_FACE('',(#898),#948,.F.);
#989=ADVANCED_FACE('',(#899),#949,.F.);
#990=ADVANCED_FACE('',(#900),#950,.F.);
#991=ADVANCED_FACE('',(#901),#951,.F.);
#992=ADVANCED_FACE('',(#902),#952,.F.);
#993=ADVANCED_FACE('',(#903),#953,.F.);
#994=ADVANCED_FACE('',(#904),#954,.F.);
#995=ADVANCED_FACE('',(#905),#955,.F.);
#996=ADVANCED_FACE('',(#906),#956,.T.);
#997=ADVANCED_FACE('',(#907),#957,.F.);
#998=ADVANCED_FACE('',(#908),#12,.T.);
#999=ADVANCED_FACE('',(#909),#13,.T.);
#1000=ADVANCED_FACE('',(#910),#14,.T.);
#1001=ADVANCED_FACE('',(#911),#15,.T.);
#1002=ADVANCED_FACE('',(#912),#16,.T.);
#1003=ADVANCED_FACE('',(#913),#17,.T.);
#1004=ADVANCED_FACE('',(#914),#18,.T.);
#1005=ADVANCED_FACE('',(#915),#19,.T.);
#1006=ADVANCED_FACE('',(#916),#20,.T.);
#1007=ADVANCED_FACE('',(#917),#21,.T.);
#1008=CLOSED_SHELL('',(#958,#959,#960,#961,#962,#963,#964,#965,#966,#967,
#968,#969,#970,#971,#972,#973,#974,#975,#976,#977,#978,#979,#980,#981,#982,
#983,#984,#985,#986,#987,#988,#989,#990,#991,#992,#993,#994,#995,#996,#997,
#998,#999,#1000,#1001,#1002,#1003,#1004,#1005,#1006,#1007));
#1009=STYLED_ITEM('',(#1010),#1017);
#1010=PRESENTATION_STYLE_ASSIGNMENT((#1011));
#1011=SURFACE_STYLE_USAGE(.BOTH.,#1012);
#1012=SURFACE_SIDE_STYLE('',(#1013));
#1013=SURFACE_STYLE_FILL_AREA(#1014);
#1014=FILL_AREA_STYLE('',(#1015));
#1015=FILL_AREA_STYLE_COLOUR('',#1016);
#1016=COLOUR_RGB('',0.231372549019608,0.380392156862745,0.705882352941177);
#1017=MANIFOLD_SOLID_BREP('Part 2',#1008);
#1018=SHAPE_DEFINITION_REPRESENTATION(#1654,#1019);
#1019=SHAPE_REPRESENTATION('Part 2',(#1020),#1649);
#1020=AXIS2_PLACEMENT_3D('',#1357,#1091,#1092);
#1021=AXIS2_PLACEMENT_3D('',#1358,#1093,#1094);
#1022=AXIS2_PLACEMENT_3D('',#1367,#1099,#1100);
#1023=AXIS2_PLACEMENT_3D('',#1376,#1105,#1106);
#1024=AXIS2_PLACEMENT_3D('',#1380,#1108,#1109);
#1025=AXIS2_PLACEMENT_3D('',#1422,#1131,#1132);
#1026=AXIS2_PLACEMENT_3D('',#1428,#1135,#1136);
#1027=AXIS2_PLACEMENT_3D('',#1434,#1139,#1140);
#1028=AXIS2_PLACEMENT_3D('',#1438,#1142,#1143);
#1029=AXIS2_PLACEMENT_3D('',#1444,#1146,#1147);
#1030=AXIS2_PLACEMENT_3D('',#1450,#1150,#1151);
#1031=AXIS2_PLACEMENT_3D('',#1456,#1154,#1155);
#1032=AXIS2_PLACEMENT_3D('',#1460,#1157,#1158);
#1033=AXIS2_PLACEMENT_3D('',#1466,#1161,#1162);
#1034=AXIS2_PLACEMENT_3D('',#1467,#1163,#1164);
#1035=AXIS2_PLACEMENT_3D('',#1471,#1167,#1168);
#1036=AXIS2_PLACEMENT_3D('',#1475,#1171,#1172);
#1037=AXIS2_PLACEMENT_3D('',#1479,#1175,#1176);
#1038=AXIS2_PLACEMENT_3D('',#1483,#1179,#1180);
#1039=AXIS2_PLACEMENT_3D('',#1487,#1183,#1184);
#1040=AXIS2_PLACEMENT_3D('',#1491,#1187,#1188);
#1041=AXIS2_PLACEMENT_3D('',#1495,#1191,#1192);
#1042=AXIS2_PLACEMENT_3D('',#1499,#1195,#1196);
#1043=AXIS2_PLACEMENT_3D('',#1503,#1199,#1200);
#1044=AXIS2_PLACEMENT_3D('',#1507,#1203,#1204);
#1045=AXIS2_PLACEMENT_3D('',#1511,#1207,#1208);
#1046=AXIS2_PLACEMENT_3D('',#1515,#1211,#1212);
#1047=AXIS2_PLACEMENT_3D('',#1519,#1215,#1216);
#1048=AXIS2_PLACEMENT_3D('',#1523,#1219,#1220);
#1049=AXIS2_PLACEMENT_3D('',#1527,#1223,#1224);
#1050=AXIS2_PLACEMENT_3D('',#1531,#1227,#1228);
#1051=AXIS2_PLACEMENT_3D('',#1535,#1231,#1232);
#1052=AXIS2_PLACEMENT_3D('',#1537,#1234,#1235);
#1053=AXIS2_PLACEMENT_3D('',#1544,#1240,#1241);
#1054=AXIS2_PLACEMENT_3D('',#1550,#1245,#1246);
#1055=AXIS2_PLACEMENT_3D('',#1554,#1249,#1250);
#1056=AXIS2_PLACEMENT_3D('',#1560,#1254,#1255);
#1057=AXIS2_PLACEMENT_3D('',#1564,#1258,#1259);
#1058=AXIS2_PLACEMENT_3D('',#1570,#1263,#1264);
#1059=AXIS2_PLACEMENT_3D('',#1576,#1268,#1269);
#1060=AXIS2_PLACEMENT_3D('',#1580,#1272,#1273);
#1061=AXIS2_PLACEMENT_3D('',#1586,#1277,#1278);
#1062=AXIS2_PLACEMENT_3D('',#1590,#1281,#1282);
#1063=AXIS2_PLACEMENT_3D('',#1596,#1286,#1287);
#1064=AXIS2_PLACEMENT_3D('',#1600,#1290,#1291);
#1065=AXIS2_PLACEMENT_3D('',#1606,#1295,#1296);
#1066=AXIS2_PLACEMENT_3D('',#1612,#1300,#1301);
#1067=AXIS2_PLACEMENT_3D('',#1616,#1304,#1305);
#1068=AXIS2_PLACEMENT_3D('',#1622,#1309,#1310);
#1069=AXIS2_PLACEMENT_3D('',#1626,#1313,#1314);
#1070=AXIS2_PLACEMENT_3D('',#1627,#1315,#1316);
#1071=AXIS2_PLACEMENT_3D('',#1628,#1317,#1318);
#1072=AXIS2_PLACEMENT_3D('',#1629,#1319,#1320);
#1073=AXIS2_PLACEMENT_3D('',#1630,#1321,#1322);
#1074=AXIS2_PLACEMENT_3D('',#1631,#1323,#1324);
#1075=AXIS2_PLACEMENT_3D('',#1632,#1325,#1326);
#1076=AXIS2_PLACEMENT_3D('',#1633,#1327,#1328);
#1077=AXIS2_PLACEMENT_3D('',#1634,#1329,#1330);
#1078=AXIS2_PLACEMENT_3D('',#1635,#1331,#1332);
#1079=AXIS2_PLACEMENT_3D('',#1636,#1333,#1334);
#1080=AXIS2_PLACEMENT_3D('',#1637,#1335,#1336);
#1081=AXIS2_PLACEMENT_3D('',#1638,#1337,#1338);
#1082=AXIS2_PLACEMENT_3D('',#1639,#1339,#1340);
#1083=AXIS2_PLACEMENT_3D('',#1640,#1341,#1342);
#1084=AXIS2_PLACEMENT_3D('',#1641,#1343,#1344);
#1085=AXIS2_PLACEMENT_3D('',#1642,#1345,#1346);
#1086=AXIS2_PLACEMENT_3D('',#1643,#1347,#1348);
#1087=AXIS2_PLACEMENT_3D('',#1644,#1349,#1350);
#1088=AXIS2_PLACEMENT_3D('',#1645,#1351,#1352);
#1089=AXIS2_PLACEMENT_3D('',#1646,#1353,#1354);
#1090=AXIS2_PLACEMENT_3D('',#1647,#1355,#1356);
#1091=DIRECTION('',(0.,0.,1.));
#1092=DIRECTION('',(1.,0.,0.));
#1093=DIRECTION('',(-1.02633514499799E-7,1.,2.47817639425257E-16));
#1094=DIRECTION('',(0.,2.47817639425258E-16,-1.));
#1095=DIRECTION('',(-1.,-1.02633514499799E-7,0.));
#1096=DIRECTION('',(0.,2.47817639425258E-16,-1.));
#1097=DIRECTION('',(-1.,-1.02633514499799E-7,0.));
#1098=DIRECTION('',(0.,0.,-1.));
#1099=DIRECTION('',(1.02633516722156E-7,-1.,0.));
#1100=DIRECTION('',(0.,0.,1.));
#1101=DIRECTION('',(-1.,-1.02633516722156E-7,0.));
#1102=DIRECTION('',(0.,0.,1.));
#1103=DIRECTION('',(-1.,-1.02633516722156E-7,0.));
#1104=DIRECTION('',(0.,0.,-1.));
#1105=DIRECTION('',(1.01737582610582E-22,-9.91270557701022E-16,1.));
#1106=DIRECTION('',(-1.,-1.02633515966149E-7,0.));
#1107=DIRECTION('',(0.343956143949537,0.938985713969795,0.));
#1108=DIRECTION('',(1.01737582610582E-22,-9.91270557701022E-16,1.));
#1109=DIRECTION('',(0.,-1.,-9.91270557701022E-16));
#1110=DIRECTION('',(-0.939160264130875,0.34347925450837,0.));
#1111=DIRECTION('',(-1.02633513749841E-7,1.,0.));
#1112=DIRECTION('',(-1.02633514499799E-7,1.,0.));
#1113=DIRECTION('',(-0.939160264130875,0.34347925450837,0.));
#1114=DIRECTION('',(0.343956143949537,0.938985713969795,0.));
#1115=DIRECTION('',(0.937346957678227,-0.348397303277984,0.));
#1116=DIRECTION('',(0.984758536713326,0.173927066238206,0.));
#1117=DIRECTION('',(0.173649881158058,-0.984807452639242,0.));
#1118=DIRECTION('',(-0.984807452639242,-0.173649881158056,0.));
#1119=DIRECTION('',(0.,-1.,0.));
#1120=DIRECTION('',(-0.996298945758981,-0.0859558647187241,0.));
#1121=DIRECTION('',(-0.00246776681270539,-0.999996955058843,0.));
#1122=DIRECTION('',(-0.99999653902359,-0.00263095816029709,0.));
#1123=DIRECTION('',(0.00263095816029771,-0.99999653902359,0.));
#1124=DIRECTION('',(-0.999996539183776,-0.00263089727481022,0.));
#1125=DIRECTION('',(-0.00263089727481016,0.999996539183776,0.));
#1126=DIRECTION('',(-0.999996555296691,0.00262476565677768,0.));
#1127=DIRECTION('',(0.,1.,0.));
#1128=DIRECTION('',(-1.,-1.02633516406343E-7,0.));
#1129=DIRECTION('',(-1.02633516722156E-7,1.,0.));
#1130=DIRECTION('',(-1.0263351743014E-7,1.,0.));
#1131=DIRECTION('',(1.01737582610582E-22,-9.91270557701022E-16,1.));
#1132=DIRECTION('',(0.,-1.,-9.91270557701022E-16));
#1133=DIRECTION('',(-1.,-1.02633515966149E-7,0.));
#1134=DIRECTION('',(0.,1.,0.));
#1135=DIRECTION('',(1.01737582610582E-22,-9.91270557701022E-16,1.));
#1136=DIRECTION('',(0.,-1.,-9.91270557701022E-16));
#1137=DIRECTION('',(-0.999996555296691,0.00262476565677731,0.));
#1138=DIRECTION('',(-0.00263089727481053,0.999996539183776,0.));
#1139=DIRECTION('',(1.01737582610582E-22,-9.91270557701022E-16,1.));
#1140=DIRECTION('',(0.,-1.,-9.91270557701022E-16));
#1141=DIRECTION('',(-0.999996539183776,-0.00263089727481022,0.));
#1142=DIRECTION('',(1.01737582610582E-22,-9.91270557701022E-16,1.));
#1143=DIRECTION('',(0.,-1.,-9.91270557701022E-16));
#1144=DIRECTION('',(0.0026309581602966,-0.99999653902359,0.));
#1145=DIRECTION('',(-0.99999653902359,-0.00263095816029709,0.));
#1146=DIRECTION('',(1.01737582610582E-22,-9.91270557701022E-16,1.));
#1147=DIRECTION('',(0.,-1.,-9.91270557701022E-16));
#1148=DIRECTION('',(-0.00246776681270477,-0.999996955058843,0.));
#1149=DIRECTION('',(-0.996298945758981,-0.0859558647187246,0.));
#1150=DIRECTION('',(1.01737582610582E-22,-9.91270557701022E-16,1.));
#1151=DIRECTION('',(0.,-1.,-9.91270557701022E-16));
#1152=DIRECTION('',(0.,-1.,0.));
#1153=DIRECTION('',(-0.984807452639242,-0.173649881158057,0.));
#1154=DIRECTION('',(1.01737582610582E-22,-9.91270557701022E-16,1.));
#1155=DIRECTION('',(0.,-1.,-9.91270557701022E-16));
#1156=DIRECTION('',(0.173649881158057,-0.984807452639242,0.));
#1157=DIRECTION('',(1.01737582610582E-22,-9.91270557701022E-16,1.));
#1158=DIRECTION('',(0.,-1.,-9.91270557701022E-16));
#1159=DIRECTION('',(0.984758536713326,0.173927066238206,0.));
#1160=DIRECTION('',(0.937346957678227,-0.348397303277984,0.));
#1161=DIRECTION('',(1.01737582610582E-22,-9.91270557701022E-16,1.));
#1162=DIRECTION('',(0.,-1.,-9.91270557701022E-16));
#1163=DIRECTION('',(-1.,-1.02633516722156E-7,0.));
#1164=DIRECTION('',(-1.02633516722156E-7,1.,0.));
#1165=DIRECTION('',(-1.01737583359989E-22,9.91270557701022E-16,-1.));
#1166=DIRECTION('',(-1.02633516722156E-7,1.,0.));
#1167=DIRECTION('',(1.02633516406343E-7,-1.,-9.91270557701027E-16));
#1168=DIRECTION('',(-1.,-1.02633516406343E-7,0.));
#1169=DIRECTION('',(0.,9.91270557701032E-16,-1.));
#1170=DIRECTION('',(-1.,-1.02633516406343E-7,0.));
#1171=DIRECTION('',(-1.,0.,0.));
#1172=DIRECTION('',(0.,1.,0.));
#1173=DIRECTION('',(0.,0.,-1.));
#1174=DIRECTION('',(0.,1.,0.));
#1175=DIRECTION('',(-0.00262476565677768,-0.999996555296691,0.));
#1176=DIRECTION('',(-0.999996555296691,0.00262476565677768,0.));
#1177=DIRECTION('',(0.,0.,-1.));
#1178=DIRECTION('',(-0.999996555296691,0.00262476565677768,0.));
#1179=DIRECTION('',(-0.999996539183776,-0.00263089727481016,0.));
#1180=DIRECTION('',(-0.00263089727481016,0.999996539183776,0.));
#1181=DIRECTION('',(0.,0.,-1.));
#1182=DIRECTION('',(-0.00263089727481016,0.999996539183776,0.));
#1183=DIRECTION('',(0.00263089727481022,-0.999996539183776,0.));
#1184=DIRECTION('',(-0.999996539183776,-0.00263089727481022,0.));
#1185=DIRECTION('',(-2.47815924085916E-16,-6.51980495716888E-19,-1.));
#1186=DIRECTION('',(-0.999996539183776,-0.00263089727481022,0.));
#1187=DIRECTION('',(0.99999653902359,0.00263095816029771,-2.47816781734254E-16));
#1188=DIRECTION('',(0.00263095816029771,-0.99999653902359,0.));
#1189=DIRECTION('',(-2.47815924046219E-16,-6.51995584162298E-19,-1.));
#1190=DIRECTION('',(0.00263095816029771,-0.99999653902359,0.));
#1191=DIRECTION('',(0.00263095816029709,-0.99999653902359,0.));
#1192=DIRECTION('',(-0.99999653902359,-0.00263095816029709,0.));
#1193=DIRECTION('',(0.,0.,-1.));
#1194=DIRECTION('',(-0.99999653902359,-0.00263095816029709,0.));
#1195=DIRECTION('',(0.999996955058843,-0.00246776681270539,0.));
#1196=DIRECTION('',(-0.00246776681270539,-0.999996955058843,0.));
#1197=DIRECTION('',(0.,0.,-1.));
#1198=DIRECTION('',(-0.00246776681270539,-0.999996955058843,0.));
#1199=DIRECTION('',(0.0859558647187241,-0.996298945758981,0.));
#1200=DIRECTION('',(-0.996298945758981,-0.0859558647187241,0.));
#1201=DIRECTION('',(0.,0.,-1.));
#1202=DIRECTION('',(-0.996298945758981,-0.0859558647187241,0.));
#1203=DIRECTION('',(1.,0.,0.));
#1204=DIRECTION('',(0.,-1.,0.));
#1205=DIRECTION('',(0.,0.,-1.));
#1206=DIRECTION('',(0.,-1.,0.));
#1207=DIRECTION('',(0.173649881158056,-0.984807452639242,0.));
#1208=DIRECTION('',(-0.984807452639242,-0.173649881158056,0.));
#1209=DIRECTION('',(0.,0.,-1.));
#1210=DIRECTION('',(-0.984807452639242,-0.173649881158056,0.));
#1211=DIRECTION('',(0.984807452639242,0.173649881158058,0.));
#1212=DIRECTION('',(0.173649881158058,-0.984807452639242,0.));
#1213=DIRECTION('',(1.69510446991939E-16,-9.613317923663E-16,-1.));
#1214=DIRECTION('',(0.173649881158058,-0.984807452639242,0.));
#1215=DIRECTION('',(-0.173927066238206,0.984758536713326,-9.76162143888671E-16));
#1216=DIRECTION('',(0.984758536713326,0.173927066238206,0.));
#1217=DIRECTION('',(3.15181356031479E-15,-4.34600404117051E-16,-1.));
#1218=DIRECTION('',(0.984758536713326,0.173927066238206,0.));
#1219=DIRECTION('',(0.348397303277984,0.937346957678227,6.90711978243805E-16));
#1220=DIRECTION('',(0.937346957678227,-0.348397303277984,0.));
#1221=DIRECTION('',(2.37577290600945E-16,6.48575947143618E-16,-1.));
#1222=DIRECTION('',(0.937346957678227,-0.348397303277984,0.));
#1223=DIRECTION('',(-0.938985713969795,0.343956143949537,0.));
#1224=DIRECTION('',(0.343956143949537,0.938985713969795,0.));
#1225=DIRECTION('',(-1.60105056521259E-16,-4.37080027359085E-16,-1.));
#1226=DIRECTION('',(0.343956143949537,0.938985713969795,0.));
#1227=DIRECTION('',(-0.34347925450837,-0.939160264130875,4.65480959397831E-16));
#1228=DIRECTION('',(-0.939160264130875,0.34347925450837,0.));
#1229=DIRECTION('',(5.08687924879365E-23,-4.95635297454769E-16,-1.));
#1230=DIRECTION('',(-0.939160264130875,0.34347925450837,0.));
#1231=DIRECTION('',(-1.,-1.02633514499799E-7,0.));
#1232=DIRECTION('',(-1.02633514499799E-7,1.,0.));
#1233=DIRECTION('',(-1.02633514499799E-7,1.,0.));
#1234=DIRECTION('',(-1.,-1.02633516722156E-7,0.));
#1235=DIRECTION('',(-1.02633516722156E-7,1.,0.));
#1236=DIRECTION('',(-1.02633514499799E-7,1.,0.));
#1237=DIRECTION('',(-1.01737583359989E-22,9.91270557701022E-16,-1.));
#1238=DIRECTION('',(-1.02633514499799E-7,1.,0.));
#1239=DIRECTION('',(0.,0.,-1.));
#1240=DIRECTION('',(1.02633516406343E-7,-1.,-9.91270557701027E-16));
#1241=DIRECTION('',(-1.,-1.02633516406343E-7,0.));
#1242=DIRECTION('',(-1.01737583359989E-22,9.91270557701022E-16,-1.));
#1243=DIRECTION('',(1.,1.02633516406343E-7,0.));
#1244=DIRECTION('',(-9.91270557701032E-16,0.,-1.));
#1245=DIRECTION('',(-1.,0.,0.));
#1246=DIRECTION('',(0.,1.,0.));
#1247=DIRECTION('',(0.,1.,0.));
#1248=DIRECTION('',(0.,0.,-1.));
#1249=DIRECTION('',(-0.00262476565677768,-0.999996555296691,0.));
#1250=DIRECTION('',(-0.999996555296691,0.00262476565677768,0.));
#1251=DIRECTION('',(0.,0.,-1.));
#1252=DIRECTION('',(0.999996555296691,-0.00262476565677768,0.));
#1253=DIRECTION('',(-2.47817639425258E-16,9.91270557701032E-16,-1.));
#1254=DIRECTION('',(-0.999996539183776,-0.00263089727481016,0.));
#1255=DIRECTION('',(-0.00263089727481016,0.999996539183776,0.));
#1256=DIRECTION('',(0.00263089727481016,-0.999996539183776,0.));
#1257=DIRECTION('',(0.,0.,-1.));
#1258=DIRECTION('',(0.00263089727481022,-0.999996539183776,0.));
#1259=DIRECTION('',(-0.999996539183776,-0.00263089727481022,0.));
#1260=DIRECTION('',(0.,0.,-1.));
#1261=DIRECTION('',(0.999996539183776,0.00263089727481022,0.));
#1262=DIRECTION('',(-2.47815924085916E-16,-6.51980495716888E-19,-1.));
#1263=DIRECTION('',(0.99999653902359,0.00263095816029771,-2.47816781734254E-16));
#1264=DIRECTION('',(0.00263095816029771,-0.99999653902359,0.));
#1265=DIRECTION('',(-2.47815924085916E-16,-6.51980495716888E-19,-1.));
#1266=DIRECTION('',(-0.00263095816029771,0.99999653902359,0.));
#1267=DIRECTION('',(0.,0.,-1.));
#1268=DIRECTION('',(0.00263095816029709,-0.99999653902359,0.));
#1269=DIRECTION('',(-0.99999653902359,-0.00263095816029709,0.));
#1270=DIRECTION('',(0.99999653902359,0.00263095816029709,0.));
#1271=DIRECTION('',(0.,0.,-1.));
#1272=DIRECTION('',(0.999996955058843,-0.00246776681270539,0.));
#1273=DIRECTION('',(-0.00246776681270539,-0.999996955058843,0.));
#1274=DIRECTION('',(0.,0.,-1.));
#1275=DIRECTION('',(0.00246776681270539,0.999996955058843,0.));
#1276=DIRECTION('',(0.,0.,-1.));
#1277=DIRECTION('',(0.0859558647187241,-0.996298945758981,0.));
#1278=DIRECTION('',(-0.996298945758981,-0.0859558647187241,0.));
#1279=DIRECTION('',(0.996298945758981,0.0859558647187241,0.));
#1280=DIRECTION('',(0.,0.,-1.));
#1281=DIRECTION('',(1.,0.,0.));
#1282=DIRECTION('',(0.,-1.,0.));
#1283=DIRECTION('',(0.,0.,-1.));
#1284=DIRECTION('',(0.,1.,0.));
#1285=DIRECTION('',(0.,0.,-1.));
#1286=DIRECTION('',(0.173649881158056,-0.984807452639242,0.));
#1287=DIRECTION('',(-0.984807452639242,-0.173649881158056,0.));
#1288=DIRECTION('',(0.984807452639242,0.173649881158056,0.));
#1289=DIRECTION('',(0.,0.,-1.));
#1290=DIRECTION('',(0.984807452639242,0.173649881158058,0.));
#1291=DIRECTION('',(0.173649881158058,-0.984807452639242,0.));
#1292=DIRECTION('',(0.,0.,-1.));
#1293=DIRECTION('',(-0.173649881158058,0.984807452639242,0.));
#1294=DIRECTION('',(1.69510446991939E-16,-9.613317923663E-16,-1.));
#1295=DIRECTION('',(-0.173927066238206,0.984758536713326,-9.76162143888671E-16));
#1296=DIRECTION('',(0.984758536713326,0.173927066238206,0.));
#1297=DIRECTION('',(1.69510446991939E-16,-9.613317923663E-16,-1.));
#1298=DIRECTION('',(-0.984758536713326,-0.173927066238206,0.));
#1299=DIRECTION('',(2.9738116731031E-15,9.91270557701032E-16,-1.));
#1300=DIRECTION('',(0.348397303277984,0.937346957678227,6.90711978243805E-16));
#1301=DIRECTION('',(0.937346957678227,-0.348397303277984,0.));
#1302=DIRECTION('',(-0.937346957678228,0.348397303277984,0.));
#1303=DIRECTION('',(2.37577290600945E-16,6.48575947143618E-16,-1.));
#1304=DIRECTION('',(-0.938985713969795,0.343956143949537,0.));
#1305=DIRECTION('',(0.343956143949537,0.938985713969795,0.));
#1306=DIRECTION('',(-0.343956143949537,-0.938985713969795,0.));
#1307=DIRECTION('',(-1.60105056521259E-16,-4.37080027359085E-16,-1.));
#1308=DIRECTION('',(2.37577290600945E-16,6.48575947143618E-16,-1.));
#1309=DIRECTION('',(-0.34347925450837,-0.939160264130875,4.65480959397831E-16));
#1310=DIRECTION('',(-0.939160264130875,0.34347925450837,0.));
#1311=DIRECTION('',(-1.60105056521259E-16,-4.37080027359085E-16,-1.));
#1312=DIRECTION('',(0.939160264130875,-0.34347925450837,0.));
#1313=DIRECTION('',(0.,0.,1.));
#1314=DIRECTION('',(1.,0.,0.));
#1315=DIRECTION('',(0.,0.,1.));
#1316=DIRECTION('',(1.,0.,0.));
#1317=DIRECTION('',(0.,0.,1.));
#1318=DIRECTION('',(1.,0.,0.));
#1319=DIRECTION('',(0.,0.,1.));
#1320=DIRECTION('',(1.,0.,0.));
#1321=DIRECTION('',(0.,0.,1.));
#1322=DIRECTION('',(1.,0.,0.));
#1323=DIRECTION('',(0.,0.,1.));
#1324=DIRECTION('',(1.,0.,0.));
#1325=DIRECTION('',(0.,0.,1.));
#1326=DIRECTION('',(1.,0.,0.));
#1327=DIRECTION('',(0.,0.,1.));
#1328=DIRECTION('',(1.,0.,0.));
#1329=DIRECTION('',(0.,0.,1.));
#1330=DIRECTION('',(1.,0.,0.));
#1331=DIRECTION('',(0.,0.,1.));
#1332=DIRECTION('',(1.,0.,0.));
#1333=DIRECTION('',(0.,0.,1.));
#1334=DIRECTION('',(1.,0.,0.));
#1335=DIRECTION('',(0.,0.,1.));
#1336=DIRECTION('',(1.,0.,0.));
#1337=DIRECTION('',(-1.60105056521259E-16,-4.37080027359085E-16,-1.));
#1338=DIRECTION('',(0.,1.,-4.37080027359085E-16));
#1339=DIRECTION('',(-1.01737583359989E-22,9.91270557701022E-16,-1.));
#1340=DIRECTION('',(0.,1.,9.91270557701022E-16));
#1341=DIRECTION('',(0.,0.,-1.));
#1342=DIRECTION('',(-1.,0.,0.));
#1343=DIRECTION('',(0.,0.,-1.));
#1344=DIRECTION('',(-1.,0.,0.));
#1345=DIRECTION('',(-2.47815924085916E-16,-6.51980495716888E-19,-1.));
#1346=DIRECTION('',(-1.,0.,2.47815924085916E-16));
#1347=DIRECTION('',(0.,0.,-1.));
#1348=DIRECTION('',(-1.,0.,0.));
#1349=DIRECTION('',(0.,0.,-1.));
#1350=DIRECTION('',(-1.,0.,0.));
#1351=DIRECTION('',(0.,0.,-1.));
#1352=DIRECTION('',(-1.,0.,0.));
#1353=DIRECTION('',(1.69510446991939E-16,-9.613317923663E-16,-1.));
#1354=DIRECTION('',(0.,1.,-9.613317923663E-16));
#1355=DIRECTION('',(2.37577290600945E-16,6.48575947143618E-16,-1.));
#1356=DIRECTION('',(0.,1.,6.48575947143618E-16));
#1357=CARTESIAN_POINT('',(0.,0.,0.));
#1358=CARTESIAN_POINT('',(0.0809145401341924,-0.00521623689949392,-0.0035));
#1359=CARTESIAN_POINT('',(0.0809145401341924,-0.00521623689949392,0.));
#1360=CARTESIAN_POINT('',(0.0809145401341924,-0.00521623689949392,0.));
#1361=CARTESIAN_POINT('',(0.0769145401341924,-0.00521623731002798,0.));
#1362=CARTESIAN_POINT('',(0.0809145401341924,-0.00521623689949392,-0.0035));
#1363=CARTESIAN_POINT('',(0.0809145401341924,-0.00521623710476068,-0.007));
#1364=CARTESIAN_POINT('',(0.0809145401341924,-0.00521623689949392,-0.007));
#1365=CARTESIAN_POINT('',(0.0769145401341924,-0.00521623731002798,-0.007));
#1366=CARTESIAN_POINT('',(0.0769145401341924,-0.00521623731002798,0.));
#1367=CARTESIAN_POINT('',(0.0809145389025902,0.00678376310050606,-0.0035));
#1368=CARTESIAN_POINT('',(0.0809145389025902,0.00678376310050606,-0.007));
#1369=CARTESIAN_POINT('',(0.0809145389025903,0.00678376289523923,-0.007));
#1370=CARTESIAN_POINT('',(0.0769145389025902,0.00678376268997199,-0.007));
#1371=CARTESIAN_POINT('',(0.0809145389025902,0.00678376310050606,-0.0035));
#1372=CARTESIAN_POINT('',(0.0809145389025902,0.00678376310050606,0.));
#1373=CARTESIAN_POINT('',(0.0809145389025902,0.00678376310050606,0.));
#1374=CARTESIAN_POINT('',(0.0769145389025902,0.00678376268997199,0.));
#1375=CARTESIAN_POINT('',(0.0769145389025902,0.00678376268997199,0.));
#1376=CARTESIAN_POINT('',(0.0572695980760095,0.0459874442692634,0.));
#1377=CARTESIAN_POINT('',(0.0844066305705298,-0.0455408702540476,0.));
#1378=CARTESIAN_POINT('',(0.0781163025608357,-0.0627131994628357,0.));
#1379=CARTESIAN_POINT('',(0.090698415972056,-0.0283645624272463,0.));
#1380=CARTESIAN_POINT('',(0.0897594302580862,-0.0280206062832968,-7.33620048510388E-17));
#1381=CARTESIAN_POINT('',(0.0901029095125946,-0.0270814460191659,0.));
#1382=CARTESIAN_POINT('',(0.0859785444325092,-0.0255730412269987,0.));
#1383=CARTESIAN_POINT('',(0.0809145420333995,-0.0237209827069499,0.));
#1384=CARTESIAN_POINT('',(0.080914541083796,-0.0144686098032219,0.));
#1385=CARTESIAN_POINT('',(0.0769145420333995,-0.023720983117484,0.));
#1386=CARTESIAN_POINT('',(0.0769145423203837,-0.0265171860609855,9.30961918795662E-19));
#1387=CARTESIAN_POINT('',(0.0896686298135855,-0.0311817408035709,1.86192383759132E-18));
#1388=CARTESIAN_POINT('',(0.0859100805374881,-0.029807125892045,9.30961918795662E-19));
#1389=CARTESIAN_POINT('',(0.0740147714535614,-0.0622808161852498,0.));
#1390=CARTESIAN_POINT('',(0.0753971244591419,-0.058507050992401,1.38142395648761E-18));
#1391=CARTESIAN_POINT('',(-0.00571086645879318,-0.0283604707121415,2.76284791297522E-18));
#1392=CARTESIAN_POINT('',(-0.00672974738934742,-0.0279817684977067,-5.70900331289729E-19));
#1393=CARTESIAN_POINT('',(-0.0701203310426632,-0.0391777498788342,-3.90464857555468E-18));
#1394=CARTESIAN_POINT('',(-0.0661801880269701,-0.0384818457665778,-1.95232428777734E-18));
#1395=CARTESIAN_POINT('',(-0.0780747427515323,0.0289748438692305,0.));
#1396=CARTESIAN_POINT('',(-0.0773801432269,0.0250356140586735,0.));
#1397=CARTESIAN_POINT('',(-0.0567129508166502,0.0286798345570995,0.));
#1398=CARTESIAN_POINT('',(-0.0534075503412824,0.0292626717383059,0.));
#1399=CARTESIAN_POINT('',(-0.0534075503412824,0.0371748336995158,0.));
#1400=CARTESIAN_POINT('',(-0.0534075503412824,0.0335050751830699,0.));
#1401=CARTESIAN_POINT('',(-0.0331966412458048,0.0352487748782752,0.));
#1402=CARTESIAN_POINT('',(-0.0295495105866684,0.0355634317098243,0.));
#1403=CARTESIAN_POINT('',(-0.0295130596005012,0.0503342256877837,0.));
#1404=CARTESIAN_POINT('',(-0.0295228804657148,0.0463545809097256,0.));
#1405=CARTESIAN_POINT('',(-0.0144654988034993,0.0463941963879907,0.));
#1406=CARTESIAN_POINT('',(-0.0104655126474049,0.0464047202206319,-4.95633563468508E-19));
#1407=CARTESIAN_POINT('',(-0.0104884347861922,0.0551171580694195,-9.91267126937016E-19));
#1408=CARTESIAN_POINT('',(-0.0104779109529103,0.0511171716697832,-4.95633563468508E-19));
#1409=CARTESIAN_POINT('',(0.0145720143645086,0.0511830756781167,0.));
#1410=CARTESIAN_POINT('',(0.0105720282077735,0.0511725520890174,0.));
#1411=CARTESIAN_POINT('',(0.0105739717654063,0.0504338113843999,0.));
#1412=CARTESIAN_POINT('',(0.0105844401908388,0.0464547927798382,0.));
#1413=CARTESIAN_POINT('',(0.0336141622104136,0.0463943449481712,0.));
#1414=CARTESIAN_POINT('',(0.0296246612730406,0.0464048164892906,0.));
#1415=CARTESIAN_POINT('',(0.0296246612730406,0.0459874418425005,0.));
#1416=CARTESIAN_POINT('',(0.0296246612730406,0.0419874414319663,-1.98254111540205E-18));
#1417=CARTESIAN_POINT('',(0.0809145352895124,0.0419874466960264,-3.96508223080411E-18));
#1418=CARTESIAN_POINT('',(0.0769145352895124,0.0419874462854924,-3.96508223080411E-18));
#1419=CARTESIAN_POINT('',(0.0769145389025902,0.00678376268997199,0.));
#1420=CARTESIAN_POINT('',(0.0809145368907843,0.0263856048982662,0.));
#1421=CARTESIAN_POINT('',(0.0809145349816118,0.0449874466960265,0.));
#1422=CARTESIAN_POINT('',(0.0799145349816118,0.0449874465933929,-9.91270557701023E-19));
#1423=CARTESIAN_POINT('',(0.0799145348789783,0.0459874465933929,0.));
#1424=CARTESIAN_POINT('',(0.0572695980760095,0.0459874442692634,0.));
#1425=CARTESIAN_POINT('',(0.0336246612730407,0.0459874418425005,0.));
#1426=CARTESIAN_POINT('',(0.0336246612730407,0.0481908865059292,0.));
#1427=CARTESIAN_POINT('',(0.0336246612730407,0.0493969524993411,0.));
#1428=CARTESIAN_POINT('',(0.0326246612730407,0.0493969524993411,3.37974763203164E-18));
#1429=CARTESIAN_POINT('',(0.0326272860386974,0.0503969490546378,0.));
#1430=CARTESIAN_POINT('',(0.0240993095975909,0.0504193330714285,0.));
#1431=CARTESIAN_POINT('',(0.0145739579221415,0.0504443349734991,0.));
#1432=CARTESIAN_POINT('',(0.0145677243487754,0.0528136984041751,0.));
#1433=CARTESIAN_POINT('',(0.0145641216726842,0.054183065295668,0.));
#1434=CARTESIAN_POINT('',(0.0135641251335004,0.0541804343983932,8.12147434103061E-18));
#1435=CARTESIAN_POINT('',(0.0135614942362256,0.055180430937577,0.));
#1436=CARTESIAN_POINT('',(3.65349165613758E-5,0.0551448480358151,0.));
#1437=CARTESIAN_POINT('',(-0.0134884243422173,0.0551092651342134,0.));
#1438=CARTESIAN_POINT('',(-0.0134857934449425,0.0541092685950296,8.05093252743443E-18));
#1439=CARTESIAN_POINT('',(-0.0144857899839661,0.0541066376368693,0.));
#1440=CARTESIAN_POINT('',(-0.0144822217892135,0.0527504083904317,0.));
#1441=CARTESIAN_POINT('',(-0.0144760226361405,0.0503941825440851,0.));
#1442=CARTESIAN_POINT('',(-0.0239945350284385,0.0503691396495598,0.));
#1443=CARTESIAN_POINT('',(-0.0325181366401414,0.0503467143327309,0.));
#1444=CARTESIAN_POINT('',(-0.0325155056819811,0.0493467177937073,3.32995807456517E-18));
#1445=CARTESIAN_POINT('',(-0.0335155026370399,0.04934918556052,0.));
#1446=CARTESIAN_POINT('',(-0.0335267560627081,0.0447890337081729,0.));
#1447=CARTESIAN_POINT('',(-0.0335404647046797,0.0392339706613111,0.));
#1448=CARTESIAN_POINT('',(-0.045474007522981,0.0382044021804134,0.));
#1449=CARTESIAN_POINT('',(-0.0564935062060011,0.0372536930161633,0.));
#1450=CARTESIAN_POINT('',(-0.0564075503412824,0.0362573940704043,-9.64510072184372E-18));
#1451=CARTESIAN_POINT('',(-0.0574075503412824,0.0362573940704043,0.));
#1452=CARTESIAN_POINT('',(-0.0574075503412824,0.0348969490335861,0.));
#1453=CARTESIAN_POINT('',(-0.0574075503412824,0.0326190643676564,0.));
#1454=CARTESIAN_POINT('',(-0.0697107614516858,0.0304496543561273,0.));
#1455=CARTESIAN_POINT('',(-0.08102916510945,0.0284538942257563,0.));
#1456=CARTESIAN_POINT('',(-0.0808555152282919,0.027469086773117,-1.83566885103968E-17));
#1457=CARTESIAN_POINT('',(-0.0818403226809312,0.027295436891959,0.));
#1458=CARTESIAN_POINT('',(-0.0757192976698998,-0.00741826984054462,0.));
#1459=CARTESIAN_POINT('',(-0.0695983215426645,-0.0421316993420681,0.));
#1460=CARTESIAN_POINT('',(-0.0686135140900253,-0.0419580494609101,-8.71777658101573E-17));
#1461=CARTESIAN_POINT('',(-0.0684395870237871,-0.0429428079976233,0.));
#1462=CARTESIAN_POINT('',(-0.0382645392248078,-0.0376133212842709,0.));
#1463=CARTESIAN_POINT('',(-0.00710445567190512,-0.0321098585428544,0.));
#1464=CARTESIAN_POINT('',(0.0353331293187682,-0.0478832496519513,0.));
#1465=CARTESIAN_POINT('',(0.076828919543588,-0.0633065902765644,0.));
#1466=CARTESIAN_POINT('',(0.0771773168468659,-0.0623692433188862,-1.07410796161504E-16));
#1467=CARTESIAN_POINT('',(0.0769145389025902,0.00678376268997199,0.));
#1468=CARTESIAN_POINT('',(0.0769145352895124,0.0419874462854924,-3.96508223080411E-18));
#1469=CARTESIAN_POINT('',(0.0769145352895124,0.0419874462854924,-0.007));
#1470=CARTESIAN_POINT('',(0.0769145389025902,0.00678376268997199,-0.007));
#1471=CARTESIAN_POINT('',(0.0809145352895124,0.0419874466960264,-3.96508223080411E-18));
#1472=CARTESIAN_POINT('',(0.0296246612730406,0.0419874414319663,-3.96508744891192E-18));
#1473=CARTESIAN_POINT('',(0.0296246612730406,0.0419874414319663,-0.007));
#1474=CARTESIAN_POINT('',(0.0809145352895124,0.0419874466960264,-0.007));
#1475=CARTESIAN_POINT('',(0.0296246612730406,0.0459874418425005,0.));
#1476=CARTESIAN_POINT('',(0.0296246612730406,0.0464048164892906,0.));
#1477=CARTESIAN_POINT('',(0.0296246612730406,0.0464048164892906,-0.007));
#1478=CARTESIAN_POINT('',(0.0296246612730406,0.0459874418425005,-0.007));
#1479=CARTESIAN_POINT('',(0.0336141622104136,0.0463943449481712,0.));
#1480=CARTESIAN_POINT('',(0.0105844401908388,0.0464547927798382,0.));
#1481=CARTESIAN_POINT('',(0.0105844401908388,0.0464547927798382,-0.007));
#1482=CARTESIAN_POINT('',(0.0336141622104136,0.0463943449481712,-0.007));
#1483=CARTESIAN_POINT('',(0.0105739717654063,0.0504338113843999,0.));
#1484=CARTESIAN_POINT('',(0.0105720282077735,0.0511725520890174,0.));
#1485=CARTESIAN_POINT('',(0.0105720282077735,0.0511725520890174,-0.007));
#1486=CARTESIAN_POINT('',(0.0105739717654063,0.0504338113843999,-0.007));
#1487=CARTESIAN_POINT('',(0.0145720143645086,0.0511830756781167,0.));
#1488=CARTESIAN_POINT('',(-0.0104779109529103,0.0511171716697832,-9.91267187291011E-19));
#1489=CARTESIAN_POINT('',(-0.0104779109529103,0.0511171716697832,-0.007));
#1490=CARTESIAN_POINT('',(0.0145720143645086,0.0511830756781167,-0.007));
#1491=CARTESIAN_POINT('',(-0.0104884347861922,0.0551171580694195,-9.91267126937016E-19));
#1492=CARTESIAN_POINT('',(-0.0104655126474049,0.0464047202206319,-9.91267126937018E-19));
#1493=CARTESIAN_POINT('',(-0.0104655126474049,0.0464047202206319,-0.007));
#1494=CARTESIAN_POINT('',(-0.0104884347861922,0.0551171580694195,-0.007));
#1495=CARTESIAN_POINT('',(-0.0144654988034993,0.0463941963879907,0.));
#1496=CARTESIAN_POINT('',(-0.0295228804657148,0.0463545809097256,0.));
#1497=CARTESIAN_POINT('',(-0.0295228804657148,0.0463545809097256,-0.007));
#1498=CARTESIAN_POINT('',(-0.0144654988034993,0.0463941963879907,-0.007));
#1499=CARTESIAN_POINT('',(-0.0295130596005012,0.0503342256877837,0.));
#1500=CARTESIAN_POINT('',(-0.0295495105866684,0.0355634317098243,0.));
#1501=CARTESIAN_POINT('',(-0.0295495105866684,0.0355634317098243,-0.007));
#1502=CARTESIAN_POINT('',(-0.0295130596005012,0.0503342256877837,-0.007));
#1503=CARTESIAN_POINT('',(-0.0331966412458048,0.0352487748782752,0.));
#1504=CARTESIAN_POINT('',(-0.0534075503412824,0.0335050751830699,0.));
#1505=CARTESIAN_POINT('',(-0.0534075503412824,0.0335050751830699,-0.007));
#1506=CARTESIAN_POINT('',(-0.0331966412458048,0.0352487748782752,-0.007));
#1507=CARTESIAN_POINT('',(-0.0534075503412824,0.0371748336995158,0.));
#1508=CARTESIAN_POINT('',(-0.0534075503412824,0.0292626717383059,0.));
#1509=CARTESIAN_POINT('',(-0.0534075503412824,0.0292626717383059,-0.007));
#1510=CARTESIAN_POINT('',(-0.0534075503412824,0.0371748336995158,-0.007));
#1511=CARTESIAN_POINT('',(-0.0567129508166502,0.0286798345570995,0.));
#1512=CARTESIAN_POINT('',(-0.0773801432269,0.0250356140586735,0.));
#1513=CARTESIAN_POINT('',(-0.0773801432269,0.0250356140586735,-0.007));
#1514=CARTESIAN_POINT('',(-0.0567129508166502,0.0286798345570995,-0.007));
#1515=CARTESIAN_POINT('',(-0.0780747427515323,0.0289748438692305,0.));
#1516=CARTESIAN_POINT('',(-0.0661801880269701,-0.0384818457665778,-3.90574791930296E-18));
#1517=CARTESIAN_POINT('',(-0.0661801880269701,-0.0384818457665778,-0.007));
#1518=CARTESIAN_POINT('',(-0.0780747427515323,0.0289748438692305,-0.007));
#1519=CARTESIAN_POINT('',(-0.0701203310426632,-0.0391777498788342,-3.90464857555468E-18));
#1520=CARTESIAN_POINT('',(-0.00672974738934742,-0.0279817684977067,1.9102487454651E-16));
#1521=CARTESIAN_POINT('',(-0.00672974738934742,-0.0279817684977067,-0.007));
#1522=CARTESIAN_POINT('',(-0.0701203310426632,-0.0391777498788342,-0.007));
#1523=CARTESIAN_POINT('',(-0.00571086645879318,-0.0283604707121415,2.76284791297522E-18));
#1524=CARTESIAN_POINT('',(0.0753971244591419,-0.058507050992401,2.77598901596936E-18));
#1525=CARTESIAN_POINT('',(0.0753971244591419,-0.058507050992401,-0.007));
#1526=CARTESIAN_POINT('',(-0.00571086645879318,-0.0283604707121415,-0.007));
#1527=CARTESIAN_POINT('',(0.0740147714535614,-0.0622808161852498,0.));
#1528=CARTESIAN_POINT('',(0.0859100805374881,-0.029807125892045,1.86286985874088E-18));
#1529=CARTESIAN_POINT('',(0.0859100805374881,-0.029807125892045,-0.007));
#1530=CARTESIAN_POINT('',(0.0740147714535614,-0.0622808161852498,-0.007));
#1531=CARTESIAN_POINT('',(0.0896686298135855,-0.0311817408035709,1.86192383759132E-18));
#1532=CARTESIAN_POINT('',(0.0769145423203837,-0.0265171860609855,-4.49994788529099E-19));
#1533=CARTESIAN_POINT('',(0.0769145423203837,-0.0265171860609855,-0.007));
#1534=CARTESIAN_POINT('',(0.0896686298135855,-0.0311817408035709,-0.007));
#1535=CARTESIAN_POINT('',(0.0769145420333995,-0.023720983117484,0.));
#1536=CARTESIAN_POINT('',(0.0769145420333995,-0.023720983117484,-0.007));
#1537=CARTESIAN_POINT('',(0.0809145389025902,0.00678376310050606,0.));
#1538=CARTESIAN_POINT('',(0.080914541083796,-0.0144686098032219,-0.011));
#1539=CARTESIAN_POINT('',(0.0809145420333995,-0.0237209827069499,-0.011));
#1540=CARTESIAN_POINT('',(0.0809145349816119,0.0449874466960265,-0.011));
#1541=CARTESIAN_POINT('',(0.0809145349816118,0.0449874466960265,3.78701867439653E-17));
#1542=CARTESIAN_POINT('',(0.080914541083796,-0.0144686098032219,-0.007));
#1543=CARTESIAN_POINT('',(0.0809145420333995,-0.0237209827069499,-0.0035));
#1544=CARTESIAN_POINT('',(0.0809145348789783,0.0459874466960264,0.));
#1545=CARTESIAN_POINT('',(0.0799145348789783,0.0459874465933929,3.13056268427659E-34));
#1546=CARTESIAN_POINT('',(0.0799145348789783,0.0459874465933929,-0.011));
#1547=CARTESIAN_POINT('',(0.0572695980760095,0.0459874442692634,-0.011));
#1548=CARTESIAN_POINT('',(0.0336246612730407,0.0459874418425004,-0.011));
#1549=CARTESIAN_POINT('',(0.0336246612730407,0.0459874418425004,-0.0035));
#1550=CARTESIAN_POINT('',(0.0336246612730407,0.0459874418425005,0.));
#1551=CARTESIAN_POINT('',(0.0336246612730407,0.0481908865059292,-0.011));
#1552=CARTESIAN_POINT('',(0.0336246612730407,0.0493969524993411,-0.011));
#1553=CARTESIAN_POINT('',(0.0336246612730407,0.0493969524993411,0.));
#1554=CARTESIAN_POINT('',(0.0336246612730407,0.050394331169358,0.));
#1555=CARTESIAN_POINT('',(0.0326272860386974,0.0503969490546378,0.));
#1556=CARTESIAN_POINT('',(0.0326272860386974,0.0503969490546378,-0.011));
#1557=CARTESIAN_POINT('',(0.0240993095975909,0.0504193330714285,-0.011));
#1558=CARTESIAN_POINT('',(0.0145739579221411,0.0504443349734991,-0.011));
#1559=CARTESIAN_POINT('',(0.0145739579221411,0.0504443349734991,-0.0035));
#1560=CARTESIAN_POINT('',(0.0145739579221415,0.0504443349734991,0.));
#1561=CARTESIAN_POINT('',(0.0145677243487754,0.0528136984041751,-0.011));
#1562=CARTESIAN_POINT('',(0.0145641216726842,0.054183065295668,-0.011));
#1563=CARTESIAN_POINT('',(0.0145641216726842,0.054183065295668,0.));
#1564=CARTESIAN_POINT('',(0.0145614907754094,0.0551830618348518,0.));
#1565=CARTESIAN_POINT('',(0.0135614942362256,0.055180430937577,0.));
#1566=CARTESIAN_POINT('',(0.0135614942362256,0.055180430937577,-0.011));
#1567=CARTESIAN_POINT('',(3.65349165613758E-5,0.0551448480358151,-0.011));
#1568=CARTESIAN_POINT('',(-0.0134884243422173,0.0551092651342134,-0.011));
#1569=CARTESIAN_POINT('',(-0.0134884243422173,0.0551092651342133,6.95126374941563E-18));
#1570=CARTESIAN_POINT('',(-0.0144884209422866,0.0551066342367784,0.));
#1571=CARTESIAN_POINT('',(-0.0144857899839661,0.0541066376368693,-1.50884987039501E-26));
#1572=CARTESIAN_POINT('',(-0.0144857899839661,0.0541066376368693,-0.011));
#1573=CARTESIAN_POINT('',(-0.0144822217892135,0.0527504083904317,-0.011));
#1574=CARTESIAN_POINT('',(-0.0144760226361405,0.0503941825440851,-0.011));
#1575=CARTESIAN_POINT('',(-0.0144760226361405,0.0503941825440851,-0.0035));
#1576=CARTESIAN_POINT('',(-0.0144760226361405,0.0503941825440851,0.));
#1577=CARTESIAN_POINT('',(-0.0239945350284385,0.0503691396495598,-0.011));
#1578=CARTESIAN_POINT('',(-0.0325181366401414,0.0503467143327309,-0.011));
#1579=CARTESIAN_POINT('',(-0.0325181366401414,0.0503467143327309,0.));
#1580=CARTESIAN_POINT('',(-0.0335130474207366,0.0503440967550345,0.));
#1581=CARTESIAN_POINT('',(-0.0335155026370399,0.04934918556052,0.));
#1582=CARTESIAN_POINT('',(-0.0335155026370399,0.04934918556052,-0.011));
#1583=CARTESIAN_POINT('',(-0.0335267560627081,0.0447890337081729,-0.011));
#1584=CARTESIAN_POINT('',(-0.0335404647046797,0.0392339706613111,-0.011));
#1585=CARTESIAN_POINT('',(-0.0335404647046797,0.0392339706613111,-0.0035));
#1586=CARTESIAN_POINT('',(-0.0335404647046797,0.0392339706613111,0.));
#1587=CARTESIAN_POINT('',(-0.045474007522981,0.0382044021804134,-0.011));
#1588=CARTESIAN_POINT('',(-0.0564935062060011,0.0372536930161633,-0.011));
#1589=CARTESIAN_POINT('',(-0.0564935062060011,0.0372536930161633,0.));
#1590=CARTESIAN_POINT('',(-0.0574075503412824,0.0371748336995158,0.));
#1591=CARTESIAN_POINT('',(-0.0574075503412824,0.0362573940704043,0.));
#1592=CARTESIAN_POINT('',(-0.0574075503412824,0.0362573940704043,-0.011));
#1593=CARTESIAN_POINT('',(-0.0574075503412824,0.0348969490335861,-0.011));
#1594=CARTESIAN_POINT('',(-0.0574075503412824,0.0326190643676564,-0.011));
#1595=CARTESIAN_POINT('',(-0.0574075503412824,0.0326190643676564,-0.0035));
#1596=CARTESIAN_POINT('',(-0.0574075503412824,0.0326190643676564,0.));
#1597=CARTESIAN_POINT('',(-0.0697107614516858,0.0304496543561273,-0.011));
#1598=CARTESIAN_POINT('',(-0.08102916510945,0.0284538942257563,-0.011));
#1599=CARTESIAN_POINT('',(-0.08102916510945,0.0284538942257563,0.));
#1600=CARTESIAN_POINT('',(-0.0820139725620892,0.0282802443445982,0.));
#1601=CARTESIAN_POINT('',(-0.0818403226809312,0.027295436891959,0.));
#1602=CARTESIAN_POINT('',(-0.0818403226809312,0.027295436891959,-0.011));
#1603=CARTESIAN_POINT('',(-0.0757192976698998,-0.00741826984054462,-0.011));
#1604=CARTESIAN_POINT('',(-0.0695983215426645,-0.0421316993420681,-0.011));
#1605=CARTESIAN_POINT('',(-0.0695983215426645,-0.0421316993420681,6.97938225822966E-17));
#1606=CARTESIAN_POINT('',(-0.0694246227777104,-0.0431167840256875,0.));
#1607=CARTESIAN_POINT('',(-0.0684395870237871,-0.0429428079976233,-2.74835937069159E-22));
#1608=CARTESIAN_POINT('',(-0.0684395870237871,-0.0429428079976233,-0.011));
#1609=CARTESIAN_POINT('',(-0.0382645392248078,-0.0376133212842709,-0.011));
#1610=CARTESIAN_POINT('',(-0.00710445567190519,-0.0321098585428543,-0.011));
#1611=CARTESIAN_POINT('',(-0.00710445567190518,-0.0321098585428543,-0.0035));
#1612=CARTESIAN_POINT('',(-0.00710445567190512,-0.0321098585428544,0.));
#1613=CARTESIAN_POINT('',(0.0353331293187682,-0.0478832496519513,-0.011));
#1614=CARTESIAN_POINT('',(0.076828919543588,-0.0633065902765644,-0.011));
#1615=CARTESIAN_POINT('',(0.076828919543588,-0.0633065902765644,-2.9278595728699E-19));
#1616=CARTESIAN_POINT('',(0.0777707143094406,-0.0636566407610479,0.));
#1617=CARTESIAN_POINT('',(0.0844066305705298,-0.0455408702540477,-0.011));
#1618=CARTESIAN_POINT('',(0.090698415972056,-0.0283645624272463,-0.011));
#1619=CARTESIAN_POINT('',(0.0781163025608357,-0.0627131994628357,-0.011));
#1620=CARTESIAN_POINT('',(0.090698415972056,-0.0283645624272463,-1.749525296908E-17));
#1621=CARTESIAN_POINT('',(0.0781163025608357,-0.0627131994628357,6.93997253992341E-19));
#1622=CARTESIAN_POINT('',(0.0910425468316189,-0.0274250997470474,0.));
#1623=CARTESIAN_POINT('',(0.0901029095125946,-0.0270814460191659,2.36505287390932E-22));
#1624=CARTESIAN_POINT('',(0.0901029095125946,-0.0270814460191659,-0.011));
#1625=CARTESIAN_POINT('',(0.0859785444325092,-0.0255730412269987,-0.011));
#1626=CARTESIAN_POINT('',(0.00451428713476484,-0.00324097881625466,-0.007));
#1627=CARTESIAN_POINT('',(0.00451428713476484,-0.00324097881625466,-0.011));
#1628=CARTESIAN_POINT('',(0.0897594302580862,-0.0280206062832968,-0.011));
#1629=CARTESIAN_POINT('',(0.0771773168468659,-0.0623692433188862,-0.011));
#1630=CARTESIAN_POINT('',(-0.0686135140900253,-0.0419580494609101,-0.011));
#1631=CARTESIAN_POINT('',(-0.0808555152282919,0.027469086773117,-0.011));
#1632=CARTESIAN_POINT('',(-0.0564075503412824,0.0362573940704043,-0.011));
#1633=CARTESIAN_POINT('',(-0.0325155056819811,0.0493467177937073,-0.011));
#1634=CARTESIAN_POINT('',(-0.0134857934449425,0.0541092685950296,-0.011));
#1635=CARTESIAN_POINT('',(0.0135641251335004,0.0541804343983932,-0.011));
#1636=CARTESIAN_POINT('',(0.0326246612730407,0.0493969524993411,-0.011));
#1637=CARTESIAN_POINT('',(0.0799145349816118,0.0449874465933929,-0.011));
#1638=CARTESIAN_POINT('',(0.0897594302580862,-0.0280206062832968,4.65717464685222E-19));
#1639=CARTESIAN_POINT('',(0.0799145349816118,0.0449874465933929,-9.91270557701027E-19));
#1640=CARTESIAN_POINT('',(0.0326246612730407,0.0493969524993411,0.));
#1641=CARTESIAN_POINT('',(0.0135641251335004,0.0541804343983932,0.));
#1642=CARTESIAN_POINT('',(-0.0134857934449425,0.0541092685950296,-2.47816796822753E-19));
#1643=CARTESIAN_POINT('',(-0.0325155056819811,0.0493467177937073,0.));
#1644=CARTESIAN_POINT('',(-0.0564075503412824,0.0362573940704043,0.));
#1645=CARTESIAN_POINT('',(-0.0808555152282919,0.027469086773117,0.));
#1646=CARTESIAN_POINT('',(-0.0686135140900253,-0.0419580494609101,-9.76436979825741E-19));
#1647=CARTESIAN_POINT('',(0.0771773168468659,-0.0623692433188862,6.93997253992339E-19));
#1648=MECHANICAL_DESIGN_GEOMETRIC_PRESENTATION_REPRESENTATION('',(#1009),
#1649);
#1649=(
GEOMETRIC_REPRESENTATION_CONTEXT(3)
GLOBAL_UNCERTAINTY_ASSIGNED_CONTEXT((#1650))
GLOBAL_UNIT_ASSIGNED_CONTEXT((#1653,#1652,#1651))
REPRESENTATION_CONTEXT('Part 2','TOP_LEVEL_ASSEMBLY_PART')
);
#1650=UNCERTAINTY_MEASURE_WITH_UNIT(LENGTH_MEASURE(1.E-8),#1653,
'DISTANCE_ACCURACY_VALUE','Maximum Tolerance applied to model');
#1651=(
NAMED_UNIT(*)
SI_UNIT($,.STERADIAN.)
SOLID_ANGLE_UNIT()
);
#1652=(
NAMED_UNIT(*)
PLANE_ANGLE_UNIT()
SI_UNIT($,.RADIAN.)
);
#1653=(
LENGTH_UNIT()
NAMED_UNIT(*)
SI_UNIT($,.METRE.)
);
#1654=PRODUCT_DEFINITION_SHAPE('','',#1655);
#1655=PRODUCT_DEFINITION('','',#1657,#1656);
#1656=PRODUCT_DEFINITION_CONTEXT('',#1663,'design');
#1657=PRODUCT_DEFINITION_FORMATION_WITH_SPECIFIED_SOURCE('','',#1659,
 .NOT_KNOWN.);
#1658=PRODUCT_RELATED_PRODUCT_CATEGORY('','',(#1659));
#1659=PRODUCT('Part 2','Part 2','Part 2',(#1661));
#1660=PRODUCT_CATEGORY('','');
#1661=PRODUCT_CONTEXT('',#1663,'mechanical');
#1662=APPLICATION_PROTOCOL_DEFINITION('international standard',
'ap242_managed_model_based_3d_engineering',2011,#1663);
#1663=APPLICATION_CONTEXT('managed model based 3d engineering');
ENDSEC;
END-ISO-10303-21;
